<svg xmlns="http://www.w3.org/2000/svg" xmlns:xlink="http://www.w3.org/1999/xlink" version="1.1" id="Calque_1" x="0px" y="0px" viewBox="0 0 440.7 117" style="enable-background:new 0 0 440.7 117;" xml:space="preserve">
<style type="text/css">
	.st0{fill:#020203;}
	.st1{fill:url(#SVGID_1_);}
	.st2{fill:#F07E2D;}
</style>
<path class="st0" d="M223.8,92.5h-10.2l2.5-9.2c-2.7,3.4-6.2,6.1-10.1,8c-3.9,1.9-8.2,2.8-12.5,2.8c-17.1,0-23.7-13.2-19.7-27.9  c4.4-16.1,19.4-27.9,34.8-27.9c10.6,0,15.7,5.8,16.8,10.9l2.5-9.3H238L223.8,92.5z M183.8,66.3c-2,7.9,0.7,18.3,13.6,18.3  c8.1,0,15.1-4.5,19.3-10.5c1.8-2.4,3.1-5,4-7.9c0.8-2.5,1-5.2,0.5-7.9c-0.9-6.1-5.6-10.9-14-10.9c-11.1,0-20.7,8.7-23.4,18.6  L183.8,66.3z"/>
<path class="st0" d="M251.3,39.7h9.6l-2.1,7.8c2.1-2.9,4.9-5.2,8.1-6.9c3.2-1.6,6.7-2.5,10.3-2.4l-2.7,10.1h-0.7  c-9.6,0-16,5.2-18.8,15.7l-7.7,28.5h-10.2L251.3,39.7z"/>
<path class="st0" d="M281.7,69.3c-2.4,10.7,5.5,16.1,13.5,16.1c7.1,0,13.3-3.4,17.7-8.9h10.6c-3.7,5.4-8.6,9.9-14.3,13.1  c-5,2.9-10.6,4.4-16.3,4.5c-17.4,0-24.4-13.9-20.6-27.8c4.1-15.1,19.5-28,35.6-28c7.6,0,13.8,2.8,17.5,7.8c4.6,6.3,5,14.5,1.7,23.4  H281.7z M319.2,61.5c1.4-7-3.5-14.8-13.6-14.6c-10.4,0-19.1,7.5-21.5,14.6H319.2z"/>
<path class="st0" d="M384.9,92.5h-10.2l2.5-9.2c-2.7,3.4-6.2,6.1-10.1,8c-3.9,1.9-8.2,2.8-12.5,2.8c-17.1,0-23.7-13.2-19.7-27.9  c4.3-16.1,19.4-27.9,34.8-27.9c10.6,0,15.7,5.8,16.8,10.9l2.5-9.3h10.2L384.9,92.5z M345,66.3c-2,7.9,0.7,18.3,13.6,18.3  c8.1,0,15.1-4.5,19.3-10.5c1.8-2.4,3.1-5,4-7.9c0.8-2.5,1-5.2,0.6-7.9c-0.9-6.1-5.6-10.9-14-10.9c-11.1,0-20.7,8.7-23.4,18.6  L345,66.3z"/>
<path class="st0" d="M430.2,53.5c1.1-4.1-0.6-7.2-5.8-7.1c-5,0-8.6,3.3-9.5,6.8c-0.9,4.2,2.4,6.1,7.6,7.7c7.5,2.2,15.8,4.6,13,15.9  C433,87.1,422.5,94,411.9,94c-8.4,0-17.6-4.8-14.8-16.8h10c-1.3,6.4,3.3,8.5,7.1,8.5c4.9,0,9.6-3.4,10.8-7.9  c1.3-5.2-2.2-7-10.9-10.1c-6.8-2.2-11.7-5.7-9.7-13.7c2.8-10,12.6-16,22.2-16c7.4,0,15.9,3.6,13.5,15.3H430.2z"/>
<path class="st0" d="M223.8,92.5h-10.2l2.5-9.2c-2.7,3.4-6.2,6.1-10.1,8c-3.9,1.9-8.2,2.8-12.5,2.8c-17.1,0-23.7-13.2-19.7-27.9  c4.4-16.1,19.4-27.9,34.8-27.9c10.6,0,15.7,5.8,16.8,10.9l2.5-9.3H238L223.8,92.5z M183.8,66.3c-2,7.9,0.7,18.3,13.6,18.3  c8.1,0,15.1-4.5,19.3-10.5c1.8-2.4,3.1-5,4-7.9c0.8-2.5,1-5.2,0.5-7.9c-0.9-6.1-5.6-10.9-14-10.9c-11.1,0-20.7,8.7-23.4,18.6  L183.8,66.3z"/>
<path class="st0" d="M251.3,39.7h9.6l-2.1,7.8c2.1-2.9,4.9-5.2,8.1-6.9c3.2-1.6,6.7-2.5,10.3-2.4l-2.7,10.1h-0.7  c-9.6,0-16,5.2-18.8,15.7l-7.7,28.5h-10.2L251.3,39.7z"/>
<path class="st0" d="M281.7,69.3c-2.4,10.7,5.5,16.1,13.5,16.1c7.1,0,13.3-3.4,17.7-8.9h10.6c-3.7,5.4-8.6,9.9-14.3,13.1  c-5,2.9-10.6,4.4-16.3,4.5c-17.4,0-24.4-13.9-20.6-27.8c4.1-15.1,19.5-28,35.6-28c7.6,0,13.8,2.8,17.5,7.8c4.6,6.3,5,14.5,1.7,23.4  H281.7z M319.2,61.5c1.4-7-3.5-14.8-13.6-14.6c-10.4,0-19.1,7.5-21.5,14.6H319.2z"/>
<path class="st0" d="M384.9,92.5h-10.2l2.5-9.2c-2.7,3.4-6.2,6.1-10.1,8c-3.9,1.9-8.2,2.8-12.5,2.8c-17.1,0-23.7-13.2-19.7-27.9  c4.3-16.1,19.4-27.9,34.8-27.9c10.6,0,15.7,5.8,16.8,10.9l2.5-9.3h10.2L384.9,92.5z M345,66.3c-2,7.9,0.7,18.3,13.6,18.3  c8.1,0,15.1-4.5,19.3-10.5c1.8-2.4,3.1-5,4-7.9c0.8-2.5,1-5.2,0.6-7.9c-0.9-6.1-5.6-10.9-14-10.9c-11.1,0-20.7,8.7-23.4,18.6  L345,66.3z"/>
<path class="st0" d="M430.2,53.5c1.1-4.1-0.6-7.2-5.8-7.1c-5,0-8.6,3.3-9.5,6.8c-0.9,4.2,2.4,6.1,7.6,7.7c7.5,2.2,15.8,4.6,13,15.9  C433,87.1,422.5,94,411.9,94c-8.4,0-17.6-4.8-14.8-16.8h10c-1.3,6.4,3.3,8.5,7.1,8.5c4.9,0,9.6-3.4,10.8-7.9  c1.3-5.2-2.2-7-10.9-10.1c-6.8-2.2-11.7-5.7-9.7-13.7c2.8-10,12.6-16,22.2-16c7.4,0,15.9,3.6,13.5,15.3H430.2z"/>
<g>
	<g>
		<linearGradient id="SVGID_1_" gradientUnits="userSpaceOnUse" x1="98.1493" y1="6.8731" x2="59.0774" y2="115.2465">
			<stop offset="0" style="stop-color:#F08213"/>
			<stop offset="0.1982" style="stop-color:#F59D00"/>
			<stop offset="0.4011" style="stop-color:#FAB200"/>
			<stop offset="0.5191" style="stop-color:#FBBA00"/>
			<stop offset="0.5919" style="stop-color:#FCC000"/>
			<stop offset="0.7215" style="stop-color:#FFCE3A"/>
			<stop offset="0.8915" style="stop-color:#FFE575"/>
			<stop offset="1" style="stop-color:#FFF59B"/>
		</linearGradient>
		<path class="st1" d="M124.6,110.9 M133.9,16.3C99,14.1,73,27.5,57,39.6c-31.9,24.2-40.1,63-41.4,70.6c-0.8,4.4-4.9,7.3-9.3,6.5    c-4.4-0.8-7.3-4.9-6.5-9.3c1.5-8.6,10.8-52.8,47.5-80.6C66.8,12.2,99.1-4.3,142.9,1c0.4,0,0.8,0.1,1,0.1l-9,15.2L133.9,16.3z     M140.3,2.2C140.3,2.2,140.3,2.2,140.3,2.2C140.3,2.2,140.3,2.2,140.3,2.2z M140.3,2.1C140.3,2.2,140.3,2.2,140.3,2.1    C140.3,2.2,140.3,2.2,140.3,2.1z M140.3,2.1C140.3,2.1,140.3,2.1,140.3,2.1C140.3,2.1,140.3,2.1,140.3,2.1z M140.3,2.1    C140.3,2.1,140.3,2.1,140.3,2.1C140.3,2.1,140.3,2.1,140.3,2.1z M140.3,2.1C140.3,2.1,140.3,2.1,140.3,2.1    C140.3,2.1,140.3,2.1,140.3,2.1z"/>
	</g>
	<path class="st2" d="M143,1.1c0.4,0,0.8,0.1,1,0.1c1.8-0.1,3.6,0.5,5.1,1.7c2.5,2,3.6,5.3,2.8,8.4L124.6,111   c-0.8,2.7-2.9,4.9-5.7,5.6c-0.7,0.2-1.4,0.3-2.1,0.3c-2.1,0-4.1-0.8-5.6-2.3L68,71.5c-3.1-3.1-3.1-8.2,0-11.3   c3.1-3.1,8.2-3.1,11.3,0l33.5,33.4l21.1-77.2 M94.4,108.5"/>
</g>
</svg>