<?xml version="1.0" encoding="UTF-8"?>
<svg id="Layer_1" xmlns="http://www.w3.org/2000/svg" viewBox="0 0 184.46 97.13">
    <path
        d="M22.68,11.74c-.77,0-1.88-.02-3.35-.07-1.46-.05-3.01-.12-4.64-.22-1.63-.1-3.23-.22-4.79-.36-1.56-.14-2.82-.31-3.78-.5-.19-.1-.37-.35-.54-.76-.17-.41-.25-.8-.25-1.19,0-.43.19-.77.58-1.01,1.92.53,4.01.95,6.26,1.26,2.26.31,4.42.56,6.48.76,2.06.19,3.92.31,5.58.36,1.66.05,2.87.07,3.64.07,1.87,0,3.79-.05,5.76-.14,1.97-.1,3.79-.22,5.47-.36,1.68-.14,3.08-.29,4.21-.43,1.13-.14,1.79-.29,1.98-.43.1,0,.24.1.43.29.19.19.29.41.29.65,0,.53-.24.92-.72,1.19-.48.26-1.15.46-2.02.58-.86.12-1.92.21-3.17.25-1.25.05-2.64.12-4.18.22-.24.05-.36.31-.36.79,0,1.1.18,2.93.54,5.47.36,2.54.82,5.42,1.37,8.64.55,3.22,1.18,6.6,1.87,10.15.7,3.55,1.39,6.9,2.09,10.04.7,3.15,1.34,5.9,1.94,8.28.6,2.38,1.12,4,1.55,4.86.24.1.44.16.61.18.17.02.47.04.9.04.62,0,1.16-.02,1.62-.07.46-.05.8-.07,1.04-.07.19,0,.34.19.43.58.1.38.14.65.14.79,0,.33-.17.5-.5.5-.24,0-.58-.03-1.01-.07-.43-.05-1.03-.08-1.8-.11-.77-.03-1.76-.06-2.99-.11-1.22-.05-2.77-.07-4.64-.07-.62,0-1.31.02-2.05.07-.74.05-1.45.09-2.12.14-.67.05-1.27.1-1.8.14-.53.05-.89.07-1.08.07-.14,0-.26-.1-.36-.29-.1-.19-.14-.41-.14-.65s.04-.44.11-.61c.07-.17.2-.25.4-.25.43-.05,1.01-.08,1.73-.11.72-.02,1.08-.2,1.08-.54,0-.29-.12-1.15-.36-2.59-.24-1.44-.54-3.17-.9-5.18s-.74-4.16-1.15-6.44c-.41-2.28-.8-4.4-1.19-6.37-.86-.14-1.96-.26-3.28-.36-1.32-.1-2.7-.14-4.14-.14-1.68,0-3.28.07-4.79.22s-2.7.41-3.56.79c-.24,1.06-.5,2.17-.79,3.35-.29,1.18-.56,2.36-.83,3.56-.26,1.2-.49,2.39-.68,3.56-.19,1.18-.29,2.27-.29,3.28,0,1.97.42,3.38,1.26,4.25.84.87,1.88,1.3,3.13,1.3s2.03-.04,2.34-.11c.31-.07.59-.11.83-.11.38,0,.58.1.58.29,0,.1-.11.25-.32.47-.22.22-.49.45-.83.68-.43.34-1,.76-1.69,1.26-.7.5-1.6.76-2.7.76-.14,0-.52-.03-1.12-.07-.6-.05-1.33-.11-2.2-.18-.86-.07-1.78-.13-2.74-.18-.96-.05-1.87-.07-2.74-.07-1.2,0-2.17.02-2.92.07s-1.33.1-1.76.14c-.43.05-.73.1-.9.14-.17.05-.3.07-.4.07s-.18-.08-.25-.25c-.07-.17-.11-.35-.11-.54,0-.29.12-.46.36-.5.48-.19,1.18-.55,2.09-1.08.96-.58,1.81-1.55,2.56-2.92.74-1.37,1.6-3.23,2.56-5.58.67-1.58,1.42-3.74,2.23-6.48.82-2.74,1.63-5.74,2.45-9,.82-3.26,1.58-6.68,2.3-10.26.72-3.58,1.32-7.02,1.8-10.33l6.34-3.38ZM30.02,34.13c-.24-1.2-.52-2.69-.83-4.46-.31-1.77-.64-3.59-.97-5.44-.34-1.85-.66-3.59-.97-5.22-.31-1.63-.56-2.88-.76-3.74-.29-1.3-.54-2.11-.76-2.45-.22-.34-.44-.5-.68-.5-.48,0-.98.4-1.51,1.19-.53.79-1.09,1.85-1.69,3.17-.6,1.32-1.19,2.83-1.76,4.54-.58,1.7-1.14,3.46-1.69,5.26-.55,1.8-1.06,3.59-1.51,5.36-.46,1.78-.83,3.38-1.12,4.82.77-.19,1.74-.4,2.92-.61,1.18-.22,2.42-.44,3.74-.68,1.32-.24,2.64-.47,3.96-.68,1.32-.22,2.53-.4,3.64-.54Z" />
    <path
        d="M84.24,30.6c-.53.43-1.15.97-1.87,1.62-.72.65-1.48,1.27-2.27,1.87-.79.6-1.6,1.12-2.41,1.55-.82.43-1.61.65-2.38.65-.67,0-1.27-.16-1.8-.47-.53-.31-1.02-.65-1.48-1.01-.46-.36-.9-.69-1.33-1.01-.43-.31-.89-.47-1.37-.47-1.3,0-2.39.53-3.28,1.58-.89,1.06-1.61,2.4-2.16,4.03-.55,1.63-.96,3.41-1.22,5.33-.26,1.92-.4,3.77-.4,5.54,0,1.49.06,2.7.18,3.64.12.94.3,1.68.54,2.23.24.55.56.92.97,1.12.41.19.9.29,1.48.29.62,0,1.3-.1,2.02-.29.14-.05.25.05.32.29.07.24.11.43.11.58,0,.1-.07.21-.22.32-.14.12-.24.18-.29.18-1.06.43-2.14.9-3.24,1.4-1.1.5-2.02.92-2.74,1.26-.67.29-1.48.6-2.41.94-.94.33-1.74.5-2.41.5-.77,0-1.4-.12-1.91-.36-.5-.24-.76-.48-.76-.72s.06-.46.18-.65c.12-.19.23-.55.32-1.08.1-.72.2-1.57.32-2.56.12-.98.24-2.05.36-3.2.12-1.15.22-2.34.29-3.56.07-1.22.11-2.44.11-3.64,0-2.69-.08-4.97-.25-6.84-.17-1.87-.47-3.38-.9-4.54s-1.02-1.98-1.76-2.48c-.74-.5-1.69-.76-2.84-.76h-.65c-.19,0-.38.02-.58.07-.29,0-.43-.14-.43-.43s.14-.5.43-.65c.53-.34,1.34-.83,2.45-1.48,1.1-.65,2.24-1.27,3.42-1.87,1.18-.6,2.31-1.14,3.42-1.62,1.1-.48,1.92-.72,2.45-.72.62,0,1.15.2,1.58.61.43.41.76.92.97,1.55.22.62.37,1.33.47,2.12.1.79.14,1.57.14,2.34,0,.58-.01,1.18-.04,1.8-.02.62-.04,1.3-.04,2.02,2.16-3.17,4.1-5.63,5.83-7.38,1.73-1.75,3.36-2.63,4.9-2.63.58,0,1.14.24,1.69.72.55.48,1.14,1.02,1.76,1.62.62.6,1.27,1.14,1.94,1.62.67.48,1.37.72,2.09.72.62,0,1.08-.07,1.37-.22s.53-.26.72-.36c.38,0,.58.26.58.79v.07Z" />
    <path
        d="M113.47,52.78c-.53.58-1.34,1.37-2.45,2.38-1.1,1.01-2.44,2.02-4,3.02-1.56,1.01-3.3,1.87-5.22,2.59-1.92.72-3.96,1.08-6.12,1.08-1.97,0-3.89-.3-5.76-.9s-3.55-1.51-5.04-2.74c-1.49-1.22-2.68-2.78-3.56-4.68-.89-1.9-1.33-4.16-1.33-6.8,0-2.16.14-4.02.43-5.58.29-1.56.67-2.93,1.15-4.1.48-1.18,1.02-2.18,1.62-3.02.6-.84,1.21-1.6,1.84-2.27.77-.86,1.7-1.68,2.81-2.45,1.1-.77,2.29-1.46,3.56-2.09,1.27-.62,2.62-1.12,4.03-1.48,1.42-.36,2.84-.54,4.28-.54,2.59,0,4.62.43,6.08,1.3,1.46.86,2.2,2.06,2.2,3.6,0,.96-.29,1.85-.86,2.66.48-.14,1.09-.38,1.84-.72.74-.33,1.5-.68,2.27-1.04.77-.36,1.45-.68,2.05-.97.6-.29,1-.5,1.19-.65.1-.1.2-.13.32-.11.12.02.18.11.18.25,0,.62-.12,1.14-.36,1.55-.24.41-.53.73-.86.97-.77.48-1.87,1.08-3.31,1.8-1.44.72-3.04,1.48-4.79,2.27-1.75.79-3.56,1.58-5.44,2.38-1.87.79-3.64,1.55-5.29,2.27-1.66.72-3.1,1.36-4.32,1.91-1.22.55-2.05.95-2.48,1.19,0,1.63.32,3.16.97,4.57.65,1.42,1.55,2.65,2.7,3.71,1.15,1.06,2.53,1.88,4.14,2.48,1.61.6,3.37.9,5.29.9,1.73,0,3.29-.18,4.68-.54,1.39-.36,2.57-.77,3.53-1.22.96-.46,1.72-.86,2.27-1.22.55-.36.85-.54.9-.54.19,0,.38.08.58.25.19.17.29.35.29.54ZM88.13,41.76c.82-.29,1.74-.64,2.77-1.04,1.03-.41,2.04-.85,3.02-1.33.98-.48,1.88-.94,2.7-1.37.82-.43,1.44-.82,1.87-1.15.86-.62,1.3-1.68,1.3-3.17,0-.58-.11-1.18-.32-1.8-.22-.62-.54-1.19-.97-1.69-.43-.5-.96-.91-1.58-1.22-.62-.31-1.32-.47-2.09-.47-.67,0-1.39.23-2.16.68-.77.46-1.49,1.2-2.16,2.23-.67,1.03-1.24,2.4-1.69,4.1-.46,1.7-.68,3.78-.68,6.23Z" />
    <path
        d="M135.07,38.81c-.29-1.49-.62-2.82-1.01-4-.38-1.18-.86-2.16-1.44-2.95s-1.27-1.39-2.09-1.8c-.82-.41-1.82-.61-3.02-.61-1.06,0-2.03.19-2.92.58-.89.38-1.66.84-2.3,1.37-.65.53-1.15,1.06-1.51,1.58-.36.53-.56.94-.61,1.22-.05.38-.26.58-.65.58-.67,0-1.3-.24-1.87-.72-.58-.48-.86-1.06-.86-1.73,0-.38.05-.67.14-.86,1.1-.62,2.45-1.3,4.03-2.02,1.58-.72,3.23-1.39,4.93-2.02,1.7-.62,3.4-1.14,5.08-1.55,1.68-.41,3.19-.61,4.54-.61,2.02,0,3.56.29,4.64.86s1.88,1.39,2.41,2.45c.53,1.06.85,2.29.97,3.71.12,1.42.23,2.94.32,4.57.14,2.45.34,4.81.58,7.09.24,2.28.6,4.3,1.08,6.05.48,1.75,1.09,3.17,1.84,4.25.74,1.08,1.67,1.62,2.77,1.62.53,0,1.1-.1,1.73-.29.62-.19,1.22-.42,1.8-.68s1.09-.53,1.55-.79c.46-.26.76-.44.9-.54.43,0,.7.22.79.65,0,.24-.05.46-.14.65-.1.1-.46.34-1.08.72-.62.38-1.39.84-2.3,1.37-.91.53-1.92,1.09-3.02,1.69-1.1.6-2.2,1.16-3.28,1.69-1.08.53-2.08.96-2.99,1.3-.91.33-1.63.5-2.16.5-.62,0-1.16-.25-1.62-.76-.46-.5-.85-1.18-1.19-2.02-.34-.84-.62-1.81-.86-2.92-.24-1.1-.46-2.26-.65-3.46-.86.72-1.97,1.57-3.31,2.56-1.34.98-2.81,1.91-4.39,2.77-1.58.86-3.2,1.6-4.86,2.2-1.66.6-3.25.9-4.79.9-1.3,0-2.42-.21-3.38-.61-.96-.41-1.76-.95-2.41-1.62-.65-.67-1.13-1.45-1.44-2.34-.31-.89-.47-1.81-.47-2.77,0-1.54.47-2.8,1.4-3.78.94-.98,2.39-2,4.36-3.06.91-.48,2.18-1.12,3.82-1.91,1.63-.79,3.3-1.6,5-2.41,1.7-.82,3.29-1.6,4.75-2.34,1.46-.74,2.53-1.33,3.2-1.76ZM137.16,49.97c-.14-.82-.29-1.7-.43-2.66-.14-.96-.29-1.87-.43-2.74-.14-.86-.28-1.61-.4-2.23-.12-.62-.2-1.03-.25-1.22-.77.29-1.63.62-2.59,1.01-.96.38-1.92.8-2.88,1.26-.96.46-1.87.91-2.74,1.37-.86.46-1.58.88-2.16,1.26-1.1.72-1.94,1.44-2.52,2.16-.58.72-.86,1.58-.86,2.59,0,1.39.41,2.62,1.22,3.67.82,1.06,2.09,1.58,3.82,1.58.91,0,1.86-.17,2.84-.5.98-.33,1.9-.72,2.74-1.15.84-.43,1.57-.86,2.2-1.3.62-.43,1.06-.77,1.3-1.01.38-.38.68-.71.9-.97.22-.26.3-.63.25-1.12Z" />
    <path
        d="M153.43,59.4c-.38.24-.74.64-1.08,1.19-.34.55-.55.97-.65,1.26-.05.1-.18.18-.4.25-.22.07-.37.11-.47.11-.43,0-.65-.22-.65-.65,0-.14.19-.53.58-1.15.29-.48.74-1.24,1.37-2.27.62-1.03,1.26-2.09,1.91-3.17s1.25-2.06,1.8-2.95c.55-.89.95-1.47,1.19-1.76.24-.24.53-.28.86-.11.34.17.43.37.29.61-.1.1-.17.22-.22.36-.05.14-.07.38-.07.72,0,.43.37.97,1.12,1.62.74.65,1.69,1.27,2.84,1.87,1.15.6,2.42,1.12,3.82,1.55,1.39.43,2.76.65,4.1.65,1.58,0,2.84-.46,3.78-1.37.94-.91,1.4-2.11,1.4-3.6,0-1.68-.53-2.93-1.58-3.74-1.06-.82-2.36-1.44-3.92-1.87-1.56-.43-3.26-.78-5.11-1.04-1.85-.26-3.55-.66-5.11-1.19-1.56-.53-2.87-1.3-3.92-2.3-1.06-1.01-1.58-2.47-1.58-4.39,0-1.49.52-3,1.55-4.54,1.03-1.54,2.4-2.9,4.1-4.1,1.7-1.2,3.66-2.18,5.87-2.95,2.21-.77,4.51-1.15,6.91-1.15.72,0,1.56.07,2.52.22.96.14,1.91.32,2.84.54.94.22,1.8.43,2.59.65.79.22,1.38.4,1.76.54.1,0,.07.19-.07.58-.14.43-.5,1.09-1.08,1.98-.58.89-1.21,1.76-1.91,2.63-.7.86-1.34,1.63-1.94,2.3-.6.67-1.02,1.01-1.26,1.01h-.43c-.24,0-.41-.05-.5-.14.05-.24.07-.55.07-.94,0-1.68-.76-3-2.27-3.96-1.51-.96-3.71-1.44-6.59-1.44-1.39,0-2.53.41-3.42,1.22-.89.82-1.33,1.8-1.33,2.95,0,1.87.53,3.26,1.58,4.18,1.06.91,2.38,1.6,3.96,2.05,1.58.46,3.29.8,5.11,1.04,1.82.24,3.53.61,5.11,1.12,1.58.5,2.9,1.26,3.96,2.27,1.06,1.01,1.58,2.52,1.58,4.54,0,.91-.19,1.8-.58,2.66-.38.87-.89,1.68-1.51,2.45-.62.77-1.32,1.47-2.09,2.12-.77.65-1.54,1.21-2.3,1.69-.72.48-1.54.97-2.45,1.48-.91.5-1.9.97-2.95,1.4-1.06.43-2.14.78-3.24,1.04-1.1.26-2.21.4-3.31.4-.53,0-1.37-.11-2.52-.32s-2.32-.47-3.49-.76c-1.18-.29-2.22-.56-3.13-.83-.91-.26-1.39-.44-1.44-.54Z" />
</svg>