<?xml version="1.0" encoding="UTF-8"?>
<svg id="Layer_1" xmlns="http://www.w3.org/2000/svg" viewBox="0 0 370.62 97.13">
    <path
        d="M37.66,61.56c-.48,0-1.13.02-1.94.07-.82.05-1.69.08-2.63.11-.94.02-1.9.06-2.88.11-.98.05-1.88.07-2.7.07-3.22,0-6.36-.49-9.43-1.48-3.07-.98-5.8-2.52-8.17-4.61s-4.3-4.78-5.76-8.06c-1.46-3.29-2.2-7.24-2.2-11.84,0-4.22.8-7.97,2.41-11.23,1.61-3.26,3.73-6,6.37-8.21,2.64-2.21,5.62-3.89,8.93-5.04,3.31-1.15,6.7-1.73,10.15-1.73.77,0,1.81.05,3.13.14,1.32.1,2.64.22,3.96.36,1.32.14,2.5.3,3.53.47,1.03.17,1.69.32,1.98.47.62-1.68,1.32-3.17,2.09-4.46.77-1.3,1.82-2.28,3.17-2.95.38-.14.82-.17,1.3-.07.48.1.72.34.72.72-.24.43-.42.7-.54.79-.12.1-.28.14-.47.14-.58,0-1.14.26-1.69.79-.55.53-1.07,1.21-1.55,2.05-.48.84-.9,1.8-1.26,2.88-.36,1.08-.64,2.17-.83,3.28-.1.53-.21,1.14-.32,1.84-.12.7-.23,1.38-.32,2.05-.1.67-.17,1.32-.22,1.94-.05.62-.07,1.15-.07,1.58,0,.24-.1.44-.29.61-.19.17-.38.25-.58.25-.29,0-.62-.14-1.01-.43-.19-1.2-.59-2.4-1.19-3.6-.6-1.2-1.44-2.28-2.52-3.24-1.08-.96-2.42-1.73-4.03-2.3-1.61-.58-3.52-.86-5.72-.86-2.35,0-4.45.55-6.3,1.66-1.85,1.1-3.41,2.62-4.68,4.54-1.27,1.92-2.24,4.2-2.92,6.84-.67,2.64-1.01,5.47-1.01,8.5,0,4.18.42,7.88,1.26,11.12.84,3.24,2,5.99,3.49,8.24,1.49,2.26,3.26,3.97,5.33,5.15,2.06,1.18,4.32,1.76,6.77,1.76,1.63,0,3.23-.26,4.79-.79,1.56-.53,3-1.25,4.32-2.16,1.32-.91,2.5-1.97,3.53-3.17,1.03-1.2,1.84-2.47,2.41-3.82.1-.19.35-.33.76-.43.41-.1.61-.05.61.14,0,.62-.21,1.48-.61,2.56-.41,1.08-.88,2.16-1.4,3.24-.53,1.08-1.06,2.06-1.58,2.95-.53.89-.89,1.48-1.08,1.76-.14.34-.32.78-.54,1.33-.22.55-.41,1.18-.58,1.87-.17.7-.32,1.41-.47,2.16-.14.74-.22,1.47-.22,2.2,0,.77-.1,1.25-.29,1.44-.19.19-.6.29-1.22.29-.53,0-.77-.37-.72-1.12.05-.74.17-1.6.36-2.55.19-.96.38-1.86.58-2.7.19-.84.19-1.38,0-1.62Z" />
    <path
        d="M73.01,53.85c.29.19.43.43.43.72,0,.38-.55.89-1.66,1.51-1.15.67-2.68,1.46-4.57,2.38-1.9.91-3.78,1.7-5.65,2.38-.91.34-1.73.62-2.45.86-.72.24-1.37.36-1.94.36-.67,0-1.5-.16-2.48-.47-.98-.31-1.84-.68-2.56-1.12-.58-.38-1.03-.68-1.37-.9-.34-.22-.5-.44-.5-.68,0-.19.06-.37.18-.54.12-.17.23-.37.32-.61.05-.14.1-.33.14-.58.05-.24.07-.48.07-.72.14-1.2.3-2.94.47-5.22.17-2.28.3-4.8.4-7.56.1-2.76.18-5.62.25-8.57.07-2.95.11-5.7.11-8.24,0-3.12-.01-5.64-.04-7.56-.02-1.92-.08-3.46-.18-4.61-.14-1.58-.34-2.63-.58-3.13-.24-.5-.5-.88-.79-1.12-.34-.29-.66-.47-.97-.54-.31-.07-.6-.12-.86-.14-.26-.02-.48-.04-.65-.04s-.25-.05-.25-.14c0-1.58.67-2.38,2.02-2.38,1.01,0,2.2.01,3.56.04,1.37.02,2.51.04,3.42.04.58,0,1.19-.04,1.84-.11.65-.07,1.28-.14,1.91-.22.62-.07,1.2-.16,1.73-.25.53-.1.91-.19,1.15-.29.19-.05.35.02.47.22.12.19.19.43.22.72.02.29-.02.55-.14.79-.12.24-.28.38-.47.43-.29.05-.54.07-.76.07s-.59.1-1.12.29c-.24.1-.46.4-.65.9-.19.5-.36,1.3-.5,2.38s-.29,2.5-.43,4.25c-.14,1.75-.29,3.95-.43,6.59-.14,2.11-.25,4.26-.32,6.44-.07,2.18-.14,4.31-.22,6.37-.07,2.06-.12,3.98-.14,5.76-.02,1.78-.04,3.29-.04,4.54,0,1.39.01,2.8.04,4.21.02,1.42.16,2.53.4,3.35.24.77.86,1.49,1.87,2.16,1.01.67,2.06,1.01,3.17,1.01.86,0,1.75-.12,2.66-.36.91-.24,1.75-.53,2.52-.86.77-.34,1.45-.67,2.05-1.01.6-.34,1.04-.6,1.33-.79Z" />
    <path
        d="M79.77,48.67c0,1.01.02,1.98.07,2.92.05.94.22,1.74.5,2.41.29.67.72,1.21,1.3,1.62.58.41,1.39.61,2.45.61.53,0,1.13-.06,1.8-.18.67-.12,1.31-.28,1.91-.47.6-.19,1.13-.38,1.58-.58.46-.19.73-.33.83-.43.14-.14.24-.14.29,0,.05.14.06.32.04.54-.02.22-.08.43-.18.65-.1.22-.22.37-.36.47-.48.24-1.32.67-2.52,1.3-1.2.62-2.62,1.27-4.25,1.94-1.54.67-3.04,1.24-4.5,1.69-1.46.46-2.68.68-3.64.68-1.1,0-1.97-.34-2.59-1.01-.62-.67-.94-1.51-.94-2.52,0-.34.01-.62.04-.86.02-.24.06-.55.11-.94.05-.48.13-1.36.25-2.63.12-1.27.24-2.7.36-4.28.12-1.58.23-3.18.32-4.79.1-1.61.14-2.99.14-4.14v-2.52c0-1.25-.07-2.35-.22-3.31-.14-.96-.38-1.7-.72-2.23-.24-.34-.54-.61-.9-.83-.36-.22-.8-.32-1.33-.32-.29,0-.58.06-.86.18-.29.12-.5.18-.65.18-.1,0-.25-.14-.47-.43s-.2-.5.04-.65c.33-.24,1.03-.62,2.09-1.15,1.06-.53,2.21-1.1,3.46-1.73,1.34-.67,2.64-1.26,3.89-1.76,1.25-.5,2.14-.76,2.66-.76s.89.16,1.08.47c.19.31.29.66.29,1.04v.29c0,.48-.07,1.25-.22,2.3-.14,1.06-.3,2.35-.47,3.89-.17,1.54-.32,3.31-.47,5.33-.14,2.02-.22,4.2-.22,6.55v3.46ZM76.9,11.23c.24.05.64.31,1.19.79.55.48,1.12,1.03,1.69,1.66.58.62,1.08,1.22,1.51,1.8.43.58.65.96.65,1.15,0,.24-.29.6-.86,1.08-.58.48-1.24.97-1.98,1.48-.74.5-1.46.95-2.16,1.33-.7.38-1.19.58-1.48.58-.14,0-.49-.23-1.04-.68-.55-.46-1.12-.97-1.69-1.55-.58-.58-1.09-1.14-1.55-1.69-.46-.55-.68-.92-.68-1.12,0-.24.31-.61.94-1.12.62-.5,1.31-1.03,2.05-1.58.74-.55,1.46-1.03,2.16-1.44.69-.41,1.12-.64,1.26-.68Z" />
    <path
        d="M115.56,57.89c-1.54.96-3.43,1.82-5.69,2.59-2.26.77-4.44,1.15-6.55,1.15-.67,0-1.43-.05-2.27-.14-.84-.1-1.52-.19-2.05-.29-.05.91-.08,1.85-.11,2.81-.02.96-.05,1.88-.07,2.77-.02.89-.05,1.72-.07,2.48-.02.77-.04,1.42-.04,1.94,0,2.45.2,4.1.61,4.97.41.86,1.04,1.3,1.91,1.3.43,0,1.02-.06,1.76-.18.74-.12,1.4-.32,1.98-.61.1-.1.2,0,.32.29.12.29.18.55.18.79,0,.05-.34.18-1.01.4-.67.22-1.52.48-2.56.79-1.03.31-2.15.65-3.35,1.01-1.2.36-2.35.7-3.46,1.01-1.1.31-2.05.56-2.84.76-.79.19-1.28.29-1.48.29-.29,0-.55-.02-.79-.07-.24-.05-.36-.26-.36-.65,0-.24.08-.4.25-.47.17-.07.3-.18.4-.32.24-.29.38-.83.43-1.62.05-.79.12-1.57.22-2.34.14-1.87.3-4.09.47-6.66.17-2.57.32-5.26.47-8.06.14-2.81.28-5.62.4-8.42.12-2.81.18-5.36.18-7.67,0-3.26-.13-5.82-.4-7.67-.26-1.85-.64-3.22-1.12-4.1-.48-.89-1.02-1.44-1.62-1.66-.6-.22-1.24-.32-1.91-.32-.14,0-.35.01-.61.04-.26.02-.52.04-.76.04-.19,0-.29-.17-.29-.5,0-.24.01-.4.04-.47.02-.07.13-.16.32-.25.24-.14.68-.38,1.33-.72.65-.34,1.39-.71,2.23-1.12.84-.41,1.74-.84,2.7-1.3.96-.46,1.86-.86,2.7-1.22.84-.36,1.57-.66,2.2-.9.62-.24,1.06-.36,1.3-.36.72,0,1.21.31,1.48.94.26.62.42,1.46.47,2.52,0,.43-.01,1.12-.04,2.05-.02.94-.06,2-.11,3.2.62-.67,1.48-1.5,2.56-2.48,1.08-.98,2.3-1.93,3.67-2.84,1.37-.91,2.81-1.69,4.32-2.34,1.51-.65,2.99-.97,4.43-.97,2.06,0,3.9.37,5.51,1.12,1.61.74,2.94,1.73,4,2.95,1.06,1.22,1.86,2.62,2.41,4.18.55,1.56.83,3.16.83,4.79,0,2.3-.35,4.43-1.04,6.37-.7,1.94-1.55,3.67-2.56,5.18-1.01,1.51-2.11,2.82-3.31,3.92-1.2,1.1-2.3,1.97-3.31,2.59l-2.3,1.51ZM99.36,52.34c.14.53.53,1.07,1.15,1.62.62.55,1.43,1.06,2.41,1.51.98.46,2.11.84,3.38,1.15,1.27.31,2.63.47,4.07.47,1.3,0,2.53-.25,3.71-.76,1.18-.5,2.2-1.29,3.06-2.38.86-1.08,1.55-2.48,2.05-4.21.5-1.73.76-3.82.76-6.26,0-1.73-.24-3.36-.72-4.9-.48-1.54-1.18-2.88-2.09-4.03-.91-1.15-1.99-2.05-3.24-2.7-1.25-.65-2.62-.97-4.1-.97-.77,0-1.62.17-2.56.5-.94.34-1.84.79-2.7,1.37-.86.58-1.67,1.25-2.41,2.02-.74.77-1.28,1.58-1.62,2.45-.24.58-.44,1.48-.61,2.7-.17,1.22-.29,2.57-.36,4.03-.07,1.46-.12,2.94-.14,4.43-.02,1.49-.04,2.81-.04,3.96Z" />
    <path
        d="M198.5,54.93c.14,0,.24.08.29.25.05.17.07.37.07.61s-.05.4-.14.47c-.1.07-.19.16-.29.25-.34.19-1.14.6-2.41,1.22-1.27.62-2.69,1.26-4.25,1.91-1.56.65-3.1,1.22-4.61,1.73-1.51.5-2.65.76-3.42.76-.67,0-1.31-.14-1.91-.43-.6-.29-.85-.74-.76-1.37.1-.38.2-.96.32-1.73.12-.77.23-1.7.32-2.81.1-1.39.2-3,.32-4.82.12-1.82.18-3.84.18-6.05,0-2.59-.17-4.74-.5-6.44-.34-1.7-.82-3.06-1.44-4.07-.62-1.01-1.39-1.72-2.3-2.12-.91-.41-1.97-.61-3.17-.61-1.1,0-2.04.18-2.81.54-.77.36-1.44.76-2.02,1.19-1.06.82-1.88,1.86-2.48,3.13-.6,1.27-.97,2.94-1.12,5-.05.53-.08,1.06-.11,1.58-.02.53-.05,1.1-.07,1.73-.02.62-.05,1.32-.07,2.09-.02.77-.04,1.68-.04,2.74,0,2.83.23,4.8.68,5.9.46,1.11,1.24,1.66,2.34,1.66.38,0,.62-.01.72-.04.1-.02.29-.06.58-.11.1.1.19.22.29.36.14.24.12.5-.07.79-.24.29-.82.66-1.73,1.12-.91.46-1.92.88-3.02,1.26-1.1.38-2.18.72-3.24,1.01-1.06.29-1.85.43-2.38.43-.67,0-1.28-.08-1.84-.25-.55-.17-.83-.37-.83-.61,0-.29.1-.62.29-1.01.14-.24.29-.82.43-1.73s.28-2.09.4-3.53c.12-1.44.23-3.11.32-5,.1-1.9.14-3.95.14-6.16,0-1.15-.06-2.42-.18-3.82-.12-1.39-.42-2.7-.9-3.92-.48-1.22-1.19-2.26-2.12-3.1-.94-.84-2.22-1.26-3.85-1.26-.96,0-1.82.13-2.59.4-.77.26-1.42.59-1.94.97-1.06.82-1.96,1.82-2.7,3.02-.75,1.2-1.24,2.9-1.48,5.11-.1,1.01-.19,2.05-.29,3.13-.1,1.08-.14,2.32-.14,3.71,0,1.83.05,3.34.14,4.54.1,1.2.26,2.15.5,2.84.24.7.53,1.18.86,1.44.34.26.77.4,1.3.4s.89-.05,1.08-.14c.24-.1.41.05.5.43.1.38.07.62-.07.72-.19.19-.7.49-1.51.9-.82.41-1.75.83-2.81,1.26-1.06.43-2.14.82-3.24,1.15-1.1.33-2.04.5-2.81.5-.82,0-1.45-.1-1.91-.29-.46-.19-.68-.41-.68-.65,0-.05.05-.2.14-.47.1-.26.17-.49.22-.68.19-1.49.37-2.87.54-4.14.17-1.27.29-2.65.36-4.14.07-1.49.13-3.19.18-5.11.05-1.92.07-4.25.07-6.98s-.42-4.58-1.26-5.83c-.84-1.25-1.72-1.87-2.63-1.87-.38,0-.71.04-.97.11-.26.07-.52.13-.76.18-.29.05-.43-.1-.43-.43v-.5s.53-.38,1.44-1.01c.91-.62,1.99-1.3,3.24-2.02,1.25-.72,2.54-1.38,3.89-1.98,1.34-.6,2.45-.9,3.31-.9.58,0,1.07.17,1.48.5.41.34.61.96.61,1.87,0,.43-.01.91-.04,1.44-.02.53-.05,1.08-.07,1.66-.02.58-.06,1.14-.11,1.69-.05.55-.07,1.02-.07,1.4.67-.62,1.52-1.44,2.56-2.45,1.03-1.01,2.2-1.97,3.49-2.88,1.3-.91,2.7-1.7,4.21-2.38,1.51-.67,3.11-1.01,4.79-1.01,2.21,0,4.01.65,5.4,1.94,1.39,1.3,2.14,3.55,2.23,6.77.77-.72,1.7-1.58,2.81-2.59,1.1-1.01,2.34-1.97,3.71-2.88,1.37-.91,2.82-1.68,4.36-2.3,1.54-.62,3.1-.94,4.68-.94,5.57,0,8.35,2.95,8.35,8.86,0,.96-.05,2.06-.14,3.31-.1,1.25-.22,2.56-.36,3.92-.14,1.37-.26,2.73-.36,4.07-.1,1.34-.14,2.57-.14,3.67,0,4.99,1.32,7.49,3.96,7.49.43,0,.91-.06,1.44-.18.53-.12,1.06-.26,1.58-.43.53-.17,1.01-.34,1.44-.5s.74-.32.94-.47h.07Z" />
    <path
        d="M219.6,38.81c-.29-1.49-.62-2.82-1.01-4-.38-1.18-.86-2.16-1.44-2.95s-1.27-1.39-2.09-1.8c-.82-.41-1.82-.61-3.02-.61-1.06,0-2.03.19-2.92.58-.89.38-1.66.84-2.3,1.37-.65.53-1.15,1.06-1.51,1.58-.36.53-.56.94-.61,1.22-.05.38-.26.58-.65.58-.67,0-1.3-.24-1.87-.72-.58-.48-.86-1.06-.86-1.73,0-.38.05-.67.14-.86,1.1-.62,2.45-1.3,4.03-2.02,1.58-.72,3.23-1.39,4.93-2.02,1.7-.62,3.4-1.14,5.08-1.55,1.68-.41,3.19-.61,4.54-.61,2.02,0,3.56.29,4.64.86s1.88,1.39,2.41,2.45c.53,1.06.85,2.29.97,3.71.12,1.42.23,2.94.32,4.57.14,2.45.34,4.81.58,7.09.24,2.28.6,4.3,1.08,6.05.48,1.75,1.09,3.17,1.84,4.25.74,1.08,1.67,1.62,2.77,1.62.53,0,1.1-.1,1.73-.29.62-.19,1.22-.42,1.8-.68s1.09-.53,1.55-.79c.46-.26.76-.44.9-.54.43,0,.7.22.79.65,0,.24-.05.46-.14.65-.1.1-.46.34-1.08.72-.62.38-1.39.84-2.3,1.37-.91.53-1.92,1.09-3.02,1.69-1.1.6-2.2,1.16-3.28,1.69-1.08.53-2.08.96-2.99,1.3-.91.33-1.63.5-2.16.5-.62,0-1.16-.25-1.62-.76-.46-.5-.85-1.18-1.19-2.02-.34-.84-.62-1.81-.86-2.92-.24-1.1-.46-2.26-.65-3.46-.86.72-1.97,1.57-3.31,2.56-1.34.98-2.81,1.91-4.39,2.77-1.58.86-3.2,1.6-4.86,2.2-1.66.6-3.25.9-4.79.9-1.3,0-2.42-.21-3.38-.61-.96-.41-1.76-.95-2.41-1.62-.65-.67-1.13-1.45-1.44-2.34-.31-.89-.47-1.81-.47-2.77,0-1.54.47-2.8,1.4-3.78.94-.98,2.39-2,4.36-3.06.91-.48,2.18-1.12,3.82-1.91,1.63-.79,3.3-1.6,5-2.41,1.7-.82,3.29-1.6,4.75-2.34,1.46-.74,2.53-1.33,3.2-1.76ZM221.69,49.97c-.14-.82-.29-1.7-.43-2.66-.14-.96-.29-1.87-.43-2.74-.14-.86-.28-1.61-.4-2.23-.12-.62-.2-1.03-.25-1.22-.77.29-1.63.62-2.59,1.01-.96.38-1.92.8-2.88,1.26-.96.46-1.87.91-2.74,1.37-.86.46-1.58.88-2.16,1.26-1.1.72-1.94,1.44-2.52,2.16-.58.72-.86,1.58-.86,2.59,0,1.39.41,2.62,1.22,3.67.82,1.06,2.09,1.58,3.82,1.58.91,0,1.86-.17,2.84-.5.98-.33,1.9-.72,2.74-1.15.84-.43,1.57-.86,2.2-1.3.62-.43,1.06-.77,1.3-1.01.38-.38.68-.71.9-.97.22-.26.3-.63.25-1.12Z" />
    <path
        d="M247.46,44.57c0,.96-.02,2.16-.07,3.6-.05,1.44-.07,2.93-.07,4.46,0,1.73.26,2.96.79,3.71.53.75,1.22,1.12,2.09,1.12.05,0,.17-.02.36-.07.19-.05.4-.08.61-.11.22-.02.42-.06.61-.11.19-.05.31-.07.36-.07.1,0,.2.08.32.25.12.17.16.3.11.4-.29.34-.95.74-1.98,1.22-1.03.48-2.18.95-3.46,1.4-1.27.46-2.5.85-3.67,1.19-1.18.33-2.05.5-2.63.5-.67,0-1.2-.19-1.58-.58-.38-.38-.58-.67-.58-.86,0-.14.01-.24.04-.29.02-.05.05-.1.07-.14.02-.05.06-.13.11-.25.05-.12.1-.32.14-.61.14-.62.29-1.43.43-2.41.14-.98.28-2.21.4-3.67.12-1.46.23-3.24.32-5.33.1-2.09.19-4.57.29-7.45.05-2.26.08-4.48.11-6.66.02-2.18.05-4.24.07-6.16.02-1.92.04-3.68.04-5.29v-4.07c0-2.3-.12-4.1-.36-5.4-.24-1.3-.5-2.14-.79-2.52-.34-.48-.8-.73-1.4-.76-.6-.02-1.02-.06-1.26-.11-.05-.43-.02-.82.07-1.15.1-.29.24-.55.43-.79.19-.24.55-.36,1.08-.36.86,0,1.87-.01,3.02-.04,1.15-.02,2.35-.07,3.6-.14,1.25-.07,2.47-.17,3.67-.29,1.2-.12,2.26-.28,3.17-.47.29-.05.44.04.47.25.02.22-.01.59-.11,1.12-.05.29-.18.47-.4.54-.22.07-.46.11-.72.11s-.5.01-.72.04c-.22.02-.37.13-.47.32-.1.24-.22.55-.36.94-.14.38-.26.94-.36,1.66-.14.96-.29,2.24-.43,3.85-.14,1.61-.28,3.4-.4,5.36-.12,1.97-.24,4.03-.36,6.19-.12,2.16-.23,4.25-.32,6.26-.1,2.02-.17,3.89-.22,5.62-.05,1.73-.07,3.14-.07,4.25,1.39,0,2.89-.33,4.5-1.01,1.61-.67,3.1-1.58,4.46-2.74,1.37-1.15,2.51-2.51,3.42-4.07.91-1.56,1.37-3.23,1.37-5,0-1.39-.46-2.09-1.37-2.09-.77,0-1.46.11-2.09.32-.62.22-1.06.32-1.3.32-.72,0-1.13-.19-1.22-.58,0-.29.12-.61.36-.97.24-.36.48-.59.72-.68,1.01,0,2.15-.05,3.42-.14,1.27-.1,2.56-.23,3.85-.4,1.3-.17,2.54-.35,3.74-.54,1.2-.19,2.21-.36,3.02-.5.24.1.36.24.36.43,0,.43-.4,1.37-1.19,2.81s-1.85,3.02-3.17,4.75c-1.32,1.73-2.82,3.41-4.5,5.04-1.68,1.63-3.41,2.86-5.18,3.67.53.34,1.22.96,2.09,1.87.86.91,1.81,1.97,2.84,3.17,1.03,1.2,2.12,2.45,3.28,3.74,1.15,1.3,2.33,2.48,3.53,3.56,1.2,1.08,2.36,1.97,3.49,2.66,1.13.7,2.2,1.04,3.2,1.04.72,0,1.28-.07,1.69-.22.41-.14.83-.34,1.26-.58.24.14.36.31.36.5,0,.38-.18.76-.54,1.12-.36.36-1.16.73-2.41,1.12-.82.24-1.75.56-2.81.97-1.06.41-2.08.79-3.06,1.15-.98.36-1.85.66-2.59.9-.74.24-1.21.34-1.4.29-.38-.1-1-.57-1.84-1.4-.84-.84-1.8-1.87-2.88-3.1-1.08-1.22-2.23-2.57-3.46-4.03-1.22-1.46-2.42-2.84-3.6-4.14-1.18-1.3-2.27-2.45-3.28-3.46-1.01-1.01-1.85-1.68-2.52-2.02h-.58Z" />
    <path
        d="M308.08,52.78c-.53.58-1.34,1.37-2.45,2.38-1.1,1.01-2.44,2.02-4,3.02-1.56,1.01-3.3,1.87-5.22,2.59-1.92.72-3.96,1.08-6.12,1.08-1.97,0-3.89-.3-5.76-.9s-3.55-1.51-5.04-2.74c-1.49-1.22-2.68-2.78-3.56-4.68-.89-1.9-1.33-4.16-1.33-6.8,0-2.16.14-4.02.43-5.58.29-1.56.67-2.93,1.15-4.1.48-1.18,1.02-2.18,1.62-3.02.6-.84,1.21-1.6,1.84-2.27.77-.86,1.7-1.68,2.81-2.45,1.1-.77,2.29-1.46,3.56-2.09,1.27-.62,2.62-1.12,4.03-1.48,1.42-.36,2.84-.54,4.28-.54,2.59,0,4.62.43,6.08,1.3,1.46.86,2.2,2.06,2.2,3.6,0,.96-.29,1.85-.86,2.66.48-.14,1.09-.38,1.84-.72.74-.33,1.5-.68,2.27-1.04.77-.36,1.45-.68,2.05-.97.6-.29,1-.5,1.19-.65.1-.1.2-.13.32-.11.12.02.18.11.18.25,0,.62-.12,1.14-.36,1.55-.24.41-.53.73-.86.97-.77.48-1.87,1.08-3.31,1.8-1.44.72-3.04,1.48-4.79,2.27-1.75.79-3.56,1.58-5.44,2.38s-3.64,1.55-5.29,2.27c-1.66.72-3.1,1.36-4.32,1.91-1.22.55-2.05.95-2.48,1.19,0,1.63.32,3.16.97,4.57.65,1.42,1.55,2.65,2.7,3.71,1.15,1.06,2.53,1.88,4.14,2.48,1.61.6,3.37.9,5.29.9,1.73,0,3.29-.18,4.68-.54,1.39-.36,2.57-.77,3.53-1.22.96-.46,1.72-.86,2.27-1.22s.85-.54.9-.54c.19,0,.38.08.58.25.19.17.29.35.29.54ZM282.74,41.76c.82-.29,1.74-.64,2.77-1.04,1.03-.41,2.04-.85,3.02-1.33.98-.48,1.88-.94,2.7-1.37.82-.43,1.44-.82,1.87-1.15.86-.62,1.3-1.68,1.3-3.17,0-.58-.11-1.18-.32-1.8-.22-.62-.54-1.19-.97-1.69-.43-.5-.96-.91-1.58-1.22-.62-.31-1.32-.47-2.09-.47-.67,0-1.39.23-2.16.68-.77.46-1.49,1.2-2.16,2.23-.67,1.03-1.24,2.4-1.69,4.1-.46,1.7-.68,3.78-.68,6.23Z" />
    <path
        d="M341.49,30.6c-.53.43-1.15.97-1.87,1.62-.72.65-1.48,1.27-2.27,1.87-.79.6-1.6,1.12-2.41,1.55s-1.61.65-2.38.65c-.67,0-1.27-.16-1.8-.47-.53-.31-1.02-.65-1.48-1.01-.46-.36-.9-.69-1.33-1.01-.43-.31-.89-.47-1.37-.47-1.3,0-2.39.53-3.28,1.58-.89,1.06-1.61,2.4-2.16,4.03-.55,1.63-.96,3.41-1.22,5.33-.26,1.92-.4,3.77-.4,5.54,0,1.49.06,2.7.18,3.64.12.94.3,1.68.54,2.23.24.55.56.92.97,1.12.41.19.9.29,1.48.29.62,0,1.3-.1,2.02-.29.14-.05.25.05.32.29.07.24.11.43.11.58,0,.1-.07.21-.22.32-.14.12-.24.18-.29.18-1.06.43-2.14.9-3.24,1.4-1.11.5-2.02.92-2.74,1.26-.67.29-1.48.6-2.41.94-.94.33-1.74.5-2.41.5-.77,0-1.4-.12-1.91-.36s-.76-.48-.76-.72.06-.46.18-.65.23-.55.32-1.08c.1-.72.2-1.57.32-2.56.12-.98.24-2.05.36-3.2.12-1.15.22-2.34.29-3.56.07-1.22.11-2.44.11-3.64,0-2.69-.08-4.97-.25-6.84-.17-1.87-.47-3.38-.9-4.54-.43-1.15-1.02-1.98-1.76-2.48s-1.69-.76-2.84-.76h-.65c-.19,0-.38.02-.58.07-.29,0-.43-.14-.43-.43s.14-.5.43-.65c.53-.34,1.34-.83,2.45-1.48,1.1-.65,2.24-1.27,3.42-1.87,1.18-.6,2.32-1.14,3.42-1.62,1.1-.48,1.92-.72,2.45-.72.62,0,1.15.2,1.58.61.43.41.76.92.97,1.55.22.62.37,1.33.47,2.12.1.79.14,1.57.14,2.34,0,.58-.01,1.18-.04,1.8-.02.62-.04,1.3-.04,2.02,2.16-3.17,4.1-5.63,5.83-7.38,1.73-1.75,3.36-2.63,4.9-2.63.58,0,1.14.24,1.69.72.55.48,1.14,1.02,1.76,1.62.62.6,1.27,1.14,1.94,1.62.67.48,1.37.72,2.09.72.62,0,1.08-.07,1.37-.22.29-.14.53-.26.72-.36.38,0,.58.26.58.79v.07Z" />
    <path
        d="M335.87,60.26c1.06-.62,2.11-1.49,3.17-2.59,1.05-1.1,2.11-2.34,3.17-3.71,1.06-1.37,2.12-2.82,3.2-4.36,1.08-1.54,2.15-3.07,3.2-4.61,1.78-2.59,3.44-5.06,5-7.42,1.56-2.35,2.8-4.27,3.71-5.76h-1.15c-1.78,0-3.71-.07-5.8-.22-2.09-.14-3.97-.22-5.65-.22-1.54,0-2.64.12-3.31.36-.67.24-1.27.62-1.8,1.15-.14,0-.35-.06-.61-.18-.26-.12-.4-.3-.4-.54,0-.14.02-.24.07-.29.58-.38,1.34-1.03,2.3-1.94.96-.91,1.92-1.82,2.88-2.74.96-.91,1.8-1.72,2.52-2.41.72-.7,1.15-1.04,1.3-1.04.34,0,.58.06.72.18.14.12.26.25.36.4.1.14.22.3.36.47.14.17.38.32.72.47.58.24,1.37.48,2.38.72,1.01.24,2.14.44,3.38.61,1.25.17,2.59.31,4.03.43,1.44.12,2.88.18,4.32.18.91,0,1.85-.06,2.81-.18.96-.12,1.8-.28,2.52-.47.05,0,.12.1.22.29.1.19.14.36.14.5,0,.1-.02.18-.07.25-.05.07-.07.13-.07.18-1.34,1.01-2.84,2.69-4.5,5.04-1.66,2.35-3.9,5.3-6.73,8.86-.24.24-.42.48-.54.72-.12.24-.28.48-.47.72-2.11,2.69-3.96,4.98-5.54,6.88-1.58,1.9-3,3.52-4.25,4.86.72.1,1.57.26,2.56.5.98.24,2.09.48,3.31.72,1.22.24,2.57.46,4.03.65,1.46.19,3.04.29,4.72.29,1.78,0,3.23-.16,4.36-.47s2.17-.92,3.13-1.84c.33-.34.49-.48.47-.43-.03.05.06.07.25.07.24,0,.35.13.32.4-.03.26-.04.45-.04.54,0,.58-.34,1.27-1.01,2.09-.67.82-1.61,1.6-2.81,2.34-1.2.74-2.63,1.38-4.28,1.91-1.66.53-3.49.79-5.51.79-1.25,0-2.6-.07-4.07-.22-1.46-.14-2.96-.31-4.5-.5-1.54-.19-3.07-.36-4.61-.5-1.54-.14-2.98-.22-4.32-.22-.82,0-1.5.08-2.05.25-.55.17-1.19.35-1.91.54-.24,0-.36-.14-.36-.43,0-.05.05-.26.14-.65l.58-.43Z" />
</svg>