<?xml version="1.0" encoding="UTF-8"?>
<svg id="Layer_1" xmlns="http://www.w3.org/2000/svg" viewBox="0 0 242.9 97.13">
    <path
        d="M44.5,64.37c-.1-.67-.28-1.38-.54-2.12-.26-.74-.83-1.12-1.69-1.12-.72,0-1.69.04-2.92.11-1.22.07-2.53.17-3.92.29-1.39.12-2.78.22-4.18.29-1.39.07-2.62.11-3.67.11-4.18,0-7.87-.6-11.09-1.8-3.22-1.2-5.93-2.85-8.14-4.97-2.21-2.11-3.89-4.64-5.04-7.6-1.15-2.95-1.73-6.2-1.73-9.76,0-4.94.79-9.2,2.38-12.78,1.58-3.58,3.72-6.52,6.41-8.82,2.69-2.3,5.78-4,9.29-5.08,3.5-1.08,7.18-1.62,11.02-1.62,1.15,0,2.4.04,3.74.11,1.34.07,2.62.17,3.82.29,1.2.12,2.26.24,3.17.36.91.12,1.56.23,1.94.32.24.05.48-.36.72-1.22.24-.86.54-1.81.9-2.84.36-1.03.78-1.99,1.26-2.88.48-.89,1.06-1.33,1.73-1.33.82.24,1.39.5,1.73.79.33.29.17.67-.5,1.15-1.1.86-2.03,2.03-2.77,3.49-.74,1.46-1.4,3.23-1.98,5.29-.24.62-.49,1.51-.76,2.66-.26,1.15-.49,2.45-.68,3.89-.1.38-.4.56-.9.54-.5-.02-.85-.37-1.04-1.04-.24-.67-.7-1.43-1.37-2.27-.67-.84-1.56-1.64-2.66-2.41-1.1-.77-2.42-1.4-3.96-1.91-1.54-.5-3.26-.76-5.18-.76-2.16,0-4.13.56-5.9,1.69-1.78,1.13-3.31,2.62-4.61,4.46-1.3,1.85-2.33,3.96-3.1,6.34-.77,2.38-1.22,4.84-1.37,7.38.38.1,1.19.19,2.41.29,1.22.1,2.56.17,4,.22,1.44.05,2.83.08,4.18.11,1.34.02,2.35.01,3.02-.04,1.54,0,3.05-.07,4.54-.22,1.49-.14,2.85-.35,4.1-.61,1.25-.26,2.33-.56,3.24-.9.91-.33,1.56-.7,1.94-1.08.19-.29.47-.41.83-.36.36.05.61.17.76.36-.1.43-.26,1-.5,1.69-.24.7-.5,1.5-.79,2.41-.29.91-.53,1.92-.72,3.02-.19,1.1-.29,2.26-.29,3.46-.1.48-.37.62-.83.43-.46-.19-.73-.46-.83-.79-.19-.77-.66-1.37-1.4-1.8-.74-.43-1.7-.76-2.88-.97-1.18-.22-2.51-.35-4-.4-1.49-.05-3.1-.07-4.82-.07-3.26,0-5.89.02-7.88.07-1.99.05-3.4.1-4.21.14,0,1.44.11,3,.32,4.68.22,1.68.59,3.36,1.12,5.04.53,1.68,1.22,3.3,2.09,4.86.86,1.56,1.94,2.95,3.24,4.18,1.3,1.22,2.84,2.2,4.64,2.92,1.8.72,3.88,1.08,6.23,1.08s4.25-.28,5.98-.83c1.73-.55,3.19-1.22,4.39-2.02,1.2-.79,2.17-1.62,2.92-2.48.74-.86,1.26-1.63,1.55-2.3.14-.14.24-.22.29-.22.19,0,.42.07.68.22.26.14.4.34.4.58-.14.53-.29,1.11-.43,1.73-.24,1.2-.36,2.57-.36,4.1,0,1.25.05,2.47.14,3.67.1,1.2.26,2.21.5,3.02-.48.19-.9.28-1.26.25-.36-.03-.59-.25-.68-.68Z" />
    <path
        d="M49.54,82.58c.43-.48,1.08-1.27,1.94-2.38.86-1.1,1.81-2.35,2.84-3.74,1.03-1.39,2.09-2.88,3.17-4.46,1.08-1.58,2.1-3.08,3.06-4.5.96-1.42,1.79-2.71,2.48-3.89.7-1.18,1.14-2.05,1.33-2.63-.77-2.02-1.58-4.15-2.45-6.41-.86-2.26-1.76-4.49-2.7-6.7s-1.87-4.32-2.81-6.34c-.94-2.02-1.86-3.78-2.77-5.29-.91-1.51-1.79-2.72-2.63-3.64-.84-.91-1.6-1.37-2.27-1.37-.19,0-.41.06-.65.18-.24.12-.46.23-.65.32-.14.1-.31-.02-.5-.36-.19-.33-.19-.55,0-.65.19-.14.76-.5,1.69-1.08.94-.58,1.98-1.19,3.13-1.84s2.27-1.24,3.35-1.76c1.08-.53,1.86-.79,2.34-.79s1.04.43,1.69,1.3c.65.86,1.32,2.03,2.02,3.49.7,1.46,1.43,3.13,2.2,5,.77,1.87,1.54,3.83,2.3,5.87.77,2.04,1.52,4.09,2.27,6.16.74,2.06,1.45,3.98,2.12,5.76.62-.96,1.43-2.33,2.41-4.1.98-1.78,1.93-3.67,2.84-5.69.91-2.02,1.69-4.01,2.34-5.98.65-1.97.97-3.62.97-4.97s-.34-2.39-1.01-2.99c-.67-.6-1.42-.9-2.23-.9-.62,0-1.12.01-1.48.04-.36.02-.76.08-1.19.18-.1,0-.24-.06-.43-.18-.19-.12-.29-.3-.29-.54s.53-.5,1.58-.79c1.06-.29,2.28-.55,3.67-.79,1.39-.24,2.76-.44,4.1-.61,1.34-.17,2.28-.25,2.81-.25,1.1,0,1.92.22,2.45.65.53.43.79.94.79,1.51-.29,1.15-.9,2.65-1.84,4.5-.94,1.85-2.05,3.86-3.35,6.05-1.3,2.19-2.68,4.44-4.14,6.77-1.46,2.33-2.87,4.52-4.21,6.59-1.34,2.06-2.56,3.91-3.64,5.54-1.08,1.63-1.86,2.83-2.34,3.6-.96,1.49-1.87,3.04-2.74,4.64-.86,1.61-1.66,3.22-2.38,4.82-.72,1.61-1.36,3.14-1.91,4.61-.55,1.46-.95,2.79-1.19,4-.14.72-.01,1.19.4,1.4.41.22.94.26,1.58.14s1.36-.35,2.12-.68c.77-.34,1.42-.72,1.94-1.15.24-.19.4-.23.47-.11.07.12.11.3.11.54s-.05.49-.14.76c-.1.26-.22.44-.36.54-.05,0-.6.22-1.66.65-1.06.43-2.33.9-3.82,1.4-1.49.5-3.06.97-4.72,1.4-1.66.43-3.11.65-4.36.65s-1.8-.38-1.8-1.15c0-.1.01-.17.04-.22.02-.05.04-.1.04-.14Z" />
    <path
        d="M121.61,52.78c-.53.58-1.34,1.37-2.45,2.38-1.1,1.01-2.44,2.02-4,3.02-1.56,1.01-3.3,1.87-5.22,2.59-1.92.72-3.96,1.08-6.12,1.08-1.97,0-3.89-.3-5.76-.9s-3.55-1.51-5.04-2.74c-1.49-1.22-2.68-2.78-3.56-4.68-.89-1.9-1.33-4.16-1.33-6.8,0-2.16.14-4.02.43-5.58.29-1.56.67-2.93,1.15-4.1.48-1.18,1.02-2.18,1.62-3.02.6-.84,1.21-1.6,1.84-2.27.77-.86,1.7-1.68,2.81-2.45,1.1-.77,2.29-1.46,3.56-2.09,1.27-.62,2.62-1.12,4.03-1.48,1.42-.36,2.84-.54,4.28-.54,2.59,0,4.62.43,6.08,1.3,1.46.86,2.2,2.06,2.2,3.6,0,.96-.29,1.85-.86,2.66.48-.14,1.09-.38,1.84-.72.74-.33,1.5-.68,2.27-1.04.77-.36,1.45-.68,2.05-.97.6-.29,1-.5,1.19-.65.1-.1.2-.13.32-.11.12.02.18.11.18.25,0,.62-.12,1.14-.36,1.55-.24.41-.53.73-.86.97-.77.48-1.87,1.08-3.31,1.8-1.44.72-3.04,1.48-4.79,2.27-1.75.79-3.56,1.58-5.44,2.38-1.87.79-3.64,1.55-5.29,2.27-1.66.72-3.1,1.36-4.32,1.91-1.22.55-2.05.95-2.48,1.19,0,1.63.32,3.16.97,4.57.65,1.42,1.55,2.65,2.7,3.71,1.15,1.06,2.53,1.88,4.14,2.48,1.61.6,3.37.9,5.29.9,1.73,0,3.29-.18,4.68-.54,1.39-.36,2.57-.77,3.53-1.22.96-.46,1.72-.86,2.27-1.22.55-.36.85-.54.9-.54.19,0,.38.08.58.25.19.17.29.35.29.54ZM96.26,41.76c.82-.29,1.74-.64,2.77-1.04,1.03-.41,2.04-.85,3.02-1.33.98-.48,1.88-.94,2.7-1.37.82-.43,1.44-.82,1.87-1.15.86-.62,1.3-1.68,1.3-3.17,0-.58-.11-1.18-.32-1.8-.22-.62-.54-1.19-.97-1.69-.43-.5-.96-.91-1.58-1.22-.62-.31-1.32-.47-2.09-.47-.67,0-1.39.23-2.16.68-.77.46-1.49,1.2-2.16,2.23-.67,1.03-1.24,2.4-1.69,4.1-.46,1.7-.68,3.78-.68,6.23Z" />
    <path
        d="M121.97,59.4c-.38.24-.74.64-1.08,1.19-.34.55-.55.97-.65,1.26-.05.1-.18.18-.4.25-.22.07-.37.11-.47.11-.43,0-.65-.22-.65-.65,0-.14.19-.53.58-1.15.29-.48.74-1.24,1.37-2.27.62-1.03,1.26-2.09,1.91-3.17s1.25-2.06,1.8-2.95c.55-.89.95-1.47,1.19-1.76.24-.24.53-.28.86-.11.34.17.43.37.29.61-.1.1-.17.22-.22.36-.05.14-.07.38-.07.72,0,.43.37.97,1.12,1.62.74.65,1.69,1.27,2.84,1.87,1.15.6,2.42,1.12,3.82,1.55,1.39.43,2.76.65,4.1.65,1.58,0,2.84-.46,3.78-1.37.94-.91,1.4-2.11,1.4-3.6,0-1.68-.53-2.93-1.58-3.74-1.06-.82-2.36-1.44-3.92-1.87-1.56-.43-3.26-.78-5.11-1.04-1.85-.26-3.55-.66-5.11-1.19-1.56-.53-2.87-1.3-3.92-2.3-1.06-1.01-1.58-2.47-1.58-4.39,0-1.49.52-3,1.55-4.54,1.03-1.54,2.4-2.9,4.1-4.1,1.7-1.2,3.66-2.18,5.87-2.95,2.21-.77,4.51-1.15,6.91-1.15.72,0,1.56.07,2.52.22.96.14,1.91.32,2.84.54.94.22,1.8.43,2.59.65.79.22,1.38.4,1.76.54.1,0,.07.19-.07.58-.14.43-.5,1.09-1.08,1.98-.58.89-1.21,1.76-1.91,2.63-.7.86-1.34,1.63-1.94,2.3-.6.67-1.02,1.01-1.26,1.01h-.43c-.24,0-.41-.05-.5-.14.05-.24.07-.55.07-.94,0-1.68-.76-3-2.27-3.96-1.51-.96-3.71-1.44-6.59-1.44-1.39,0-2.53.41-3.42,1.22-.89.82-1.33,1.8-1.33,2.95,0,1.87.53,3.26,1.58,4.18,1.06.91,2.38,1.6,3.96,2.05,1.58.46,3.29.8,5.11,1.04,1.82.24,3.53.61,5.11,1.12,1.58.5,2.9,1.26,3.96,2.27,1.06,1.01,1.58,2.52,1.58,4.54,0,.91-.19,1.8-.58,2.66-.38.87-.89,1.68-1.51,2.45-.62.77-1.32,1.47-2.09,2.12-.77.65-1.54,1.21-2.3,1.69-.72.48-1.54.97-2.45,1.48-.91.5-1.9.97-2.95,1.4-1.06.43-2.14.78-3.24,1.04-1.1.26-2.21.4-3.31.4-.53,0-1.37-.11-2.52-.32s-2.32-.47-3.49-.76c-1.18-.29-2.22-.56-3.13-.83-.91-.26-1.39-.44-1.44-.54Z" />
    <path
        d="M183.88,55.44c-.53.43-1.25,1.01-2.16,1.73-.91.72-1.97,1.44-3.17,2.16-1.2.72-2.52,1.33-3.96,1.84s-2.95.76-4.54.76c-2.4,0-4.54-.42-6.41-1.26-1.87-.84-3.44-1.97-4.72-3.38-1.27-1.42-2.23-3.08-2.88-5-.65-1.92-.97-3.96-.97-6.12,0-2.54.38-4.8,1.15-6.77.77-1.97,1.72-3.68,2.84-5.15,1.13-1.46,2.34-2.69,3.64-3.67,1.3-.98,2.47-1.76,3.53-2.34.48-.29,1.09-.6,1.84-.94.74-.33,1.56-.65,2.45-.94.89-.29,1.85-.54,2.88-.76,1.03-.22,2.1-.32,3.2-.32,2.06,0,4.07.26,6.01.79,1.94.53,3.66,1.36,5.15,2.48,1.49,1.13,2.69,2.58,3.6,4.36.91,1.78,1.37,3.91,1.37,6.41,0,2.02-.37,3.91-1.12,5.69-.74,1.78-1.62,3.36-2.63,4.75-1.01,1.39-2,2.58-2.99,3.56-.98.98-1.69,1.69-2.12,2.12ZM175.75,56.59c2.74,0,4.84-1.03,6.3-3.1,1.46-2.06,2.2-5.23,2.2-9.5,0-2.16-.3-4.16-.9-6.01-.6-1.85-1.44-3.47-2.52-4.86-1.08-1.39-2.34-2.48-3.78-3.28s-3-1.19-4.68-1.19c-1.2,0-2.34.31-3.42.94-1.08.62-2.03,1.52-2.84,2.7-.82,1.18-1.46,2.6-1.94,4.28-.48,1.68-.72,3.58-.72,5.69,0,2.26.35,4.27,1.04,6.05.7,1.78,1.62,3.28,2.77,4.5,1.15,1.22,2.46,2.16,3.92,2.81,1.46.65,2.99.97,4.57.97Z" />
    <path
        d="M208.29,42.19c-.05.43-.1.82-.14,1.15-.05.34-.08.72-.11,1.15-.02.43-.05.97-.07,1.62-.02.65-.04,1.5-.04,2.56,0,1.73.06,3.14.18,4.25.12,1.11.3,1.98.54,2.63.24.65.54,1.09.9,1.33.36.24.8.36,1.33.36.34,0,.7-.05,1.08-.14.1,0,.18.13.25.4.07.26.06.44-.04.54-.29.24-.85.59-1.69,1.04-.84.46-1.79.9-2.84,1.33-1.06.43-2.15.82-3.28,1.15-1.13.33-2.08.5-2.84.5-.67,0-1.2-.08-1.58-.25-.38-.17-.58-.37-.58-.61s.02-.38.07-.43c.05-.05.12-.17.22-.36.1-.24.17-.54.22-.9.05-.36.12-.78.22-1.26.1-.67.19-1.52.29-2.56.1-1.03.19-2.16.29-3.38.1-1.22.18-2.5.25-3.82.07-1.32.11-2.6.11-3.85,0-.53-.01-1.19-.04-1.98-.02-.79-.06-1.81-.11-3.06-.05-1.39-.2-2.58-.47-3.56-.26-.98-.6-1.78-1.01-2.38-.41-.6-.86-1.04-1.37-1.33-.5-.29-1-.43-1.48-.43h-.72c-.24,0-.48.02-.72.07-.19,0-.29-.22-.29-.65,0-.1.04-.18.11-.25.07-.07.3-.23.68-.47.62-.43,1.46-.96,2.52-1.58,1.06-.62,2.14-1.2,3.24-1.73,1.1-.53,2.15-.98,3.13-1.37.98-.38,1.74-.58,2.27-.58,1.39,0,2.09.79,2.09,2.38,0,.24-.02.67-.07,1.3-.05.62-.08,1.26-.11,1.91-.02.65-.06,1.26-.11,1.84-.05.58-.07.96-.07,1.15,1.01-.96,2.09-1.94,3.24-2.95,1.15-1.01,2.4-1.93,3.74-2.77,1.34-.84,2.76-1.52,4.25-2.05,1.49-.53,3.02-.79,4.61-.79,2.88,0,5.24.83,7.09,2.48,1.85,1.66,2.77,4.28,2.77,7.88,0,.96-.06,2.09-.18,3.38-.12,1.3-.25,2.64-.4,4.03-.14,1.39-.28,2.76-.4,4.1-.12,1.34-.18,2.54-.18,3.6,0,3.84,1.25,5.76,3.74,5.76.48,0,1.02-.08,1.62-.25.6-.17,1.18-.36,1.73-.58.55-.21,1.04-.43,1.48-.65s.72-.4.86-.54c.05-.05.11-.01.18.11.07.12.13.28.18.47.05.19.06.36.04.5-.02.14-.06.24-.11.29-.38.24-1.21.7-2.48,1.37-1.27.67-2.69,1.36-4.25,2.05-1.56.7-3.11,1.32-4.64,1.87-1.54.55-2.76.83-3.67.83-1.1,0-1.86-.26-2.27-.79-.41-.53-.61-1.08-.61-1.66,0-.38.06-.86.18-1.44.12-.58.28-1.51.47-2.81.19-1.39.37-3.02.54-4.9.17-1.87.25-3.89.25-6.05,0-4.22-.78-7.43-2.34-9.61-1.56-2.18-3.52-3.28-5.87-3.28-1.49,0-2.81.29-3.96.86-1.15.58-2.14,1.36-2.95,2.34-.82.98-1.46,2.11-1.94,3.38-.48,1.27-.79,2.63-.94,4.07Z" />
</svg>