<?xml version="1.0" encoding="UTF-8"?>
<svg id="Layer_1" xmlns="http://www.w3.org/2000/svg" viewBox="0 0 413.63 97.13">
    <path
        d="M34.13,46.8c-.67-.14-1.42-.26-2.23-.36-.82-.1-1.68-.17-2.59-.22-.91-.05-1.81-.08-2.7-.11-.89-.02-1.72-.04-2.48-.04h-2.23c-.34,0-.62.02-.86.07-.24.05-.36.12-.36.22,0,1.25.01,2.7.04,4.36.02,1.66.07,3.31.14,4.97.07,1.66.16,3.18.25,4.57.1,1.39.24,2.4.43,3.02.1.38.5.66,1.22.83.72.17,1.54.25,2.45.25.38,0,.78-.01,1.19-.04.41-.02.88-.04,1.4-.04s.94.12,1.22.36c.29.24.43.53.43.86,0,.38-.04.72-.11,1.01s-.59.43-1.55.43c-.38,0-1-.02-1.84-.07-.84-.05-1.75-.1-2.74-.14-.98-.05-2-.05-3.06,0-1.06.05-1.99.14-2.81.29-1.92.38-3.72.83-5.4,1.33-1.68.5-3.19,1.02-4.54,1.55-1.34.53-2.47,1.04-3.38,1.55-.91.5-1.56.97-1.94,1.4-.19.24-.34.36-.43.36h-.36c-.1,0-.34-.13-.72-.4-.38-.26-.58-.61-.58-1.04,0-.24.4-.59,1.19-1.04.79-.46,1.74-.94,2.84-1.44,1.1-.5,2.26-.98,3.46-1.44,1.2-.46,2.23-.8,3.1-1.04.24-.34.44-1.29.61-2.84.17-1.56.31-3.84.43-6.84.12-3,.22-6.76.29-11.27.07-4.51.13-9.91.18-16.2,0-1.73-.02-3.49-.07-5.29-.05-1.8-.12-3.48-.22-5.04-.1-1.56-.24-2.92-.43-4.07-.19-1.15-.43-1.97-.72-2.45-.24-.34-.68-.56-1.33-.68-.65-.12-1.4-.18-2.27-.18h-3.71c-.31,0-.64-.04-.97-.11-.34-.07-.61-.18-.83-.32s-.32-.33-.32-.58c0-.53.07-.9.22-1.12.14-.22.79-.32,1.94-.32.48,0,1.08.02,1.8.07.72.05,1.45.08,2.2.11.74.02,1.49.06,2.23.11.74.05,1.4.07,1.98.07,1.54,0,3.44-.14,5.72-.43,2.28-.29,4.62-.48,7.02-.58,1.78-.05,3.59-.08,5.44-.11,1.85-.02,3.58-.05,5.18-.07,1.61-.02,3-.05,4.18-.07,1.18-.02,1.98-.08,2.41-.18.43-1.34.91-2.51,1.44-3.49.53-.98,1.08-1.5,1.66-1.55.24,0,.56.08.97.25.41.17.61.4.61.68-.14.14-.26.29-.36.43-.19.29-.29.5-.29.65-.58,1.01-1.09,2.3-1.55,3.89-.46,1.58-.84,3.22-1.15,4.9-.31,1.68-.54,3.31-.68,4.9s-.14,2.9,0,3.96c-.14.72-.43,1.08-.86,1.08-.77,0-1.24-.13-1.4-.4-.17-.26-.2-.54-.11-.83.1-.38.17-.88.22-1.48.05-.6.07-1.09.07-1.48,0-1.15-.38-2.15-1.15-2.99-.77-.84-1.8-1.54-3.1-2.09-1.3-.55-2.82-.97-4.57-1.26-1.75-.29-3.61-.43-5.58-.43-.53,0-1.24.01-2.12.04-.89.02-1.55.23-1.98.61-.1.38-.19,1.2-.29,2.45-.1,1.25-.18,2.73-.25,4.43-.07,1.7-.13,3.53-.18,5.47-.05,1.94-.08,3.83-.11,5.65-.02,1.82-.05,3.48-.07,4.97-.02,1.49-.04,2.59-.04,3.31.96.05,1.88.07,2.77.07h2.63c2.88.05,5.41-.01,7.6-.18,2.18-.17,3.64-.37,4.36-.61.43-.14.78-.35,1.04-.61s.48-.54.65-.83c.17-.29.33-.54.5-.76.17-.22.35-.32.54-.32.24,0,.48.12.72.36.24.24.31.46.22.65-.29.53-.55,1.26-.79,2.2-.24.94-.44,1.97-.61,3.1-.17,1.13-.31,2.29-.43,3.49-.12,1.2-.18,2.33-.18,3.38,0,.19.01.38.04.58.02.19.04.41.04.65,0,.14-.11.25-.32.32-.22.07-.43.11-.65.11s-.42-.02-.61-.07c-.19-.05-.29-.14-.29-.29,0-.29-.02-.63-.07-1.04-.05-.41-.16-.8-.32-1.19-.17-.38-.43-.76-.79-1.12-.36-.36-.85-.66-1.48-.9l-1.08-.29Z" />
    <path
        d="M80.49,30.6c-.53.43-1.15.97-1.87,1.62-.72.65-1.48,1.27-2.27,1.87-.79.6-1.6,1.12-2.41,1.55-.82.43-1.61.65-2.38.65-.67,0-1.27-.16-1.8-.47-.53-.31-1.02-.65-1.48-1.01-.46-.36-.9-.69-1.33-1.01-.43-.31-.89-.47-1.37-.47-1.3,0-2.39.53-3.28,1.58-.89,1.06-1.61,2.4-2.16,4.03-.55,1.63-.96,3.41-1.22,5.33-.26,1.92-.4,3.77-.4,5.54,0,1.49.06,2.7.18,3.64.12.94.3,1.68.54,2.23.24.55.56.92.97,1.12.41.19.9.29,1.48.29.62,0,1.3-.1,2.02-.29.14-.05.25.05.32.29.07.24.11.43.11.58,0,.1-.07.21-.22.32-.14.12-.24.18-.29.18-1.06.43-2.14.9-3.24,1.4-1.1.5-2.02.92-2.74,1.26-.67.29-1.48.6-2.41.94-.94.33-1.74.5-2.41.5-.77,0-1.4-.12-1.91-.36-.5-.24-.76-.48-.76-.72s.06-.46.18-.65c.12-.19.23-.55.32-1.08.1-.72.2-1.57.32-2.56.12-.98.24-2.05.36-3.2.12-1.15.22-2.34.29-3.56.07-1.22.11-2.44.11-3.64,0-2.69-.08-4.97-.25-6.84-.17-1.87-.47-3.38-.9-4.54s-1.02-1.98-1.76-2.48c-.74-.5-1.69-.76-2.84-.76h-.65c-.19,0-.38.02-.58.07-.29,0-.43-.14-.43-.43s.14-.5.43-.65c.53-.34,1.34-.83,2.45-1.48,1.1-.65,2.24-1.27,3.42-1.87,1.18-.6,2.31-1.14,3.42-1.62,1.1-.48,1.92-.72,2.45-.72.62,0,1.15.2,1.58.61.43.41.76.92.97,1.55.22.62.37,1.33.47,2.12.1.79.14,1.57.14,2.34,0,.58-.01,1.18-.04,1.8-.02.62-.04,1.3-.04,2.02,2.16-3.17,4.1-5.63,5.83-7.38,1.73-1.75,3.36-2.63,4.9-2.63.58,0,1.14.24,1.69.72.55.48,1.14,1.02,1.76,1.62.62.6,1.27,1.14,1.94,1.62.67.48,1.37.72,2.09.72.62,0,1.08-.07,1.37-.22s.53-.26.72-.36c.38,0,.58.26.58.79v.07Z" />
    <path
        d="M109.73,52.78c-.53.58-1.34,1.37-2.45,2.38-1.1,1.01-2.44,2.02-4,3.02-1.56,1.01-3.3,1.87-5.22,2.59-1.92.72-3.96,1.08-6.12,1.08-1.97,0-3.89-.3-5.76-.9s-3.55-1.51-5.04-2.74c-1.49-1.22-2.68-2.78-3.56-4.68-.89-1.9-1.33-4.16-1.33-6.8,0-2.16.14-4.02.43-5.58.29-1.56.67-2.93,1.15-4.1.48-1.18,1.02-2.18,1.62-3.02.6-.84,1.21-1.6,1.84-2.27.77-.86,1.7-1.68,2.81-2.45,1.1-.77,2.29-1.46,3.56-2.09,1.27-.62,2.62-1.12,4.03-1.48,1.42-.36,2.84-.54,4.28-.54,2.59,0,4.62.43,6.08,1.3,1.46.86,2.2,2.06,2.2,3.6,0,.96-.29,1.85-.86,2.66.48-.14,1.09-.38,1.84-.72.74-.33,1.5-.68,2.27-1.04.77-.36,1.45-.68,2.05-.97.6-.29,1-.5,1.19-.65.1-.1.2-.13.32-.11.12.02.18.11.18.25,0,.62-.12,1.14-.36,1.55-.24.41-.53.73-.86.97-.77.48-1.87,1.08-3.31,1.8-1.44.72-3.04,1.48-4.79,2.27-1.75.79-3.56,1.58-5.44,2.38-1.87.79-3.64,1.55-5.29,2.27-1.66.72-3.1,1.36-4.32,1.91-1.22.55-2.05.95-2.48,1.19,0,1.63.32,3.16.97,4.57.65,1.42,1.55,2.65,2.7,3.71,1.15,1.06,2.53,1.88,4.14,2.48,1.61.6,3.37.9,5.29.9,1.73,0,3.29-.18,4.68-.54,1.39-.36,2.57-.77,3.53-1.22.96-.46,1.72-.86,2.27-1.22.55-.36.85-.54.9-.54.19,0,.38.08.58.25.19.17.29.35.29.54ZM84.38,41.76c.82-.29,1.74-.64,2.77-1.04,1.03-.41,2.04-.85,3.02-1.33.98-.48,1.88-.94,2.7-1.37.82-.43,1.44-.82,1.87-1.15.86-.62,1.3-1.68,1.3-3.17,0-.58-.11-1.18-.32-1.8-.22-.62-.54-1.19-.97-1.69-.43-.5-.96-.91-1.58-1.22-.62-.31-1.32-.47-2.09-.47-.67,0-1.39.23-2.16.68-.77.46-1.49,1.2-2.16,2.23-.67,1.03-1.24,2.4-1.69,4.1-.46,1.7-.68,3.78-.68,6.23Z" />
    <path
        d="M143.13,52.78c-.53.58-1.34,1.37-2.45,2.38-1.1,1.01-2.44,2.02-4,3.02-1.56,1.01-3.3,1.87-5.22,2.59-1.92.72-3.96,1.08-6.12,1.08-1.97,0-3.89-.3-5.76-.9s-3.55-1.51-5.04-2.74c-1.49-1.22-2.68-2.78-3.56-4.68-.89-1.9-1.33-4.16-1.33-6.8,0-2.16.14-4.02.43-5.58.29-1.56.67-2.93,1.15-4.1.48-1.18,1.02-2.18,1.62-3.02.6-.84,1.21-1.6,1.84-2.27.77-.86,1.7-1.68,2.81-2.45,1.1-.77,2.29-1.46,3.56-2.09,1.27-.62,2.62-1.12,4.03-1.48,1.42-.36,2.84-.54,4.28-.54,2.59,0,4.62.43,6.08,1.3,1.46.86,2.2,2.06,2.2,3.6,0,.96-.29,1.85-.86,2.66.48-.14,1.09-.38,1.84-.72.74-.33,1.5-.68,2.27-1.04.77-.36,1.45-.68,2.05-.97.6-.29,1-.5,1.19-.65.1-.1.2-.13.32-.11.12.02.18.11.18.25,0,.62-.12,1.14-.36,1.55-.24.41-.53.73-.86.97-.77.48-1.87,1.08-3.31,1.8-1.44.72-3.04,1.48-4.79,2.27-1.75.79-3.56,1.58-5.44,2.38-1.87.79-3.64,1.55-5.29,2.27-1.66.72-3.1,1.36-4.32,1.91-1.22.55-2.05.95-2.48,1.19,0,1.63.32,3.16.97,4.57.65,1.42,1.55,2.65,2.7,3.71,1.15,1.06,2.53,1.88,4.14,2.48,1.61.6,3.37.9,5.29.9,1.73,0,3.29-.18,4.68-.54,1.39-.36,2.57-.77,3.53-1.22.96-.46,1.72-.86,2.27-1.22.55-.36.85-.54.9-.54.19,0,.38.08.58.25.19.17.29.35.29.54ZM117.79,41.76c.82-.29,1.74-.64,2.77-1.04,1.03-.41,2.04-.85,3.02-1.33.98-.48,1.88-.94,2.7-1.37.82-.43,1.44-.82,1.87-1.15.86-.62,1.3-1.68,1.3-3.17,0-.58-.11-1.18-.32-1.8-.22-.62-.54-1.19-.97-1.69-.43-.5-.96-.91-1.58-1.22-.62-.31-1.32-.47-2.09-.47-.67,0-1.39.23-2.16.68-.77.46-1.49,1.2-2.16,2.23-.67,1.03-1.24,2.4-1.69,4.1-.46,1.7-.68,3.78-.68,6.23Z" />
    <path
        d="M170.56,55.44c-.43.43-1.13,1.01-2.09,1.73-.96.72-2.09,1.43-3.38,2.12-1.3.7-2.7,1.3-4.21,1.8-1.51.5-3.04.76-4.57.76s-3.17-.36-4.75-1.08c-1.58-.72-3.01-1.76-4.28-3.13-1.27-1.37-2.29-3.01-3.06-4.93-.77-1.92-1.15-4.08-1.15-6.48,0-3.12.54-5.95,1.62-8.5,1.08-2.54,2.66-4.7,4.75-6.48,2.09-1.77,4.63-3.14,7.63-4.1,3-.96,6.44-1.44,10.33-1.44h1.94c.62,0,1.2.02,1.73.07v-2.34c0-1.13-.01-2.29-.04-3.49-.02-1.2-.05-2.3-.07-3.31-.02-1.01-.04-1.63-.04-1.87-.19-1.92-.52-3.26-.97-4.03-.46-.77-1.38-1.15-2.77-1.15-.19,0-.3-.22-.32-.65-.02-.43.13-.77.47-1.01.38-.24.82-.42,1.3-.54.48-.12,1.2-.18,2.16-.18,1.82,0,3.35-.01,4.57-.04,1.22-.02,2.23-.07,3.02-.14.79-.07,1.43-.17,1.91-.29.48-.12.89-.25,1.22-.4.24-.05.44.01.61.18.17.17.29.38.36.65.07.26.08.52.04.76-.05.24-.19.38-.43.43-.53.1-.92.21-1.19.32-.26.12-.52.35-.76.68-.24.34-.46,1.22-.65,2.66-.19,1.44-.38,3.22-.58,5.33-.19,2.11-.36,4.45-.5,7.02-.14,2.57-.26,5.15-.36,7.74-.1,2.59-.18,5.11-.25,7.56-.07,2.45-.11,4.58-.11,6.41,0,3.5.38,6.08,1.15,7.74.77,1.66,1.94,2.48,3.53,2.48.58,0,1.21-.1,1.91-.29.7-.19,1.34-.42,1.94-.68.6-.26,1.15-.53,1.66-.79.5-.26.88-.49,1.12-.68.24-.19.46-.07.65.36.19.43.17.72-.07.86-.58.34-1.48.83-2.7,1.48-1.22.65-2.58,1.33-4.07,2.05-1.82.91-3.67,1.73-5.54,2.45-1.87.72-3.38,1.08-4.54,1.08-.86,0-1.45-.14-1.76-.43-.31-.29-.47-.74-.47-1.37v-.97c0-.46.01-.94.04-1.44.02-.5.04-.98.04-1.44v-1.04ZM169.63,52.99c.38-.53.67-1.14.86-1.84.19-.7.34-1.64.43-2.84.1-1.01.14-2.24.14-3.71v-3.85c0-1.1-.01-2.28-.04-3.53-.02-1.25-.06-2.11-.11-2.59-.1-.82-.43-1.58-1.01-2.3-.58-.72-1.32-1.34-2.23-1.87-.91-.53-1.98-.95-3.2-1.26-1.22-.31-2.51-.47-3.85-.47s-2.52.22-3.67.65c-1.15.43-2.15,1.13-2.99,2.09-.84.96-1.5,2.2-1.98,3.71-.48,1.51-.72,3.37-.72,5.58s.31,4.31.94,6.16c.62,1.85,1.49,3.45,2.59,4.79,1.1,1.34,2.42,2.39,3.96,3.13,1.54.74,3.21,1.12,5.04,1.12.72,0,1.39-.11,2.02-.32.62-.22,1.19-.48,1.69-.79.5-.31.95-.64,1.33-.97.38-.33.65-.62.79-.86Z" />
    <path
        d="M214.49,55.44c-.53.43-1.25,1.01-2.16,1.73-.91.72-1.97,1.44-3.17,2.16-1.2.72-2.52,1.33-3.96,1.84s-2.95.76-4.54.76c-2.4,0-4.54-.42-6.41-1.26-1.87-.84-3.44-1.97-4.72-3.38-1.27-1.42-2.23-3.08-2.88-5-.65-1.92-.97-3.96-.97-6.12,0-2.54.38-4.8,1.15-6.77.77-1.97,1.72-3.68,2.84-5.15,1.13-1.46,2.34-2.69,3.64-3.67,1.3-.98,2.47-1.76,3.53-2.34.48-.29,1.09-.6,1.84-.94.74-.33,1.56-.65,2.45-.94.89-.29,1.85-.54,2.88-.76,1.03-.22,2.1-.32,3.2-.32,2.06,0,4.07.26,6.01.79,1.94.53,3.66,1.36,5.15,2.48,1.49,1.13,2.69,2.58,3.6,4.36.91,1.78,1.37,3.91,1.37,6.41,0,2.02-.37,3.91-1.12,5.69-.74,1.78-1.62,3.36-2.63,4.75-1.01,1.39-2,2.58-2.99,3.56-.98.98-1.69,1.69-2.12,2.12ZM206.35,56.59c2.74,0,4.84-1.03,6.3-3.1,1.46-2.06,2.2-5.23,2.2-9.5,0-2.16-.3-4.16-.9-6.01-.6-1.85-1.44-3.47-2.52-4.86-1.08-1.39-2.34-2.48-3.78-3.28s-3-1.19-4.68-1.19c-1.2,0-2.34.31-3.42.94-1.08.62-2.03,1.52-2.84,2.7-.82,1.18-1.46,2.6-1.94,4.28-.48,1.68-.72,3.58-.72,5.69,0,2.26.35,4.27,1.04,6.05.7,1.78,1.62,3.28,2.77,4.5,1.15,1.22,2.46,2.16,3.92,2.81,1.46.65,2.99.97,4.57.97Z" />
    <path
        d="M294.55,54.93c.14,0,.24.08.29.25.05.17.07.37.07.61s-.05.4-.14.47c-.1.07-.19.16-.29.25-.34.19-1.14.6-2.41,1.22-1.27.62-2.69,1.26-4.25,1.91-1.56.65-3.1,1.22-4.61,1.73-1.51.5-2.65.76-3.42.76-.67,0-1.31-.14-1.91-.43-.6-.29-.85-.74-.76-1.37.1-.38.2-.96.32-1.73.12-.77.23-1.7.32-2.81.1-1.39.2-3,.32-4.82s.18-3.84.18-6.05c0-2.59-.17-4.74-.5-6.44-.34-1.7-.82-3.06-1.44-4.07-.62-1.01-1.39-1.72-2.3-2.12-.91-.41-1.97-.61-3.17-.61-1.1,0-2.04.18-2.81.54-.77.36-1.44.76-2.02,1.19-1.06.82-1.88,1.86-2.48,3.13-.6,1.27-.97,2.94-1.12,5-.05.53-.08,1.06-.11,1.58-.02.53-.05,1.1-.07,1.73-.02.62-.05,1.32-.07,2.09-.02.77-.04,1.68-.04,2.74,0,2.83.23,4.8.68,5.9.46,1.11,1.24,1.66,2.34,1.66.38,0,.62-.01.72-.04.1-.02.29-.06.58-.11.1.1.19.22.29.36.14.24.12.5-.07.79-.24.29-.82.66-1.73,1.12-.91.46-1.92.88-3.02,1.26-1.1.38-2.18.72-3.24,1.01-1.06.29-1.85.43-2.38.43-.67,0-1.28-.08-1.84-.25-.55-.17-.83-.37-.83-.61,0-.29.1-.62.29-1.01.14-.24.29-.82.43-1.73s.28-2.09.4-3.53c.12-1.44.23-3.11.32-5,.1-1.9.14-3.95.14-6.16,0-1.15-.06-2.42-.18-3.82-.12-1.39-.42-2.7-.9-3.92-.48-1.22-1.19-2.26-2.12-3.1-.94-.84-2.22-1.26-3.85-1.26-.96,0-1.82.13-2.59.4-.77.26-1.42.59-1.94.97-1.06.82-1.96,1.82-2.7,3.02-.75,1.2-1.24,2.9-1.48,5.11-.1,1.01-.19,2.05-.29,3.13-.1,1.08-.14,2.32-.14,3.71,0,1.83.05,3.34.14,4.54.1,1.2.26,2.15.5,2.84.24.7.53,1.18.86,1.44.34.26.77.4,1.3.4s.89-.05,1.08-.14c.24-.1.41.05.5.43.1.38.07.62-.07.72-.19.19-.7.49-1.51.9-.82.41-1.75.83-2.81,1.26-1.06.43-2.14.82-3.24,1.15-1.1.33-2.04.5-2.81.5-.82,0-1.45-.1-1.91-.29-.46-.19-.68-.41-.68-.65,0-.05.05-.2.14-.47.1-.26.17-.49.22-.68.19-1.49.37-2.87.54-4.14.17-1.27.29-2.65.36-4.14.07-1.49.13-3.19.18-5.11.05-1.92.07-4.25.07-6.98s-.42-4.58-1.26-5.83c-.84-1.25-1.72-1.87-2.63-1.87-.38,0-.71.04-.97.11-.26.07-.52.13-.76.18-.29.05-.43-.1-.43-.43v-.5s.53-.38,1.44-1.01c.91-.62,1.99-1.3,3.24-2.02,1.25-.72,2.54-1.38,3.89-1.98,1.34-.6,2.45-.9,3.31-.9.58,0,1.07.17,1.48.5.41.34.61.96.61,1.87,0,.43-.01.91-.04,1.44-.02.53-.05,1.08-.07,1.66-.02.58-.06,1.14-.11,1.69-.05.55-.07,1.02-.07,1.4.67-.62,1.52-1.44,2.56-2.45,1.03-1.01,2.2-1.97,3.49-2.88,1.3-.91,2.7-1.7,4.21-2.38,1.51-.67,3.11-1.01,4.79-1.01,2.21,0,4.01.65,5.4,1.94,1.39,1.3,2.14,3.55,2.23,6.77.77-.72,1.7-1.58,2.81-2.59,1.1-1.01,2.34-1.97,3.71-2.88,1.37-.91,2.82-1.68,4.36-2.3,1.54-.62,3.1-.94,4.68-.94,5.57,0,8.35,2.95,8.35,8.86,0,.96-.05,2.06-.14,3.31-.1,1.25-.22,2.56-.36,3.92-.14,1.37-.26,2.73-.36,4.07-.1,1.34-.14,2.57-.14,3.67,0,4.99,1.32,7.49,3.96,7.49.43,0,.91-.06,1.44-.18.53-.12,1.06-.26,1.58-.43.53-.17,1.01-.34,1.44-.5s.74-.32.94-.47h.07Z" />
    <path
        d="M299.08,39.6c0-5.86-.05-10.63-.14-14.33-.1-3.7-.24-6.59-.43-8.68-.19-2.09-.43-3.52-.72-4.28-.29-.77-.65-1.15-1.08-1.15-.14,0-.43.01-.86.04-.43.02-.9.04-1.4.04s-.95-.01-1.33-.04c-.38-.02-.58-.08-.58-.18v-.83c0-.41.09-.66.29-.76.24-.05.77-.07,1.58-.07s1.76.02,2.84.07c1.08.05,2.2.08,3.35.11,1.15.02,2.21.04,3.17.04h2.34c.6,0,.88-.05.83-.14.19,0,.66-.16,1.4-.47.74-.31,1.68-.66,2.81-1.04,1.13-.38,2.42-.73,3.89-1.04,1.46-.31,2.99-.47,4.57-.47,6,0,10.7,1.26,14.11,3.78,3.41,2.52,5.11,5.99,5.11,10.4,0,3.74-.75,7.09-2.23,10.04-1.49,2.95-3.44,5.47-5.87,7.56s-5.16,3.68-8.21,4.79c-3.05,1.1-6.13,1.66-9.25,1.66-.96,0-2-.05-3.13-.14-1.13-.1-1.96-.26-2.48-.5v4.68c0,1.92.02,3.84.07,5.76.05,1.92.14,3.66.29,5.22.14,1.56.33,2.58.58,3.06.14.33.44.54.9.61s.97.1,1.55.07c.58-.03,1.16-.07,1.76-.14.6-.07,1.12-.11,1.55-.11.14.05.24.15.29.32.05.17.07.36.07.58s-.03.41-.07.58c-.05.17-.14.25-.29.25-.91,0-1.96.11-3.13.32-1.18.22-2.42.5-3.74.86-1.32.36-2.64.78-3.96,1.26-1.32.48-2.58.98-3.78,1.51-1.15.48-2.59,1.24-4.32,2.27-1.73,1.03-3.46,2.06-5.18,3.1-1.73,1.03-3.31,1.93-4.75,2.7-1.44.77-2.45,1.15-3.02,1.15-.24,0-.52-.1-.83-.29-.31-.19-.58-.41-.79-.65-.22-.24-.3-.47-.25-.68.05-.21.31-.37.79-.47,1.2-.19,2.62-.67,4.25-1.44s3.22-1.61,4.75-2.52c1.54-.91,2.89-1.79,4.07-2.63,1.18-.84,1.93-1.43,2.27-1.76.24-.24.49-1.31.76-3.2.26-1.9.52-4.2.76-6.91.24-2.71.44-5.66.61-8.86.17-3.19.25-6.2.25-9.04ZM307.65,39.46c.24.67,1.08,1.31,2.52,1.91,1.44.6,3.31.9,5.62.9,2.11,0,4.04-.4,5.8-1.19,1.75-.79,3.26-1.98,4.54-3.56,1.27-1.58,2.25-3.54,2.95-5.87.69-2.33,1.04-5.03,1.04-8.1,0-2.26-.34-4.31-1.01-6.16-.67-1.85-1.6-3.42-2.77-4.72-1.18-1.3-2.56-2.3-4.14-3.02-1.58-.72-3.29-1.08-5.11-1.08-1.01,0-2,.13-2.99.4-.98.26-1.87.58-2.66.94-.79.36-1.44.74-1.94,1.15-.5.41-.8.78-.9,1.12-.1.29-.18,1.01-.25,2.16s-.14,2.56-.22,4.21c-.07,1.66-.14,3.48-.22,5.47-.07,1.99-.12,3.95-.14,5.87-.02,1.92-.05,3.73-.07,5.44-.02,1.7-.04,3.08-.04,4.14Z" />
    <path
        d="M359.71,38.81c-.29-1.49-.62-2.82-1.01-4-.38-1.18-.86-2.16-1.44-2.95-.58-.79-1.27-1.39-2.09-1.8-.82-.41-1.82-.61-3.02-.61-1.06,0-2.03.19-2.92.58-.89.38-1.66.84-2.3,1.37-.65.53-1.15,1.06-1.51,1.58-.36.53-.56.94-.61,1.22-.05.38-.26.58-.65.58-.67,0-1.3-.24-1.87-.72-.58-.48-.86-1.06-.86-1.73,0-.38.05-.67.14-.86,1.1-.62,2.45-1.3,4.03-2.02,1.58-.72,3.23-1.39,4.93-2.02,1.7-.62,3.4-1.14,5.08-1.55,1.68-.41,3.19-.61,4.54-.61,2.02,0,3.56.29,4.64.86s1.88,1.39,2.41,2.45c.53,1.06.85,2.29.97,3.71.12,1.42.23,2.94.32,4.57.14,2.45.33,4.81.58,7.09.24,2.28.6,4.3,1.08,6.05.48,1.75,1.09,3.17,1.84,4.25.74,1.08,1.67,1.62,2.77,1.62.53,0,1.1-.1,1.73-.29.62-.19,1.22-.42,1.8-.68s1.09-.53,1.55-.79c.46-.26.76-.44.9-.54.43,0,.7.22.79.65,0,.24-.05.46-.14.65-.1.1-.46.34-1.08.72-.62.38-1.39.84-2.3,1.37-.91.53-1.92,1.09-3.02,1.69-1.11.6-2.2,1.16-3.28,1.69-1.08.53-2.08.96-2.99,1.3-.91.33-1.63.5-2.16.5-.62,0-1.16-.25-1.62-.76-.46-.5-.85-1.18-1.19-2.02-.34-.84-.62-1.81-.86-2.92-.24-1.1-.46-2.26-.65-3.46-.86.72-1.97,1.57-3.31,2.56s-2.81,1.91-4.39,2.77c-1.58.86-3.2,1.6-4.86,2.2-1.66.6-3.25.9-4.79.9-1.3,0-2.42-.21-3.38-.61-.96-.41-1.76-.95-2.41-1.62-.65-.67-1.13-1.45-1.44-2.34-.31-.89-.47-1.81-.47-2.77,0-1.54.47-2.8,1.4-3.78.94-.98,2.39-2,4.36-3.06.91-.48,2.18-1.12,3.82-1.91s3.3-1.6,5-2.41c1.7-.82,3.29-1.6,4.75-2.34,1.46-.74,2.53-1.33,3.2-1.76ZM361.8,49.97c-.14-.82-.29-1.7-.43-2.66-.14-.96-.29-1.87-.43-2.74-.14-.86-.28-1.61-.4-2.23-.12-.62-.21-1.03-.25-1.22-.77.29-1.63.62-2.59,1.01-.96.38-1.92.8-2.88,1.26-.96.46-1.87.91-2.74,1.37-.86.46-1.58.88-2.16,1.26-1.1.72-1.94,1.44-2.52,2.16-.58.72-.86,1.58-.86,2.59,0,1.39.41,2.62,1.22,3.67.82,1.06,2.09,1.58,3.82,1.58.91,0,1.86-.17,2.84-.5.98-.33,1.9-.72,2.74-1.15.84-.43,1.57-.86,2.2-1.3.62-.43,1.05-.77,1.3-1.01.38-.38.68-.71.9-.97.22-.26.3-.63.25-1.12Z" />
    <path
        d="M375.76,82.58c.43-.48,1.08-1.27,1.94-2.38s1.81-2.35,2.84-3.74c1.03-1.39,2.09-2.88,3.17-4.46s2.1-3.08,3.06-4.5c.96-1.42,1.79-2.71,2.48-3.89.7-1.18,1.14-2.05,1.33-2.63-.77-2.02-1.58-4.15-2.45-6.41-.86-2.26-1.76-4.49-2.7-6.7-.94-2.21-1.87-4.32-2.81-6.34-.94-2.02-1.86-3.78-2.77-5.29-.91-1.51-1.79-2.72-2.63-3.64-.84-.91-1.6-1.37-2.27-1.37-.19,0-.41.06-.65.18-.24.12-.46.23-.65.32-.14.1-.31-.02-.5-.36-.19-.33-.19-.55,0-.65.19-.14.76-.5,1.69-1.08.94-.58,1.98-1.19,3.13-1.84s2.27-1.24,3.35-1.76c1.08-.53,1.86-.79,2.34-.79s1.04.43,1.69,1.3c.65.86,1.32,2.03,2.02,3.49.7,1.46,1.43,3.13,2.2,5,.77,1.87,1.54,3.83,2.3,5.87.77,2.04,1.52,4.09,2.27,6.16.74,2.06,1.45,3.98,2.12,5.76.62-.96,1.43-2.33,2.41-4.1.98-1.78,1.93-3.67,2.84-5.69.91-2.02,1.69-4.01,2.34-5.98.65-1.97.97-3.62.97-4.97s-.34-2.39-1.01-2.99c-.67-.6-1.42-.9-2.23-.9-.62,0-1.12.01-1.48.04-.36.02-.76.08-1.19.18-.1,0-.24-.06-.43-.18-.19-.12-.29-.3-.29-.54s.53-.5,1.58-.79c1.05-.29,2.28-.55,3.67-.79,1.39-.24,2.76-.44,4.1-.61,1.34-.17,2.28-.25,2.81-.25,1.1,0,1.92.22,2.45.65.53.43.79.94.79,1.51-.29,1.15-.9,2.65-1.84,4.5-.94,1.85-2.05,3.86-3.35,6.05-1.3,2.19-2.68,4.44-4.14,6.77-1.46,2.33-2.87,4.52-4.21,6.59-1.34,2.06-2.56,3.91-3.64,5.54s-1.86,2.83-2.34,3.6c-.96,1.49-1.87,3.04-2.74,4.64-.86,1.61-1.66,3.22-2.38,4.82-.72,1.61-1.36,3.14-1.91,4.61-.55,1.46-.95,2.79-1.19,4-.14.72-.01,1.19.4,1.4.41.22.94.26,1.58.14.65-.12,1.36-.35,2.12-.68.77-.34,1.42-.72,1.94-1.15.24-.19.4-.23.47-.11.07.12.11.3.11.54s-.05.49-.14.76c-.1.26-.22.44-.36.54-.05,0-.6.22-1.66.65-1.06.43-2.33.9-3.82,1.4-1.49.5-3.06.97-4.72,1.4-1.66.43-3.11.65-4.36.65s-1.8-.38-1.8-1.15c0-.1.01-.17.04-.22.02-.05.04-.1.04-.14Z" />
</svg>