<?xml version="1.0" encoding="UTF-8"?>
<svg id="Layer_1" xmlns="http://www.w3.org/2000/svg" viewBox="0 0 167.33 97.13">
    <path
        d="M52.42,2.16c.67,0,1.12.16,1.33.47.22.31.32.8.32,1.48-2.45,2.45-4.22,5.48-5.33,9.11-1.1,3.62-1.68,7.84-1.73,12.64,0,.14-.12.29-.36.43-.24.14-.49.25-.76.32-.26.07-.52.1-.76.07-.24-.02-.36-.16-.36-.4,0-.19.01-.43.04-.72.02-.29.04-.6.04-.94,0-1.15-.38-2.47-1.15-3.96-.77-1.49-1.82-2.92-3.17-4.28-1.34-1.37-2.92-2.52-4.72-3.46-1.8-.94-3.73-1.4-5.8-1.4-2.83,0-5.34.64-7.52,1.91-2.18,1.27-4.02,2.96-5.51,5.08-1.49,2.11-2.63,4.57-3.42,7.38s-1.19,5.75-1.19,8.82c0,3.46.47,6.71,1.4,9.76.94,3.05,2.24,5.71,3.92,7.99,1.68,2.28,3.71,4.09,6.08,5.44s4.98,2.02,7.81,2.02c1.92,0,3.65-.32,5.18-.97,1.54-.65,2.83-1.54,3.89-2.66,1.06-1.13,1.87-2.46,2.45-4,.58-1.54.86-3.19.86-4.97,0-1.44-.22-2.89-.65-4.36-.43-1.46-1.03-2.78-1.8-3.96-.77-1.18-1.66-2.14-2.66-2.88-1.01-.74-2.11-1.12-3.31-1.12-.72,0-1.44.08-2.16.25-.72.17-1.37.43-1.94.79-.58.36-1.03.8-1.37,1.33-.34.53-.5,1.18-.5,1.94,0,.58.1,1.12.29,1.62.19.5.43.94.72,1.3.29.36.58.65.86.86.29.22.53.3.72.25.24-.05.42.06.54.32.12.26.13.44.04.54-.24.29-1.06.64-2.45,1.04-1.39.41-3.05.61-4.97.61-1.73,0-3.08-.55-4.07-1.66-.98-1.1-1.48-2.38-1.48-3.82,0-.91.46-1.84,1.37-2.77.91-.94,2.16-1.78,3.74-2.52,1.58-.74,3.43-1.36,5.54-1.84,2.11-.48,4.37-.72,6.77-.72,2.59,0,4.9.29,6.91.86,2.02.58,3.72,1.37,5.11,2.38,1.39,1.01,2.45,2.18,3.17,3.53.72,1.34,1.08,2.76,1.08,4.25,0,2.3-.67,4.6-2.02,6.88-1.34,2.28-3.12,4.32-5.33,6.12-2.21,1.8-4.74,3.26-7.6,4.39-2.86,1.13-5.8,1.69-8.82,1.69-4.61,0-8.68-.62-12.2-1.87-3.53-1.25-6.47-3-8.82-5.26-2.35-2.26-4.13-4.92-5.33-7.99-1.2-3.07-1.8-6.46-1.8-10.15,0-3.98.82-7.73,2.45-11.23,1.63-3.5,3.86-6.58,6.7-9.22,2.83-2.64,6.17-4.72,10.01-6.23,3.84-1.51,7.99-2.27,12.46-2.27,3.46,0,6.31.34,8.57,1.01,2.26.67,4.08,1.22,5.47,1.66.19-.48.47-1.16.83-2.05.36-.89.77-1.79,1.22-2.7.46-.91.95-1.76,1.48-2.56.53-.79,1.08-1.33,1.66-1.62Z" />
    <path
        d="M90.72,30.6c-.53.43-1.15.97-1.87,1.62-.72.65-1.48,1.27-2.27,1.87-.79.6-1.6,1.12-2.41,1.55-.82.43-1.61.65-2.38.65-.67,0-1.27-.16-1.8-.47-.53-.31-1.02-.65-1.48-1.01-.46-.36-.9-.69-1.33-1.01-.43-.31-.89-.47-1.37-.47-1.3,0-2.39.53-3.28,1.58-.89,1.06-1.61,2.4-2.16,4.03-.55,1.63-.96,3.41-1.22,5.33-.26,1.92-.4,3.77-.4,5.54,0,1.49.06,2.7.18,3.64.12.94.3,1.68.54,2.23.24.55.56.92.97,1.12.41.19.9.29,1.48.29.62,0,1.3-.1,2.02-.29.14-.05.25.05.32.29.07.24.11.43.11.58,0,.1-.07.21-.22.32-.14.12-.24.18-.29.18-1.06.43-2.14.9-3.24,1.4-1.1.5-2.02.92-2.74,1.26-.67.29-1.48.6-2.41.94-.94.33-1.74.5-2.41.5-.77,0-1.4-.12-1.91-.36-.5-.24-.76-.48-.76-.72s.06-.46.18-.65c.12-.19.23-.55.32-1.08.1-.72.2-1.57.32-2.56.12-.98.24-2.05.36-3.2.12-1.15.22-2.34.29-3.56.07-1.22.11-2.44.11-3.64,0-2.69-.08-4.97-.25-6.84-.17-1.87-.47-3.38-.9-4.54s-1.02-1.98-1.76-2.48c-.74-.5-1.69-.76-2.84-.76h-.65c-.19,0-.38.02-.58.07-.29,0-.43-.14-.43-.43s.14-.5.43-.65c.53-.34,1.34-.83,2.45-1.48,1.1-.65,2.24-1.27,3.42-1.87,1.18-.6,2.31-1.14,3.42-1.62,1.1-.48,1.92-.72,2.45-.72.62,0,1.15.2,1.58.61.43.41.76.92.97,1.55.22.62.37,1.33.47,2.12.1.79.14,1.57.14,2.34,0,.58-.01,1.18-.04,1.8-.02.62-.04,1.3-.04,2.02,2.16-3.17,4.1-5.63,5.83-7.38,1.73-1.75,3.36-2.63,4.9-2.63.58,0,1.14.24,1.69.72.55.48,1.14,1.02,1.76,1.62.62.6,1.27,1.14,1.94,1.62.67.48,1.37.72,2.09.72.62,0,1.08-.07,1.37-.22s.53-.26.72-.36c.38,0,.58.26.58.79v.07Z" />
    <path
        d="M108.72,38.81c-.29-1.49-.62-2.82-1.01-4-.38-1.18-.86-2.16-1.44-2.95s-1.27-1.39-2.09-1.8c-.82-.41-1.82-.61-3.02-.61-1.06,0-2.03.19-2.92.58-.89.38-1.66.84-2.3,1.37-.65.53-1.15,1.06-1.51,1.58-.36.53-.56.94-.61,1.22-.05.38-.26.58-.65.58-.67,0-1.3-.24-1.87-.72-.58-.48-.86-1.06-.86-1.73,0-.38.05-.67.14-.86,1.1-.62,2.45-1.3,4.03-2.02,1.58-.72,3.23-1.39,4.93-2.02,1.7-.62,3.4-1.14,5.08-1.55,1.68-.41,3.19-.61,4.54-.61,2.02,0,3.56.29,4.64.86s1.88,1.39,2.41,2.45c.53,1.06.85,2.29.97,3.71.12,1.42.23,2.94.32,4.57.14,2.45.34,4.81.58,7.09.24,2.28.6,4.3,1.08,6.05.48,1.75,1.09,3.17,1.84,4.25.74,1.08,1.67,1.62,2.77,1.62.53,0,1.1-.1,1.73-.29.62-.19,1.22-.42,1.8-.68s1.09-.53,1.55-.79c.46-.26.76-.44.9-.54.43,0,.7.22.79.65,0,.24-.05.46-.14.65-.1.1-.46.34-1.08.72-.62.38-1.39.84-2.3,1.37-.91.53-1.92,1.09-3.02,1.69-1.1.6-2.2,1.16-3.28,1.69-1.08.53-2.08.96-2.99,1.3-.91.33-1.63.5-2.16.5-.62,0-1.16-.25-1.62-.76-.46-.5-.85-1.18-1.19-2.02-.34-.84-.62-1.81-.86-2.92-.24-1.1-.46-2.26-.65-3.46-.86.72-1.97,1.57-3.31,2.56-1.34.98-2.81,1.91-4.39,2.77-1.58.86-3.2,1.6-4.86,2.2-1.66.6-3.25.9-4.79.9-1.3,0-2.42-.21-3.38-.61-.96-.41-1.76-.95-2.41-1.62-.65-.67-1.13-1.45-1.44-2.34-.31-.89-.47-1.81-.47-2.77,0-1.54.47-2.8,1.4-3.78.94-.98,2.39-2,4.36-3.06.91-.48,2.18-1.12,3.82-1.91,1.63-.79,3.3-1.6,5-2.41,1.7-.82,3.29-1.6,4.75-2.34,1.46-.74,2.53-1.33,3.2-1.76ZM110.81,49.97c-.14-.82-.29-1.7-.43-2.66-.14-.96-.29-1.87-.43-2.74-.14-.86-.28-1.61-.4-2.23-.12-.62-.2-1.03-.25-1.22-.77.29-1.63.62-2.59,1.01-.96.38-1.92.8-2.88,1.26-.96.46-1.87.91-2.74,1.37-.86.46-1.58.88-2.16,1.26-1.1.72-1.94,1.44-2.52,2.16-.58.72-.86,1.58-.86,2.59,0,1.39.41,2.62,1.22,3.67.82,1.06,2.09,1.58,3.82,1.58.91,0,1.86-.17,2.84-.5.98-.33,1.9-.72,2.74-1.15.84-.43,1.57-.86,2.2-1.3.62-.43,1.06-.77,1.3-1.01.38-.38.68-.71.9-.97.22-.26.3-.63.25-1.12Z" />
    <path
        d="M125.49,9.43c0-1.06.25-1.68.76-1.87.5-.19,1.04-.29,1.62-.29h4.43c1.32,0,2.52-.01,3.6-.04,1.08-.02,2.09-.1,3.02-.22.94-.12,1.81-.32,2.63-.61.38-.14.59-.07.61.22.02.29.04.55.04.79,0,.29-.14.52-.43.68-.29.17-.61.3-.97.4-.36.1-.71.17-1.04.22-.34.05-.55.07-.65.07-.14.48-.31,1.57-.5,3.28-.19,1.7-.4,3.72-.61,6.05-.22,2.33-.4,4.8-.54,7.42-.14,2.62-.22,5.08-.22,7.38.43-.48,1.15-1.15,2.16-2.02s2.2-1.72,3.56-2.56c1.37-.84,2.89-1.57,4.57-2.2,1.68-.62,3.43-.94,5.26-.94s3.52.29,5.08.86c1.56.58,2.92,1.42,4.07,2.52,1.15,1.1,2.05,2.46,2.7,4.07.65,1.61.97,3.42.97,5.44,0,1.68-.32,3.42-.97,5.22-.65,1.8-1.54,3.58-2.66,5.33-1.13,1.75-2.48,3.42-4.07,5s-3.3,2.98-5.15,4.18c-1.85,1.2-3.82,2.16-5.9,2.88-2.09.72-4.19,1.08-6.3,1.08-2.4,0-4.37-.26-5.9-.79-1.54-.53-2.76-1.13-3.67-1.8-.91-.67-1.56-1.31-1.94-1.91-.38-.6-.6-.97-.65-1.12.14-.43.31-1.6.5-3.49.19-1.9.37-4.22.54-6.98.17-2.76.32-5.8.47-9.11s.22-6.55.22-9.72c0-2.78-.05-5.12-.14-7.02-.1-1.9-.23-3.46-.4-4.68-.17-1.22-.37-2.18-.61-2.88-.24-.7-.5-1.24-.79-1.62-.58-.72-1.2-1.1-1.87-1.15l-.79-.07ZM137.09,38.59c-.1.82-.17,1.8-.22,2.95-.05,1.15-.07,2.3-.07,3.46s.02,2.19.07,3.1c.05.91.1,1.49.14,1.73.14.72.48,1.49,1.01,2.3.53.82,1.22,1.57,2.09,2.27.86.7,1.86,1.27,2.99,1.73,1.13.46,2.36.68,3.71.68,3.02,0,5.53-1.06,7.52-3.17,1.99-2.11,2.99-5.35,2.99-9.72,0-2.45-.35-4.52-1.04-6.23-.7-1.7-1.57-3.07-2.63-4.1-1.06-1.03-2.2-1.79-3.42-2.27-1.22-.48-2.34-.72-3.35-.72-1.39,0-2.56.21-3.49.61-.94.41-1.76.88-2.48,1.4-1.2.91-2.09,1.82-2.66,2.74-.58.91-.96,1.99-1.15,3.24Z" />
</svg>