<?xml version="1.0" encoding="UTF-8"?>
<svg id="Layer_1" xmlns="http://www.w3.org/2000/svg" viewBox="0 0 548.95 97.13">
    <path
        d="M45.47,65.3c.1,0,.19.14.29.43.1.29.1.53,0,.72-.19.43-.54.91-1.04,1.44-.5.53-1.15,1.03-1.94,1.51-.79.48-1.7.89-2.74,1.22-1.03.33-2.12.5-3.28.5-.96,0-1.75-.17-2.38-.5-.62-.34-1.14-.73-1.55-1.19-.41-.46-.7-.94-.86-1.44-.17-.5-.25-.92-.25-1.26,0-.67.25-1.36.76-2.05.5-.7,1.15-1.51,1.94-2.45s1.63-2.05,2.52-3.35c.89-1.3,1.73-2.87,2.52-4.72.79-1.85,1.44-4.03,1.94-6.55s.76-5.51.76-8.96c0-5.42-1.2-9.58-3.6-12.46-2.4-2.88-5.5-4.32-9.29-4.32-1.01,0-2.23.28-3.67.83-1.44.55-2.82,1.32-4.14,2.3-1.32.98-2.46,2.16-3.42,3.53-.96,1.37-1.46,2.87-1.51,4.5-.05.86-.08,1.87-.11,3.02-.02,1.15-.04,2.38-.04,3.67v7.92c.05,2.59.14,4.9.29,6.91s.36,3.29.65,3.82c.38.58,1.04.91,1.98,1.01.94.1,1.81.14,2.63.14.43,0,.65.31.65.94,0,.58-.29.86-.86.86-.29,0-.78-.01-1.48-.04-.7-.03-1.46-.04-2.3-.04s-1.68-.01-2.52-.04c-.84-.03-1.52-.04-2.05-.04-1.25,0-2.57.01-3.96.04-1.39.02-2.71.05-3.96.07-1.25.02-2.34.06-3.28.11-.94.05-1.55.1-1.84.14-.14,0-.24-.1-.29-.29-.05-.19-.05-.41,0-.65.05-.24.14-.46.29-.65s.29-.29.43-.29c.96,0,1.93-.08,2.92-.25.98-.17,1.6-.35,1.84-.54.38-.29.73-1.22,1.04-2.81.31-1.58.59-3.55.83-5.9.24-2.35.43-4.93.58-7.74.14-2.81.22-5.56.22-8.24,0-5.42-.02-9.67-.07-12.74-.05-3.07-.18-5.36-.4-6.88-.22-1.51-.53-2.44-.94-2.77-.41-.33-.95-.5-1.62-.5-.19,0-.47.01-.83.04-.36.02-.73.06-1.12.11-.38.05-.73.08-1.04.11-.31.02-.52.04-.61.04s-.16-.1-.18-.29c-.02-.19-.04-.38-.04-.58s.02-.46.07-.79c.05-.33.19-.5.43-.5h.94c.38,0,.98.01,1.8.04.82.02,1.91.05,3.28.07,1.37.02,3.16.04,5.36.04,7.34,0,13.79-.34,19.33-1.01,5.54-.67,10.38-1.63,14.51-2.88.43-.14.71-.16.83-.04.12.12.18.32.18.61,0,.34-.21.78-.61,1.33-.41.55-.91,1.1-1.51,1.66-.6.55-1.25,1.02-1.94,1.4-.7.38-1.36.58-1.98.58-.82,0-1.82-.02-3.02-.07-1.2-.05-2.5-.1-3.89-.14-1.39-.05-2.86-.08-4.39-.11-1.54-.02-3.05-.04-4.54-.04-2.4,0-4.36.18-5.87.54-1.51.36-2.39.9-2.63,1.62-.43,1.01-.7,2.51-.79,4.5-.1,1.99-.14,4.91-.14,8.75.48-.48,1.38-1.25,2.7-2.3,1.32-1.06,2.88-2.12,4.68-3.2,1.8-1.08,3.76-2.04,5.87-2.88,2.11-.84,4.22-1.26,6.34-1.26s3.96.37,5.83,1.12c1.87.75,3.53,1.76,4.97,3.06,1.44,1.3,2.59,2.82,3.46,4.57.86,1.75,1.3,3.64,1.3,5.65,0,2.21-.31,4.32-.94,6.34-.62,2.02-1.42,3.95-2.38,5.8-.96,1.85-1.99,3.64-3.1,5.36-1.1,1.73-2.14,3.41-3.1,5.04-.96,1.63-1.75,3.23-2.38,4.79-.62,1.56-.94,3.08-.94,4.57,0,.96.3,1.76.9,2.41.6.65,1.55.97,2.84.97.62,0,1.18-.11,1.66-.32.48-.22.79-.44.94-.68h.07Z" />
    <path
        d="M84.35,55.44c-.53.43-1.25,1.01-2.16,1.73-.91.72-1.97,1.44-3.17,2.16-1.2.72-2.52,1.33-3.96,1.84s-2.95.76-4.54.76c-2.4,0-4.54-.42-6.41-1.26-1.87-.84-3.44-1.97-4.72-3.38-1.27-1.42-2.23-3.08-2.88-5-.65-1.92-.97-3.96-.97-6.12,0-2.54.38-4.8,1.15-6.77.77-1.97,1.72-3.68,2.84-5.15,1.13-1.46,2.34-2.69,3.64-3.67,1.3-.98,2.47-1.76,3.53-2.34.48-.29,1.09-.6,1.84-.94.74-.33,1.56-.65,2.45-.94.89-.29,1.85-.54,2.88-.76,1.03-.22,2.1-.32,3.2-.32,2.06,0,4.07.26,6.01.79,1.94.53,3.66,1.36,5.15,2.48,1.49,1.13,2.69,2.58,3.6,4.36.91,1.78,1.37,3.91,1.37,6.41,0,2.02-.37,3.91-1.12,5.69-.74,1.78-1.62,3.36-2.63,4.75-1.01,1.39-2,2.58-2.99,3.56-.98.98-1.69,1.69-2.12,2.12ZM76.21,56.59c2.74,0,4.84-1.03,6.3-3.1,1.46-2.06,2.2-5.23,2.2-9.5,0-2.16-.3-4.16-.9-6.01-.6-1.85-1.44-3.47-2.52-4.86-1.08-1.39-2.34-2.48-3.78-3.28s-3-1.19-4.68-1.19c-1.2,0-2.34.31-3.42.94-1.08.62-2.03,1.52-2.84,2.7-.82,1.18-1.46,2.6-1.94,4.28-.48,1.68-.72,3.58-.72,5.69,0,2.26.35,4.27,1.04,6.05.7,1.78,1.62,3.28,2.77,4.5,1.15,1.22,2.46,2.16,3.92,2.81,1.46.65,2.99.97,4.57.97Z" />
    <path
        d="M124.45,57.89c-1.54.96-3.43,1.82-5.69,2.59-2.26.77-4.44,1.15-6.55,1.15-.67,0-1.43-.05-2.27-.14-.84-.1-1.52-.19-2.05-.29-.05.91-.08,1.85-.11,2.81-.02.96-.05,1.88-.07,2.77-.02.89-.05,1.72-.07,2.48-.02.77-.04,1.42-.04,1.94,0,2.45.2,4.1.61,4.97.41.86,1.04,1.3,1.91,1.3.43,0,1.02-.06,1.76-.18.74-.12,1.4-.32,1.98-.61.1-.1.2,0,.32.29.12.29.18.55.18.79,0,.05-.34.18-1.01.4-.67.22-1.52.48-2.56.79-1.03.31-2.15.65-3.35,1.01-1.2.36-2.35.7-3.46,1.01-1.1.31-2.05.56-2.84.76-.79.19-1.28.29-1.48.29-.29,0-.55-.02-.79-.07-.24-.05-.36-.26-.36-.65,0-.24.08-.4.25-.47.17-.07.3-.18.4-.32.24-.29.38-.83.43-1.62.05-.79.12-1.57.22-2.34.14-1.87.3-4.09.47-6.66.17-2.57.32-5.26.47-8.06.14-2.81.28-5.62.4-8.42.12-2.81.18-5.36.18-7.67,0-3.26-.13-5.82-.4-7.67-.26-1.85-.64-3.22-1.12-4.1-.48-.89-1.02-1.44-1.62-1.66-.6-.22-1.24-.32-1.91-.32-.14,0-.35.01-.61.04-.26.02-.52.04-.76.04-.19,0-.29-.17-.29-.5,0-.24.01-.4.04-.47.02-.07.13-.16.32-.25.24-.14.68-.38,1.33-.72.65-.34,1.39-.71,2.23-1.12.84-.41,1.74-.84,2.7-1.3.96-.46,1.86-.86,2.7-1.22.84-.36,1.57-.66,2.2-.9.62-.24,1.06-.36,1.3-.36.72,0,1.21.31,1.48.94.26.62.42,1.46.47,2.52,0,.43-.01,1.12-.04,2.05-.02.94-.06,2-.11,3.2.62-.67,1.48-1.5,2.56-2.48,1.08-.98,2.3-1.93,3.67-2.84,1.37-.91,2.81-1.69,4.32-2.34,1.51-.65,2.99-.97,4.43-.97,2.06,0,3.9.37,5.51,1.12,1.61.74,2.94,1.73,4,2.95,1.06,1.22,1.86,2.62,2.41,4.18.55,1.56.83,3.16.83,4.79,0,2.3-.35,4.43-1.04,6.37-.7,1.94-1.55,3.67-2.56,5.18-1.01,1.51-2.11,2.82-3.31,3.92-1.2,1.1-2.3,1.97-3.31,2.59l-2.3,1.51ZM108.25,52.34c.14.53.53,1.07,1.15,1.62.62.55,1.43,1.06,2.41,1.51.98.46,2.11.84,3.38,1.15,1.27.31,2.63.47,4.07.47,1.3,0,2.53-.25,3.71-.76,1.18-.5,2.2-1.29,3.06-2.38.86-1.08,1.55-2.48,2.05-4.21.5-1.73.76-3.82.76-6.26,0-1.73-.24-3.36-.72-4.9-.48-1.54-1.18-2.88-2.09-4.03-.91-1.15-1.99-2.05-3.24-2.7-1.25-.65-2.62-.97-4.1-.97-.77,0-1.62.17-2.56.5-.94.34-1.84.79-2.7,1.37-.86.58-1.67,1.25-2.41,2.02-.74.77-1.28,1.58-1.62,2.45-.24.58-.44,1.48-.61,2.7-.17,1.22-.29,2.57-.36,4.03-.07,1.46-.12,2.94-.14,4.43-.02,1.49-.04,2.81-.04,3.96Z" />
    <path
        d="M140.36,59.4c-.38.24-.74.64-1.08,1.19-.34.55-.55.97-.65,1.26-.05.1-.18.18-.4.25-.22.07-.37.11-.47.11-.43,0-.65-.22-.65-.65,0-.14.19-.53.58-1.15.29-.48.74-1.24,1.37-2.27.62-1.03,1.26-2.09,1.91-3.17s1.25-2.06,1.8-2.95c.55-.89.95-1.47,1.19-1.76.24-.24.53-.28.86-.11.34.17.43.37.29.61-.1.1-.17.22-.22.36-.05.14-.07.38-.07.72,0,.43.37.97,1.12,1.62.74.65,1.69,1.27,2.84,1.87,1.15.6,2.42,1.12,3.82,1.55,1.39.43,2.76.65,4.1.65,1.58,0,2.84-.46,3.78-1.37.94-.91,1.4-2.11,1.4-3.6,0-1.68-.53-2.93-1.58-3.74-1.06-.82-2.36-1.44-3.92-1.87-1.56-.43-3.26-.78-5.11-1.04-1.85-.26-3.55-.66-5.11-1.19-1.56-.53-2.87-1.3-3.92-2.3-1.06-1.01-1.58-2.47-1.58-4.39,0-1.49.52-3,1.55-4.54,1.03-1.54,2.4-2.9,4.1-4.1,1.7-1.2,3.66-2.18,5.87-2.95,2.21-.77,4.51-1.15,6.91-1.15.72,0,1.56.07,2.52.22.96.14,1.91.32,2.84.54.94.22,1.8.43,2.59.65.79.22,1.38.4,1.76.54.1,0,.07.19-.07.58-.14.43-.5,1.09-1.08,1.98-.58.89-1.21,1.76-1.91,2.63-.7.86-1.34,1.63-1.94,2.3-.6.67-1.02,1.01-1.26,1.01h-.43c-.24,0-.41-.05-.5-.14.05-.24.07-.55.07-.94,0-1.68-.76-3-2.27-3.96-1.51-.96-3.71-1.44-6.59-1.44-1.39,0-2.53.41-3.42,1.22-.89.82-1.33,1.8-1.33,2.95,0,1.87.53,3.26,1.58,4.18,1.06.91,2.38,1.6,3.96,2.05,1.58.46,3.29.8,5.11,1.04,1.82.24,3.53.61,5.11,1.12,1.58.5,2.9,1.26,3.96,2.27,1.06,1.01,1.58,2.52,1.58,4.54,0,.91-.19,1.8-.58,2.66-.38.87-.89,1.68-1.51,2.45-.62.77-1.32,1.47-2.09,2.12-.77.65-1.54,1.21-2.3,1.69-.72.48-1.54.97-2.45,1.48-.91.5-1.9.97-2.95,1.4-1.06.43-2.14.78-3.24,1.04-1.1.26-2.21.4-3.31.4-.53,0-1.37-.11-2.52-.32s-2.32-.47-3.49-.76c-1.18-.29-2.22-.56-3.13-.83-.91-.26-1.39-.44-1.44-.54Z" />
    <path
        d="M211.5,38.81c-.29-1.49-.62-2.82-1.01-4-.38-1.18-.86-2.16-1.44-2.95s-1.27-1.39-2.09-1.8c-.82-.41-1.82-.61-3.02-.61-1.06,0-2.03.19-2.92.58-.89.38-1.66.84-2.3,1.37-.65.53-1.15,1.06-1.51,1.58-.36.53-.56.94-.61,1.22-.05.38-.26.58-.65.58-.67,0-1.3-.24-1.87-.72-.58-.48-.86-1.06-.86-1.73,0-.38.05-.67.14-.86,1.1-.62,2.45-1.3,4.03-2.02,1.58-.72,3.23-1.39,4.93-2.02,1.7-.62,3.4-1.14,5.08-1.55,1.68-.41,3.19-.61,4.54-.61,2.02,0,3.56.29,4.64.86s1.88,1.39,2.41,2.45c.53,1.06.85,2.29.97,3.71.12,1.42.23,2.94.32,4.57.14,2.45.34,4.81.58,7.09.24,2.28.6,4.3,1.08,6.05.48,1.75,1.09,3.17,1.84,4.25.74,1.08,1.67,1.62,2.77,1.62.53,0,1.1-.1,1.73-.29.62-.19,1.22-.42,1.8-.68s1.09-.53,1.55-.79c.46-.26.76-.44.9-.54.43,0,.7.22.79.65,0,.24-.05.46-.14.65-.1.1-.46.34-1.08.72-.62.38-1.39.84-2.3,1.37-.91.53-1.92,1.09-3.02,1.69-1.1.6-2.2,1.16-3.28,1.69-1.08.53-2.08.96-2.99,1.3-.91.33-1.63.5-2.16.5-.62,0-1.16-.25-1.62-.76-.46-.5-.85-1.18-1.19-2.02-.34-.84-.62-1.81-.86-2.92-.24-1.1-.46-2.26-.65-3.46-.86.72-1.97,1.57-3.31,2.56-1.34.98-2.81,1.91-4.39,2.77-1.58.86-3.2,1.6-4.86,2.2-1.66.6-3.25.9-4.79.9-1.3,0-2.42-.21-3.38-.61-.96-.41-1.76-.95-2.41-1.62-.65-.67-1.13-1.45-1.44-2.34-.31-.89-.47-1.81-.47-2.77,0-1.54.47-2.8,1.4-3.78.94-.98,2.39-2,4.36-3.06.91-.48,2.18-1.12,3.82-1.91,1.63-.79,3.3-1.6,5-2.41,1.7-.82,3.29-1.6,4.75-2.34,1.46-.74,2.53-1.33,3.2-1.76ZM213.58,49.97c-.14-.82-.29-1.7-.43-2.66-.14-.96-.29-1.87-.43-2.74-.14-.86-.28-1.61-.4-2.23-.12-.62-.2-1.03-.25-1.22-.77.29-1.63.62-2.59,1.01-.96.38-1.92.8-2.88,1.26-.96.46-1.87.91-2.74,1.37-.86.46-1.58.88-2.16,1.26-1.1.72-1.94,1.44-2.52,2.16-.58.72-.86,1.58-.86,2.59,0,1.39.41,2.62,1.22,3.67.82,1.06,2.09,1.58,3.82,1.58.91,0,1.86-.17,2.84-.5.98-.33,1.9-.72,2.74-1.15.84-.43,1.57-.86,2.2-1.3.62-.43,1.06-.77,1.3-1.01.38-.38.68-.71.9-.97.22-.26.3-.63.25-1.12Z" />
    <path
        d="M241.23,42.19c-.05.43-.1.82-.14,1.15-.05.34-.08.72-.11,1.15-.02.43-.05.97-.07,1.62-.02.65-.04,1.5-.04,2.56,0,1.73.06,3.14.18,4.25.12,1.11.3,1.98.54,2.63.24.65.54,1.09.9,1.33.36.24.8.36,1.33.36.34,0,.7-.05,1.08-.14.1,0,.18.13.25.4.07.26.06.44-.04.54-.29.24-.85.59-1.69,1.04-.84.46-1.79.9-2.84,1.33-1.06.43-2.15.82-3.28,1.15-1.13.33-2.08.5-2.84.5-.67,0-1.2-.08-1.58-.25-.38-.17-.58-.37-.58-.61s.02-.38.07-.43c.05-.05.12-.17.22-.36.1-.24.17-.54.22-.9.05-.36.12-.78.22-1.26.1-.67.19-1.52.29-2.56.1-1.03.19-2.16.29-3.38.1-1.22.18-2.5.25-3.82.07-1.32.11-2.6.11-3.85,0-.53-.01-1.19-.04-1.98-.02-.79-.06-1.81-.11-3.06-.05-1.39-.2-2.58-.47-3.56-.26-.98-.6-1.78-1.01-2.38-.41-.6-.86-1.04-1.37-1.33-.5-.29-1-.43-1.48-.43h-.72c-.24,0-.48.02-.72.07-.19,0-.29-.22-.29-.65,0-.1.04-.18.11-.25.07-.07.3-.23.68-.47.62-.43,1.46-.96,2.52-1.58,1.06-.62,2.14-1.2,3.24-1.73,1.1-.53,2.15-.98,3.13-1.37.98-.38,1.74-.58,2.27-.58,1.39,0,2.09.79,2.09,2.38,0,.24-.02.67-.07,1.3-.05.62-.08,1.26-.11,1.91-.02.65-.06,1.26-.11,1.84-.05.58-.07.96-.07,1.15,1.01-.96,2.09-1.94,3.24-2.95,1.15-1.01,2.4-1.93,3.74-2.77,1.34-.84,2.76-1.52,4.25-2.05,1.49-.53,3.02-.79,4.61-.79,2.88,0,5.24.83,7.09,2.48,1.85,1.66,2.77,4.28,2.77,7.88,0,.96-.06,2.09-.18,3.38-.12,1.3-.25,2.64-.4,4.03-.14,1.39-.28,2.76-.4,4.1-.12,1.34-.18,2.54-.18,3.6,0,3.84,1.25,5.76,3.74,5.76.48,0,1.02-.08,1.62-.25.6-.17,1.18-.36,1.73-.58.55-.21,1.04-.43,1.48-.65s.72-.4.86-.54c.05-.05.11-.01.18.11.07.12.13.28.18.47.05.19.06.36.04.5-.02.14-.06.24-.11.29-.38.24-1.21.7-2.48,1.37-1.27.67-2.69,1.36-4.25,2.05-1.56.7-3.11,1.32-4.64,1.87-1.54.55-2.76.83-3.67.83-1.1,0-1.86-.26-2.27-.79-.41-.53-.61-1.08-.61-1.66,0-.38.06-.86.18-1.44.12-.58.28-1.51.47-2.81.19-1.39.37-3.02.54-4.9.17-1.87.25-3.89.25-6.05,0-4.22-.78-7.43-2.34-9.61-1.56-2.18-3.52-3.28-5.87-3.28-1.49,0-2.81.29-3.96.86-1.15.58-2.14,1.36-2.95,2.34-.82.98-1.46,2.11-1.94,3.38-.48,1.27-.79,2.63-.94,4.07Z" />
    <path
        d="M301.93,55.44c-.43.43-1.13,1.01-2.09,1.73-.96.72-2.09,1.43-3.38,2.12-1.29.7-2.7,1.3-4.21,1.8s-3.04.76-4.57.76-3.17-.36-4.75-1.08c-1.58-.72-3.01-1.76-4.29-3.13-1.27-1.37-2.29-3.01-3.06-4.93-.77-1.92-1.15-4.08-1.15-6.48,0-3.12.54-5.95,1.62-8.5,1.08-2.54,2.66-4.7,4.75-6.48,2.09-1.77,4.63-3.14,7.63-4.1,3-.96,6.44-1.44,10.33-1.44h1.94c.62,0,1.2.02,1.73.07v-2.34c0-1.13-.01-2.29-.04-3.49-.02-1.2-.05-2.3-.07-3.31-.03-1.01-.04-1.63-.04-1.87-.19-1.92-.52-3.26-.97-4.03-.46-.77-1.38-1.15-2.77-1.15-.19,0-.3-.22-.32-.65s.13-.77.47-1.01c.38-.24.82-.42,1.3-.54s1.2-.18,2.16-.18c1.82,0,3.35-.01,4.57-.04,1.22-.02,2.23-.07,3.03-.14.79-.07,1.43-.17,1.91-.29.48-.12.89-.25,1.22-.4.24-.05.44.01.61.18.17.17.29.38.36.65.07.26.08.52.04.76-.05.24-.19.38-.43.43-.53.1-.92.21-1.19.32-.27.12-.52.35-.76.68-.24.34-.46,1.22-.65,2.66-.19,1.44-.38,3.22-.58,5.33-.19,2.11-.36,4.45-.5,7.02-.14,2.57-.26,5.15-.36,7.74-.1,2.59-.18,5.11-.25,7.56-.07,2.45-.11,4.58-.11,6.41,0,3.5.38,6.08,1.15,7.74s1.95,2.48,3.53,2.48c.57,0,1.21-.1,1.91-.29.7-.19,1.34-.42,1.95-.68.6-.26,1.15-.53,1.66-.79.5-.26.88-.49,1.12-.68.24-.19.46-.07.65.36.19.43.17.72-.07.86-.58.34-1.48.83-2.7,1.48-1.22.65-2.58,1.33-4.07,2.05-1.83.91-3.67,1.73-5.54,2.45-1.87.72-3.38,1.08-4.54,1.08-.87,0-1.45-.14-1.76-.43-.31-.29-.47-.74-.47-1.37v-.97c0-.46.01-.94.04-1.44.03-.5.04-.98.04-1.44v-1.04ZM300.99,52.99c.38-.53.67-1.14.86-1.84.19-.7.34-1.64.43-2.84.1-1.01.14-2.24.14-3.71v-3.85c0-1.1-.01-2.28-.04-3.53-.02-1.25-.06-2.11-.11-2.59-.1-.82-.43-1.58-1.01-2.3-.58-.72-1.32-1.34-2.23-1.87-.91-.53-1.98-.95-3.2-1.26-1.22-.31-2.51-.47-3.85-.47s-2.52.22-3.67.65c-1.15.43-2.15,1.13-2.99,2.09-.84.96-1.5,2.2-1.98,3.71-.48,1.51-.72,3.37-.72,5.58s.31,4.31.94,6.16c.62,1.85,1.49,3.45,2.59,4.79,1.1,1.34,2.42,2.39,3.96,3.13,1.54.74,3.21,1.12,5.04,1.12.72,0,1.39-.11,2.02-.32.62-.22,1.19-.48,1.69-.79.5-.31.95-.64,1.33-.97.38-.33.65-.62.79-.86Z" />
    <path
        d="M343.76,59.69c-1.1.62-2.5,1.27-4.18,1.95-1.68.67-3.43,1.01-5.26,1.01-1.11,0-1.9-.1-2.38-.29-.48-.19-.72-.58-.72-1.15,0-.19.04-.41.11-.65s.16-.44.25-.61c.1-.17.22-.29.36-.36.14-.07.29-.01.43.18.29.38.72.6,1.3.65.58.05,1.2.07,1.87.07,1.01-.05,1.92-.4,2.74-1.04.82-.65,1.42-1.52,1.8-2.63.19-.67.38-1.73.58-3.17.19-1.44.35-3.17.47-5.18.12-2.02.22-4.26.29-6.73.07-2.47.11-5.08.11-7.81,0-6.24-.17-11.1-.5-14.58-.34-3.48-.77-5.48-1.3-6.01-.38-.29-.86-.52-1.44-.68-.58-.17-1.17-.28-1.76-.32-.6-.05-1.19-.07-1.76-.07s-1.03.02-1.37.07c-.34.05-.6-.05-.79-.29-.19-.24-.29-.48-.29-.72,0-.86.31-1.3.94-1.3.33,0,.94.04,1.8.11s1.86.14,2.99.22c1.13.07,2.31.13,3.56.18,1.25.05,2.38.07,3.38.07,1.25,0,2.41-.19,3.49-.58,1.08-.38,2.2-.82,3.35-1.3,1.15-.48,2.41-.91,3.78-1.3,1.37-.38,2.96-.58,4.79-.58,2.26,0,4.37.19,6.34.58,1.97.38,3.67.97,5.11,1.76,1.44.79,2.58,1.81,3.42,3.06.84,1.25,1.26,2.71,1.26,4.39,0,1.92-.41,3.66-1.22,5.22-.82,1.56-1.84,2.94-3.06,4.14-1.22,1.2-2.52,2.22-3.89,3.06-1.37.84-2.6,1.48-3.71,1.91,1.78.14,3.72.44,5.83.9,2.11.46,4.08,1.15,5.9,2.09,1.82.94,3.35,2.17,4.57,3.71,1.22,1.54,1.84,3.46,1.84,5.76,0,1.82-.37,3.56-1.12,5.22-.75,1.66-1.74,3.19-2.99,4.61-1.25,1.42-2.68,2.71-4.28,3.89-1.61,1.18-3.29,2.17-5.04,2.99-1.75.82-3.53,1.45-5.33,1.91-1.8.46-3.47.68-5,.68-.91,0-2.05-.08-3.42-.25-1.37-.17-2.77-.4-4.21-.68-1.44-.29-2.84-.61-4.21-.97-1.37-.36-2.51-.73-3.42-1.12ZM350.96,13.75c-.1.62-.19,1.49-.29,2.59-.1,1.1-.19,2.39-.29,3.85-.1,1.46-.18,3.05-.25,4.75-.07,1.7-.13,3.47-.18,5.29.05.14.31.25.79.32.48.07,1.04.13,1.69.18.65.05,1.33.08,2.05.11.72.02,1.37.04,1.94.04.91,0,1.7-.04,2.38-.11.67-.07,1.26-.19,1.76-.36.5-.17.97-.37,1.4-.61.43-.24.86-.55,1.3-.94.82-.62,1.57-1.63,2.27-3.02.7-1.39,1.04-3.31,1.04-5.76,0-1.73-.24-3.25-.72-4.57-.48-1.32-1.1-2.42-1.87-3.31-.77-.89-1.65-1.55-2.63-1.98-.98-.43-2-.65-3.06-.65-.53,0-1.18.07-1.94.22-.77.14-1.51.37-2.23.68-.72.31-1.38.74-1.98,1.3-.6.55-1,1.21-1.19,1.98ZM349.95,45c.05,2.5.12,4.3.22,5.4.1,1.1.19,1.94.29,2.52.14.82.49,1.62,1.04,2.41.55.79,1.27,1.52,2.16,2.2.89.67,1.92,1.21,3.1,1.62,1.18.41,2.48.61,3.92.61,1.54,0,2.98-.26,4.32-.79,1.34-.53,2.51-1.36,3.49-2.48.98-1.13,1.76-2.58,2.34-4.36.58-1.78.86-3.91.86-6.41,0-2.26-.36-4.18-1.08-5.76-.72-1.58-1.74-2.87-3.06-3.85-1.32-.98-2.92-1.69-4.79-2.12-1.87-.43-3.96-.65-6.26-.65-1.34,0-2.62.01-3.82.04-1.2.02-2.09.06-2.66.11-.05.53-.07,1.08-.07,1.66v9.86Z" />
    <path
        d="M407.98,38.81c-.29-1.49-.62-2.82-1.01-4-.38-1.18-.86-2.16-1.44-2.95-.58-.79-1.27-1.39-2.09-1.8-.82-.41-1.82-.61-3.02-.61-1.06,0-2.03.19-2.92.58-.89.38-1.66.84-2.3,1.37-.65.53-1.15,1.06-1.51,1.58-.36.53-.56.94-.61,1.22-.05.38-.26.58-.65.58-.67,0-1.3-.24-1.87-.72-.58-.48-.86-1.06-.86-1.73,0-.38.05-.67.14-.86,1.1-.62,2.45-1.3,4.03-2.02,1.58-.72,3.23-1.39,4.93-2.02,1.7-.62,3.4-1.14,5.08-1.55,1.68-.41,3.19-.61,4.54-.61,2.02,0,3.56.29,4.64.86s1.88,1.39,2.41,2.45c.53,1.06.85,2.29.97,3.71.12,1.42.23,2.94.32,4.57.14,2.45.33,4.81.58,7.09.24,2.28.6,4.3,1.08,6.05.48,1.75,1.09,3.17,1.84,4.25.74,1.08,1.67,1.62,2.77,1.62.53,0,1.1-.1,1.73-.29.62-.19,1.22-.42,1.8-.68s1.09-.53,1.55-.79c.46-.26.76-.44.9-.54.43,0,.7.22.79.65,0,.24-.05.46-.14.65-.1.1-.46.34-1.08.72-.62.38-1.39.84-2.3,1.37-.91.53-1.92,1.09-3.02,1.69-1.11.6-2.2,1.16-3.28,1.69-1.08.53-2.08.96-2.99,1.3-.91.33-1.63.5-2.16.5-.62,0-1.16-.25-1.62-.76-.46-.5-.85-1.18-1.19-2.02-.34-.84-.62-1.81-.86-2.92-.24-1.1-.46-2.26-.65-3.46-.86.72-1.97,1.57-3.31,2.56s-2.81,1.91-4.39,2.77c-1.58.86-3.2,1.6-4.86,2.2-1.66.6-3.25.9-4.79.9-1.3,0-2.42-.21-3.38-.61-.96-.41-1.76-.95-2.41-1.62-.65-.67-1.13-1.45-1.44-2.34-.31-.89-.47-1.81-.47-2.77,0-1.54.47-2.8,1.4-3.78.94-.98,2.39-2,4.36-3.06.91-.48,2.18-1.12,3.82-1.91s3.3-1.6,5-2.41c1.7-.82,3.29-1.6,4.75-2.34,1.46-.74,2.53-1.33,3.2-1.76ZM410.07,49.97c-.14-.82-.29-1.7-.43-2.66-.14-.96-.29-1.87-.43-2.74-.14-.86-.28-1.61-.4-2.23-.12-.62-.21-1.03-.25-1.22-.77.29-1.63.62-2.59,1.01-.96.38-1.92.8-2.88,1.26-.96.46-1.87.91-2.74,1.37-.86.46-1.58.88-2.16,1.26-1.1.72-1.94,1.44-2.52,2.16-.58.72-.86,1.58-.86,2.59,0,1.39.41,2.62,1.22,3.67.82,1.06,2.09,1.58,3.82,1.58.91,0,1.86-.17,2.84-.5.98-.33,1.9-.72,2.74-1.15.84-.43,1.57-.86,2.2-1.3.62-.43,1.05-.77,1.3-1.01.38-.38.68-.71.9-.97.22-.26.3-.63.25-1.12Z" />
    <path
        d="M459.39,30.6c-.53.43-1.15.97-1.87,1.62-.72.65-1.48,1.27-2.27,1.87-.79.6-1.6,1.12-2.41,1.55s-1.61.65-2.38.65c-.67,0-1.27-.16-1.8-.47-.53-.31-1.02-.65-1.48-1.01-.46-.36-.9-.69-1.33-1.01-.43-.31-.89-.47-1.37-.47-1.3,0-2.39.53-3.28,1.58-.89,1.06-1.61,2.4-2.16,4.03-.55,1.63-.96,3.41-1.22,5.33-.26,1.92-.4,3.77-.4,5.54,0,1.49.06,2.7.18,3.64.12.94.3,1.68.54,2.23.24.55.56.92.97,1.12.41.19.9.29,1.48.29.62,0,1.3-.1,2.02-.29.14-.05.25.05.32.29.07.24.11.43.11.58,0,.1-.07.21-.22.32-.14.12-.24.18-.29.18-1.06.43-2.14.9-3.24,1.4-1.11.5-2.02.92-2.74,1.26-.67.29-1.48.6-2.41.94-.94.33-1.74.5-2.41.5-.77,0-1.4-.12-1.91-.36s-.76-.48-.76-.72.06-.46.18-.65.23-.55.32-1.08c.1-.72.2-1.57.32-2.56.12-.98.24-2.05.36-3.2.12-1.15.22-2.34.29-3.56.07-1.22.11-2.44.11-3.64,0-2.69-.08-4.97-.25-6.84-.17-1.87-.47-3.38-.9-4.54-.43-1.15-1.02-1.98-1.76-2.48s-1.69-.76-2.84-.76h-.65c-.19,0-.38.02-.58.07-.29,0-.43-.14-.43-.43s.14-.5.43-.65c.53-.34,1.34-.83,2.45-1.48,1.1-.65,2.24-1.27,3.42-1.87,1.18-.6,2.32-1.14,3.42-1.62,1.1-.48,1.92-.72,2.45-.72.62,0,1.15.2,1.58.61.43.41.76.92.97,1.55.22.62.37,1.33.47,2.12.1.79.14,1.57.14,2.34,0,.58-.01,1.18-.04,1.8-.02.62-.04,1.3-.04,2.02,2.16-3.17,4.1-5.63,5.83-7.38,1.73-1.75,3.36-2.63,4.9-2.63.58,0,1.14.24,1.69.72.55.48,1.14,1.02,1.76,1.62.62.6,1.27,1.14,1.94,1.62.67.48,1.37.72,2.09.72.62,0,1.08-.07,1.37-.22.29-.14.53-.26.72-.36.38,0,.58.26.58.79v.07Z" />
    <path
        d="M482.36,53.85c.29.19.43.43.43.72,0,.38-.55.89-1.66,1.51-1.15.67-2.68,1.46-4.57,2.38-1.9.91-3.78,1.7-5.65,2.38-.91.34-1.73.62-2.45.86-.72.24-1.37.36-1.94.36-.67,0-1.5-.16-2.48-.47-.98-.31-1.84-.68-2.56-1.12-.58-.38-1.03-.68-1.37-.9-.34-.22-.5-.44-.5-.68,0-.19.06-.37.18-.54.12-.17.23-.37.32-.61.05-.14.1-.33.14-.58.05-.24.07-.48.07-.72.14-1.2.3-2.94.47-5.22.17-2.28.3-4.8.4-7.56.1-2.76.18-5.62.25-8.57.07-2.95.11-5.7.11-8.24,0-3.12-.01-5.64-.04-7.56-.03-1.92-.08-3.46-.18-4.61-.14-1.58-.34-2.63-.58-3.13-.24-.5-.5-.88-.79-1.12-.34-.29-.66-.47-.97-.54-.31-.07-.6-.12-.86-.14-.26-.02-.48-.04-.65-.04s-.25-.05-.25-.14c0-1.58.67-2.38,2.02-2.38,1.01,0,2.2.01,3.56.04,1.37.02,2.51.04,3.42.04.58,0,1.19-.04,1.84-.11.65-.07,1.28-.14,1.91-.22.62-.07,1.2-.16,1.73-.25.53-.1.91-.19,1.15-.29.19-.05.35.02.47.22.12.19.19.43.22.72.02.29-.02.55-.14.79-.12.24-.28.38-.47.43-.29.05-.54.07-.76.07s-.59.1-1.12.29c-.24.1-.46.4-.65.9-.19.5-.36,1.3-.5,2.38s-.29,2.5-.43,4.25c-.14,1.75-.29,3.95-.43,6.59-.14,2.11-.25,4.26-.32,6.44-.07,2.18-.14,4.31-.22,6.37-.07,2.06-.12,3.98-.14,5.76-.03,1.78-.04,3.29-.04,4.54,0,1.39.01,2.8.04,4.21.02,1.42.16,2.53.4,3.35.24.77.86,1.49,1.87,2.16,1.01.67,2.06,1.01,3.17,1.01.86,0,1.75-.12,2.66-.36.91-.24,1.75-.53,2.52-.86.77-.34,1.45-.67,2.05-1.01.6-.34,1.04-.6,1.33-.79Z" />
    <path
        d="M511.23,52.78c-.53.58-1.34,1.37-2.45,2.38-1.1,1.01-2.44,2.02-4,3.02-1.56,1.01-3.3,1.87-5.22,2.59-1.92.72-3.96,1.08-6.12,1.08-1.97,0-3.89-.3-5.76-.9s-3.55-1.51-5.04-2.74c-1.49-1.22-2.68-2.78-3.56-4.68-.89-1.9-1.33-4.16-1.33-6.8,0-2.16.14-4.02.43-5.58.29-1.56.67-2.93,1.15-4.1.48-1.18,1.02-2.18,1.62-3.02.6-.84,1.21-1.6,1.84-2.27.77-.86,1.7-1.68,2.81-2.45,1.1-.77,2.29-1.46,3.56-2.09,1.27-.62,2.62-1.12,4.03-1.48,1.42-.36,2.84-.54,4.28-.54,2.59,0,4.62.43,6.08,1.3,1.46.86,2.2,2.06,2.2,3.6,0,.96-.29,1.85-.86,2.66.48-.14,1.09-.38,1.84-.72.74-.33,1.5-.68,2.27-1.04.77-.36,1.45-.68,2.05-.97.6-.29,1-.5,1.19-.65.1-.1.2-.13.32-.11.12.02.18.11.18.25,0,.62-.12,1.14-.36,1.55-.24.41-.53.73-.86.97-.77.48-1.87,1.08-3.31,1.8-1.44.72-3.04,1.48-4.79,2.27-1.75.79-3.56,1.58-5.44,2.38s-3.64,1.55-5.29,2.27c-1.66.72-3.1,1.36-4.32,1.91-1.22.55-2.05.95-2.48,1.19,0,1.63.32,3.16.97,4.57.65,1.42,1.55,2.65,2.7,3.71,1.15,1.06,2.53,1.88,4.14,2.48,1.61.6,3.37.9,5.29.9,1.73,0,3.29-.18,4.68-.54,1.39-.36,2.57-.77,3.53-1.22.96-.46,1.72-.86,2.27-1.22s.85-.54.9-.54c.19,0,.38.08.58.25.19.17.29.35.29.54ZM485.88,41.76c.82-.29,1.74-.64,2.77-1.04,1.03-.41,2.04-.85,3.02-1.33.98-.48,1.88-.94,2.7-1.37.82-.43,1.44-.82,1.87-1.15.86-.62,1.3-1.68,1.3-3.17,0-.58-.11-1.18-.32-1.8-.22-.62-.54-1.19-.97-1.69-.43-.5-.96-.91-1.58-1.22-.62-.31-1.32-.47-2.09-.47-.67,0-1.39.23-2.16.68-.77.46-1.49,1.2-2.16,2.23-.67,1.03-1.24,2.4-1.69,4.1-.46,1.7-.68,3.78-.68,6.23Z" />
    <path
        d="M511.08,82.58c.43-.48,1.08-1.27,1.94-2.38s1.81-2.35,2.84-3.74c1.03-1.39,2.09-2.88,3.17-4.46s2.1-3.08,3.06-4.5c.96-1.42,1.79-2.71,2.48-3.89.7-1.18,1.14-2.05,1.33-2.63-.77-2.02-1.58-4.15-2.45-6.41-.86-2.26-1.76-4.49-2.7-6.7-.94-2.21-1.87-4.32-2.81-6.34-.94-2.02-1.86-3.78-2.77-5.29-.91-1.51-1.79-2.72-2.63-3.64-.84-.91-1.6-1.37-2.27-1.37-.19,0-.41.06-.65.18-.24.12-.46.23-.65.32-.14.1-.31-.02-.5-.36-.19-.33-.19-.55,0-.65.19-.14.76-.5,1.69-1.08.94-.58,1.98-1.19,3.13-1.84s2.27-1.24,3.35-1.76c1.08-.53,1.86-.79,2.34-.79s1.04.43,1.69,1.3c.65.86,1.32,2.03,2.02,3.49.7,1.46,1.43,3.13,2.2,5,.77,1.87,1.54,3.83,2.3,5.87.77,2.04,1.52,4.09,2.27,6.16.74,2.06,1.45,3.98,2.12,5.76.62-.96,1.43-2.33,2.41-4.1.98-1.78,1.93-3.67,2.84-5.69.91-2.02,1.69-4.01,2.34-5.98.65-1.97.97-3.62.97-4.97s-.34-2.39-1.01-2.99c-.67-.6-1.42-.9-2.23-.9-.62,0-1.12.01-1.48.04-.36.02-.76.08-1.19.18-.1,0-.24-.06-.43-.18-.19-.12-.29-.3-.29-.54s.53-.5,1.58-.79c1.05-.29,2.28-.55,3.67-.79,1.39-.24,2.76-.44,4.1-.61,1.34-.17,2.28-.25,2.81-.25,1.1,0,1.92.22,2.45.65.53.43.79.94.79,1.51-.29,1.15-.9,2.65-1.84,4.5-.94,1.85-2.05,3.86-3.35,6.05-1.3,2.19-2.68,4.44-4.14,6.77-1.46,2.33-2.87,4.52-4.21,6.59-1.34,2.06-2.56,3.91-3.64,5.54s-1.86,2.83-2.34,3.6c-.96,1.49-1.87,3.04-2.74,4.64-.86,1.61-1.66,3.22-2.38,4.82-.72,1.61-1.36,3.14-1.91,4.61-.55,1.46-.95,2.79-1.19,4-.14.72-.01,1.19.4,1.4.41.22.94.26,1.58.14.65-.12,1.36-.35,2.12-.68.77-.34,1.42-.72,1.94-1.15.24-.19.4-.23.47-.11.07.12.11.3.11.54s-.05.49-.14.76c-.1.26-.22.44-.36.54-.05,0-.6.22-1.66.65-1.06.43-2.33.9-3.82,1.4-1.49.5-3.06.97-4.72,1.4-1.66.43-3.11.65-4.36.65s-1.8-.38-1.8-1.15c0-.1.01-.17.04-.22.02-.05.04-.1.04-.14Z" />
</svg>