<?xml version="1.0" encoding="UTF-8"?>
<svg id="Layer_1" xmlns="http://www.w3.org/2000/svg" viewBox="0 0 486.71 97.13">
    <path
        d="M44.64,57.67c.29,1.15,1.3,1.87,3.02,2.16.43.05.65.29.65.72,0,.24-.12.46-.36.65-.24.19-.55.29-.94.29-.72,0-1.68-.05-2.88-.14-1.2-.1-2.9-.14-5.11-.14-1.78,0-3.34.06-4.68.18-1.34.12-2.16.2-2.45.25-.24,0-.41-.07-.5-.22-.1-.14-.14-.31-.14-.5s.04-.38.11-.58c.07-.19.18-.29.32-.29.33-.05.67-.14,1.01-.29.34-.14.65-.33.94-.58.14-.14.32-.91.54-2.3s.41-3.23.58-5.51c.17-2.28.31-4.91.43-7.88.12-2.98.18-6.12.18-9.43v-7.78c0-2.4-.12-4.34-.36-5.83-.43-3.17-1.44-5.6-3.02-7.31-1.58-1.7-3.43-2.56-5.54-2.56-1.87,0-3.72.52-5.54,1.55-1.82,1.03-3.46,2.54-4.9,4.54-1.44,1.99-2.6,4.46-3.49,7.42-.89,2.95-1.33,6.33-1.33,10.12,0,4.18.47,7.81,1.4,10.91.94,3.1,2.17,5.69,3.71,7.78,1.54,2.09,3.3,3.65,5.29,4.68,1.99,1.03,4.07,1.55,6.23,1.55h.4c.17,0,.3-.02.4-.07.19-.1.31-.1.36,0,.05.1.05.23,0,.4-.05.17-.11.34-.18.5-.07.17-.16.28-.25.32-.48.34-1.15.64-2.02.9-.86.26-2.06.4-3.6.4-2.54,0-5.08-.59-7.6-1.76s-4.78-2.82-6.77-4.93c-1.99-2.11-3.6-4.67-4.82-7.67-1.22-3-1.84-6.3-1.84-9.9,0-5.14.74-9.53,2.23-13.18,1.49-3.65,3.52-6.62,6.08-8.93,2.57-2.3,5.54-4,8.93-5.08,3.38-1.08,7-1.62,10.84-1.62,1.39,0,2.66.14,3.82.43s2.16.64,3.02,1.04c.86.41,1.57.8,2.12,1.19.55.38.92.67,1.12.86.38-.29,1.16-.64,2.34-1.04,1.18-.41,2.52-.79,4.03-1.15,1.51-.36,3.08-.67,4.72-.94,1.63-.26,3.12-.4,4.46-.4,3.65.1,6.85.7,9.61,1.8,2.76,1.1,5.06,2.58,6.91,4.43,1.85,1.85,3.24,3.98,4.18,6.41.94,2.42,1.4,5,1.4,7.74,0,5.14-.68,9.71-2.05,13.72-1.37,4.01-3.2,7.4-5.51,10.19-2.3,2.78-4.97,4.91-7.99,6.37-3.02,1.46-6.19,2.2-9.5,2.2-.29,0-.48-.11-.58-.32-.1-.21-.13-.44-.11-.68.02-.24.11-.44.25-.61s.29-.23.43-.18c.24.1.43.14.58.14h.58c1.97,0,3.82-.67,5.54-2.02,1.73-1.34,3.24-3.2,4.54-5.58,1.3-2.38,2.32-5.18,3.06-8.42.74-3.24,1.12-6.78,1.12-10.62,0-7.15-1.09-12.72-3.28-16.7-2.19-3.98-5.56-5.98-10.12-5.98-1.39,0-2.69.29-3.89.86-1.2.58-2.24,1.33-3.13,2.27-.89.94-1.61,2-2.16,3.2-.55,1.2-.9,2.42-1.04,3.67-.24,1.68-.38,4.37-.43,8.06-.05,3.7-.1,8.16-.14,13.39-.05,3.84-.01,7.19.11,10.04.12,2.86.35,4.79.68,5.8Z" />
    <path
        d="M114.84,52.78c-.53.58-1.34,1.37-2.45,2.38-1.1,1.01-2.44,2.02-4,3.02-1.56,1.01-3.3,1.87-5.22,2.59-1.92.72-3.96,1.08-6.12,1.08-1.97,0-3.89-.3-5.76-.9s-3.55-1.51-5.04-2.74c-1.49-1.22-2.68-2.78-3.56-4.68-.89-1.9-1.33-4.16-1.33-6.8,0-2.16.14-4.02.43-5.58.29-1.56.67-2.93,1.15-4.1.48-1.18,1.02-2.18,1.62-3.02.6-.84,1.21-1.6,1.84-2.27.77-.86,1.7-1.68,2.81-2.45,1.1-.77,2.29-1.46,3.56-2.09,1.27-.62,2.62-1.12,4.03-1.48,1.42-.36,2.84-.54,4.28-.54,2.59,0,4.62.43,6.08,1.3,1.46.86,2.2,2.06,2.2,3.6,0,.96-.29,1.85-.86,2.66.48-.14,1.09-.38,1.84-.72.74-.33,1.5-.68,2.27-1.04.77-.36,1.45-.68,2.05-.97.6-.29,1-.5,1.19-.65.1-.1.2-.13.32-.11.12.02.18.11.18.25,0,.62-.12,1.14-.36,1.55-.24.41-.53.73-.86.97-.77.48-1.87,1.08-3.31,1.8-1.44.72-3.04,1.48-4.79,2.27-1.75.79-3.56,1.58-5.44,2.38-1.87.79-3.64,1.55-5.29,2.27-1.66.72-3.1,1.36-4.32,1.91-1.22.55-2.05.95-2.48,1.19,0,1.63.32,3.16.97,4.57.65,1.42,1.55,2.65,2.7,3.71,1.15,1.06,2.53,1.88,4.14,2.48,1.61.6,3.37.9,5.29.9,1.73,0,3.29-.18,4.68-.54,1.39-.36,2.57-.77,3.53-1.22.96-.46,1.72-.86,2.27-1.22.55-.36.85-.54.9-.54.19,0,.38.08.58.25.19.17.29.35.29.54ZM89.5,41.76c.82-.29,1.74-.64,2.77-1.04,1.03-.41,2.04-.85,3.02-1.33.98-.48,1.88-.94,2.7-1.37.82-.43,1.44-.82,1.87-1.15.86-.62,1.3-1.68,1.3-3.17,0-.58-.11-1.18-.32-1.8-.22-.62-.54-1.19-.97-1.69-.43-.5-.96-.91-1.58-1.22-.62-.31-1.32-.47-2.09-.47-.67,0-1.39.23-2.16.68-.77.46-1.49,1.2-2.16,2.23-.67,1.03-1.24,2.4-1.69,4.1-.46,1.7-.68,3.78-.68,6.23Z" />
    <path
        d="M148.25,30.6c-.53.43-1.15.97-1.87,1.62-.72.65-1.48,1.27-2.27,1.87-.79.6-1.6,1.12-2.41,1.55-.82.43-1.61.65-2.38.65-.67,0-1.27-.16-1.8-.47-.53-.31-1.02-.65-1.48-1.01-.46-.36-.9-.69-1.33-1.01-.43-.31-.89-.47-1.37-.47-1.3,0-2.39.53-3.28,1.58-.89,1.06-1.61,2.4-2.16,4.03-.55,1.63-.96,3.41-1.22,5.33-.26,1.92-.4,3.77-.4,5.54,0,1.49.06,2.7.18,3.64.12.94.3,1.68.54,2.23.24.55.56.92.97,1.12.41.19.9.29,1.48.29.62,0,1.3-.1,2.02-.29.14-.05.25.05.32.29.07.24.11.43.11.58,0,.1-.07.21-.22.32-.14.12-.24.18-.29.18-1.06.43-2.14.9-3.24,1.4-1.1.5-2.02.92-2.74,1.26-.67.29-1.48.6-2.41.94-.94.33-1.74.5-2.41.5-.77,0-1.4-.12-1.91-.36-.5-.24-.76-.48-.76-.72s.06-.46.18-.65c.12-.19.23-.55.32-1.08.1-.72.2-1.57.32-2.56.12-.98.24-2.05.36-3.2.12-1.15.22-2.34.29-3.56.07-1.22.11-2.44.11-3.64,0-2.69-.08-4.97-.25-6.84-.17-1.87-.47-3.38-.9-4.54s-1.02-1.98-1.76-2.48c-.74-.5-1.69-.76-2.84-.76h-.65c-.19,0-.38.02-.58.07-.29,0-.43-.14-.43-.43s.14-.5.43-.65c.53-.34,1.34-.83,2.45-1.48,1.1-.65,2.24-1.27,3.42-1.87,1.18-.6,2.31-1.14,3.42-1.62,1.1-.48,1.92-.72,2.45-.72.62,0,1.15.2,1.58.61.43.41.76.92.97,1.55.22.62.37,1.33.47,2.12.1.79.14,1.57.14,2.34,0,.58-.01,1.18-.04,1.8-.02.62-.04,1.3-.04,2.02,2.16-3.17,4.1-5.63,5.83-7.38,1.73-1.75,3.36-2.63,4.9-2.63.58,0,1.14.24,1.69.72.55.48,1.14,1.02,1.76,1.62.62.6,1.27,1.14,1.94,1.62.67.48,1.37.72,2.09.72.62,0,1.08-.07,1.37-.22s.53-.26.72-.36c.38,0,.58.26.58.79v.07Z" />
    <path
        d="M175.54,28.51c-.1.29-.37.73-.83,1.33-.46.6-1,1.22-1.62,1.87-.62.65-1.28,1.27-1.98,1.87-.7.6-1.31,1.04-1.84,1.33-.34.14-.54.1-.61-.14-.07-.24-.11-.48-.11-.72,0-.38-.2-.86-.61-1.44-.41-.58-.98-1.14-1.73-1.69-.74-.55-1.62-1.02-2.63-1.4-1.01-.38-2.11-.58-3.31-.58-2.06,0-3.74,1.12-5.04,3.35-1.3,2.23-1.94,5.2-1.94,8.89,0,2.26.35,4.28,1.04,6.08.7,1.8,1.66,3.31,2.88,4.54,1.22,1.22,2.7,2.16,4.43,2.81s3.6.97,5.62.97c2.74,0,4.92-.35,6.55-1.04,1.63-.7,2.98-1.5,4.03-2.41.05,0,.08-.02.11-.07.02-.05.06-.07.11-.07.24,0,.41.08.5.25.1.17.14.37.14.61,0,.19-.05.34-.14.43-.72.58-1.72,1.34-2.99,2.3-1.27.96-2.72,1.91-4.36,2.84-1.63.94-3.34,1.74-5.11,2.41-1.78.67-3.53,1.01-5.26,1.01-4.94,0-8.8-1.44-11.56-4.32-2.76-2.88-4.14-6.82-4.14-11.81,0-3.79.73-6.98,2.2-9.58,1.46-2.59,3.26-4.67,5.4-6.23,2.14-1.56,4.4-2.68,6.8-3.35,2.4-.67,4.51-1.01,6.34-1.01,1.49,0,2.82.11,4,.32,1.18.22,2.18.48,3.02.79.84.31,1.49.64,1.94.97.46.34.68.62.68.86Z" />
    <path
        d="M188.78,33.19c.96-.86,2.04-1.76,3.24-2.7,1.2-.94,2.46-1.8,3.78-2.59,1.32-.79,2.7-1.44,4.14-1.94,1.44-.5,2.9-.76,4.39-.76,1.73,0,3.35.28,4.86.83,1.51.55,2.84,1.36,4,2.41,1.15,1.06,2.06,2.32,2.74,3.78.67,1.46,1.01,3.11,1.01,4.93,0,3.7-.64,7.09-1.91,10.19-1.27,3.1-2.76,5.81-4.46,8.14-1.7,2.33-3.4,4.26-5.08,5.79-1.68,1.54-2.93,2.54-3.74,3.03-.24.14-.48.09-.72-.14-.24-.24-.24-.5,0-.79.38-.29.97-1,1.76-2.12s1.6-2.56,2.41-4.28c.82-1.73,1.54-3.7,2.16-5.9.62-2.21.94-4.58.94-7.13,0-2.11-.25-3.98-.76-5.62-.5-1.63-1.19-3-2.05-4.1-.86-1.1-1.86-1.94-2.99-2.52-1.13-.58-2.34-.86-3.64-.86-.86,0-1.78.13-2.74.4-.96.26-1.85.64-2.66,1.12-.86.53-1.7,1.18-2.52,1.94-.82.77-1.42,1.56-1.8,2.38-.1.19-.18.37-.25.54-.07.17-.14.41-.22.72-.07.31-.14.71-.22,1.19-.07.48-.13,1.13-.18,1.94-.14,1.39-.25,2.75-.32,4.07-.07,1.32-.11,2.89-.11,4.72,0,2.35.14,4.16.43,5.44.29,1.27,1.13,2.01,2.52,2.2.14,0,.31-.01.5-.04.19-.02.41-.06.65-.11.19-.05.43-.12.72-.22.14,0,.25.07.32.22s.11.29.11.43-.26.36-.79.65c-.53.29-1.2.59-2.02.9-.82.31-1.72.62-2.7.94-.98.31-1.91.61-2.77.9-.91.24-1.69.46-2.34.65-.65.19-1.09.29-1.33.29-1.44,0-2.16-.55-2.16-1.66,0-.24.12-.7.36-1.37.24-.67.43-1.7.58-3.1.19-2.02.38-4.24.58-6.66.19-2.42.35-4.86.47-7.31.12-2.45.22-4.85.29-7.2.07-2.35.11-4.46.11-6.34,0-3.46-.06-6.38-.18-8.78-.12-2.4-.23-4.1-.32-5.11-.14-1.25-.29-2.08-.43-2.48-.14-.41-.31-.78-.5-1.12-.24-.43-.54-.73-.9-.9-.36-.17-.7-.28-1.01-.32-.31-.05-.58-.06-.79-.04-.22.02-.32-.01-.32-.11,0-.67.22-1.22.65-1.66.43-.43,1.01-.65,1.73-.65,1.39,0,2.83-.02,4.32-.07,1.49-.05,2.85-.12,4.1-.22,1.06-.1,2.03-.24,2.92-.43.89-.19,1.48-.34,1.76-.43.38-.05.59.01.61.18.02.17.04.47.04.9,0,.29-.12.5-.36.65-.24.14-.5.26-.79.36-.29.1-.56.18-.83.25-.26.07-.44.18-.54.32-.19.29-.38,1.18-.58,2.66-.19,1.49-.37,3.37-.54,5.65-.17,2.28-.31,4.81-.43,7.6-.12,2.78-.2,5.59-.25,8.42l.07.07Z" />
    <path
        d="M241.77,38.81c-.29-1.49-.62-2.82-1.01-4-.38-1.18-.86-2.16-1.44-2.95s-1.27-1.39-2.09-1.8c-.82-.41-1.82-.61-3.02-.61-1.06,0-2.03.19-2.92.58-.89.38-1.66.84-2.3,1.37-.65.53-1.15,1.06-1.51,1.58-.36.53-.56.94-.61,1.22-.05.38-.26.58-.65.58-.67,0-1.3-.24-1.87-.72-.58-.48-.86-1.06-.86-1.73,0-.38.05-.67.14-.86,1.1-.62,2.45-1.3,4.03-2.02,1.58-.72,3.23-1.39,4.93-2.02,1.7-.62,3.4-1.14,5.08-1.55,1.68-.41,3.19-.61,4.54-.61,2.02,0,3.56.29,4.64.86s1.88,1.39,2.41,2.45c.53,1.06.85,2.29.97,3.71.12,1.42.23,2.94.32,4.57.14,2.45.34,4.81.58,7.09.24,2.28.6,4.3,1.08,6.05.48,1.75,1.09,3.17,1.84,4.25.74,1.08,1.67,1.62,2.77,1.62.53,0,1.1-.1,1.73-.29.62-.19,1.22-.42,1.8-.68s1.09-.53,1.55-.79c.46-.26.76-.44.9-.54.43,0,.7.22.79.65,0,.24-.05.46-.14.65-.1.1-.46.34-1.08.72-.62.38-1.39.84-2.3,1.37-.91.53-1.92,1.09-3.02,1.69-1.1.6-2.2,1.16-3.28,1.69-1.08.53-2.08.96-2.99,1.3-.91.33-1.63.5-2.16.5-.62,0-1.16-.25-1.62-.76-.46-.5-.85-1.18-1.19-2.02-.34-.84-.62-1.81-.86-2.92-.24-1.1-.46-2.26-.65-3.46-.86.72-1.97,1.57-3.31,2.56-1.34.98-2.81,1.91-4.39,2.77-1.58.86-3.2,1.6-4.86,2.2-1.66.6-3.25.9-4.79.9-1.3,0-2.42-.21-3.38-.61-.96-.41-1.76-.95-2.41-1.62-.65-.67-1.13-1.45-1.44-2.34-.31-.89-.47-1.81-.47-2.77,0-1.54.47-2.8,1.4-3.78.94-.98,2.39-2,4.36-3.06.91-.48,2.18-1.12,3.82-1.91,1.63-.79,3.3-1.6,5-2.41,1.7-.82,3.29-1.6,4.75-2.34,1.46-.74,2.53-1.33,3.2-1.76ZM243.86,49.97c-.14-.82-.29-1.7-.43-2.66-.14-.96-.29-1.87-.43-2.74-.14-.86-.28-1.61-.4-2.23-.12-.62-.2-1.03-.25-1.22-.77.29-1.63.62-2.59,1.01-.96.38-1.92.8-2.88,1.26-.96.46-1.87.91-2.74,1.37-.86.46-1.58.88-2.16,1.26-1.1.72-1.94,1.44-2.52,2.16-.58.72-.86,1.58-.86,2.59,0,1.39.41,2.62,1.22,3.67.82,1.06,2.09,1.58,3.82,1.58.91,0,1.86-.17,2.84-.5.98-.33,1.9-.72,2.74-1.15.84-.43,1.57-.86,2.2-1.3.62-.43,1.06-.77,1.3-1.01.38-.38.68-.71.9-.97.22-.26.3-.63.25-1.12Z" />
    <path
        d="M271.51,42.19c-.05.43-.1.82-.14,1.15-.05.34-.08.72-.11,1.15-.02.43-.05.97-.07,1.62-.02.65-.04,1.5-.04,2.56,0,1.73.06,3.14.18,4.25.12,1.11.3,1.98.54,2.63.24.65.54,1.09.9,1.33.36.24.8.36,1.33.36.34,0,.7-.05,1.08-.14.1,0,.18.13.25.4.07.26.06.44-.04.54-.29.24-.85.59-1.69,1.04-.84.46-1.79.9-2.84,1.33-1.06.43-2.15.82-3.28,1.15-1.13.33-2.08.5-2.84.5-.67,0-1.2-.08-1.58-.25-.38-.17-.58-.37-.58-.61s.02-.38.07-.43c.05-.05.12-.17.22-.36.1-.24.17-.54.22-.9.05-.36.12-.78.22-1.26.1-.67.19-1.52.29-2.56.1-1.03.19-2.16.29-3.38.1-1.22.18-2.5.25-3.82.07-1.32.11-2.6.11-3.85,0-.53-.01-1.19-.04-1.98-.02-.79-.06-1.81-.11-3.06-.05-1.39-.2-2.58-.47-3.56-.26-.98-.6-1.78-1.01-2.38-.41-.6-.86-1.04-1.37-1.33-.5-.29-1-.43-1.48-.43h-.72c-.24,0-.48.02-.72.07-.19,0-.29-.22-.29-.65,0-.1.04-.18.11-.25.07-.07.3-.23.68-.47.62-.43,1.46-.96,2.52-1.58,1.06-.62,2.14-1.2,3.24-1.73,1.1-.53,2.15-.98,3.13-1.37.98-.38,1.74-.58,2.27-.58,1.39,0,2.09.79,2.09,2.38,0,.24-.02.67-.07,1.3-.05.62-.08,1.26-.11,1.91-.02.65-.06,1.26-.11,1.84-.05.58-.07.96-.07,1.15,1.01-.96,2.09-1.94,3.24-2.95,1.15-1.01,2.4-1.93,3.74-2.77,1.34-.84,2.76-1.52,4.25-2.05,1.49-.53,3.02-.79,4.61-.79,2.88,0,5.24.83,7.09,2.48,1.85,1.66,2.77,4.28,2.77,7.88,0,.96-.06,2.09-.18,3.38-.12,1.3-.25,2.64-.4,4.03-.14,1.39-.28,2.76-.4,4.1-.12,1.34-.18,2.54-.18,3.6,0,3.84,1.25,5.76,3.74,5.76.48,0,1.02-.08,1.62-.25.6-.17,1.18-.36,1.73-.58.55-.21,1.04-.43,1.48-.65.43-.22.72-.4.86-.54.05-.05.11-.01.18.11.07.12.13.28.18.47.05.19.06.36.04.5-.03.14-.06.24-.11.29-.38.24-1.21.7-2.48,1.37-1.27.67-2.69,1.36-4.25,2.05-1.56.7-3.11,1.32-4.64,1.87s-2.76.83-3.67.83c-1.1,0-1.86-.26-2.27-.79-.41-.53-.61-1.08-.61-1.66,0-.38.06-.86.18-1.44.12-.58.28-1.51.47-2.81.19-1.39.37-3.02.54-4.9.17-1.87.25-3.89.25-6.05,0-4.22-.78-7.43-2.34-9.61-1.56-2.18-3.52-3.28-5.87-3.28-1.49,0-2.81.29-3.96.86-1.15.58-2.14,1.36-2.95,2.34-.82.98-1.46,2.11-1.94,3.38-.48,1.27-.79,2.63-.94,4.07Z" />
    <path
        d="M338.76,51.19c.1-.1.18-.08.25.04.07.12.12.29.14.5.02.22.01.44-.04.68-.05.24-.14.43-.29.58-.96.91-2.16,1.87-3.6,2.88-1.44,1.01-2.93,1.94-4.46,2.81-.43.24-1.03.55-1.8.94-.77.38-1.62.76-2.56,1.12-.94.36-1.9.67-2.88.94-.98.26-1.91.4-2.77.4-1.73,0-3.36-.34-4.9-1.01-1.54-.67-2.88-1.6-4.03-2.77-1.15-1.18-2.05-2.58-2.7-4.21-.65-1.63-.97-3.41-.97-5.33,0-2.06.29-4.01.86-5.83.58-1.82,1.24-3.46,1.98-4.9s1.45-2.65,2.12-3.64c.67-.98,1.13-1.72,1.37-2.2-.91-.05-1.74-.08-2.48-.11-.75-.02-1.45-.04-2.12-.04-1.54,0-2.83.01-3.89.04-1.06.02-1.99.13-2.81.32-.38.1-.74.29-1.08.58-.33.29-.62.5-.86.65-.1-.1-.23-.23-.4-.4-.17-.17-.25-.35-.25-.54,0-.1.02-.17.07-.22,0-.05.31-.32.94-.83.62-.5,1.4-1.1,2.34-1.8.94-.7,1.97-1.46,3.1-2.3,1.13-.84,2.21-1.62,3.24-2.34,1.03-.72,1.92-1.33,2.66-1.84.74-.5,1.24-.8,1.48-.9.29-.1.58-.05.86.14.29.19.38.34.29.43-.14.1-.36.28-.65.54-.29.26-.38.49-.29.68.53.43,1.44.82,2.74,1.15,1.3.34,2.76.61,4.39.83,1.63.22,3.31.38,5.04.5,1.73.12,3.29.18,4.68.18,2.06,0,3.72-.06,4.97-.18,1.25-.12,2.28-.28,3.1-.47.77-.19,1.27-.34,1.51-.43.05,0,.14.07.29.22.14.14.22.31.22.5,0,.1-.35.34-1.04.72-.7.38-1.4.79-2.12,1.22-.43.24-.95.55-1.55.94-.6.38-1.25.76-1.94,1.12-.7.36-1.43.68-2.2.97-.77.29-1.51.46-2.23.5-.72.1-1.56.17-2.52.22-.96.05-1.97.08-3.02.11-1.06.02-2.12.05-3.2.07-1.08.02-2.08.04-2.99.04-.14.24-.37.64-.68,1.19-.31.55-.61,1.26-.9,2.12-.29.86-.55,1.85-.79,2.95-.24,1.1-.36,2.3-.36,3.6,0,1.97.3,3.78.9,5.44.6,1.66,1.44,3.09,2.52,4.28,1.08,1.2,2.36,2.14,3.85,2.81,1.49.67,3.1,1.01,4.82,1.01,1.01,0,1.98-.12,2.92-.36.94-.24,1.82-.55,2.66-.94.84-.38,1.62-.8,2.34-1.26.72-.46,1.34-.9,1.87-1.33l.86-.79Z" />
    <path
        d="M341.06,11.81c-1.25-.05-2.03-.18-2.34-.4-.31-.22-.47-.44-.47-.68,0-.33.05-.64.14-.9.1-.26.36-.42.79-.47.53.05,1.33.13,2.41.25,1.08.12,2.53.23,4.36.32h4.32c2.11-.05,4.08-.17,5.9-.36,1.82-.19,3.46-.41,4.9-.65,1.44-.24,2.64-.48,3.6-.72.96-.24,1.63-.46,2.02-.65h.07s.08-.01.11-.04c.02-.02.06-.04.11-.04.48,0,.72.5.72,1.51,0,.43-.44.79-1.33,1.08-.89.29-1.91.54-3.06.76-1.15.22-2.28.42-3.38.61-1.1.19-1.85.41-2.23.65-.29.48-.54,1.79-.76,3.92-.22,2.14-.38,4.66-.5,7.56-.12,2.9-.22,5.99-.29,9.25-.07,3.27-.11,6.26-.11,9,0,4.42.06,7.99.18,10.73.12,2.74.35,4.27.68,4.61.14.05.41.07.79.07.43,0,.95-.04,1.55-.11.6-.07,1.21-.14,1.84-.22.62-.07,1.24-.16,1.84-.25.6-.1,1.12-.17,1.55-.22,1.1-.14,2.29-.32,3.56-.54s2.53-.48,3.78-.79c1.25-.31,2.41-.71,3.49-1.19,1.08-.48,2-1.08,2.77-1.8.05-.1.08-.13.11-.11.02.03.06.01.11-.04.19-.19.41-.26.65-.22.24.05.44.18.61.4.17.22.28.46.32.72.05.26-.03.47-.22.61-.43.34-.85.84-1.26,1.51-.41.67-.78,1.39-1.12,2.16-.34.77-.62,1.5-.86,2.2-.24.7-.38,1.21-.43,1.55.38.24.8.58,1.26,1.01.46.43.68.96.68,1.58,0,.19-.06.44-.18.76-.12.31-.37.47-.76.47-.1,0-.26-.03-.5-.07-.24-.05-.36-.26-.36-.65,0-.43.19-.74.58-.94-.19-.1-.46-.26-.79-.5-.34-.24-.67-.41-1.01-.5-.86-.14-1.75-.29-2.66-.43-.91-.14-1.91-.25-2.99-.32s-2.29-.13-3.64-.18c-1.34-.05-2.86-.07-4.54-.07-3.89,0-7.19.11-9.9.32-2.71.21-5,.44-6.88.68-1.87.24-3.41.47-4.61.68-1.2.22-2.18.32-2.95.32-.67,0-1.01-.29-1.01-.86,0-.34.07-.7.22-1.08.14-.38.48-.55,1.01-.5.58.05,1.33.02,2.27-.07.94-.1,1.87-.24,2.81-.43.94-.19,1.75-.4,2.45-.61.7-.22,1.12-.42,1.26-.61.19-.38.4-1.3.61-2.74.22-1.44.4-3.25.54-5.44.14-2.18.26-4.67.36-7.45.1-2.78.14-5.73.14-8.86,0-4.22-.04-7.7-.11-10.44-.07-2.74-.16-4.92-.25-6.55-.1-1.63-.22-2.83-.36-3.6-.14-.77-.29-1.34-.43-1.73l-5.18-.29Z" />
    <path
        d="M392.54,48.67c0,1.01.02,1.98.07,2.92.05.94.22,1.74.5,2.41.29.67.72,1.21,1.3,1.62.58.41,1.39.61,2.45.61.53,0,1.13-.06,1.8-.18.67-.12,1.31-.28,1.91-.47.6-.19,1.13-.38,1.58-.58.46-.19.73-.33.83-.43.14-.14.24-.14.29,0,.05.14.06.32.04.54s-.08.43-.18.65c-.1.22-.22.37-.36.47-.48.24-1.32.67-2.52,1.3-1.2.62-2.62,1.27-4.25,1.94-1.54.67-3.04,1.24-4.5,1.69-1.46.46-2.68.68-3.64.68-1.1,0-1.97-.34-2.59-1.01-.62-.67-.94-1.51-.94-2.52,0-.34.01-.62.04-.86.02-.24.06-.55.11-.94.05-.48.13-1.36.25-2.63.12-1.27.24-2.7.36-4.28.12-1.58.23-3.18.32-4.79.1-1.61.14-2.99.14-4.14v-2.52c0-1.25-.07-2.35-.22-3.31-.14-.96-.38-1.7-.72-2.23-.24-.34-.54-.61-.9-.83-.36-.22-.8-.32-1.33-.32-.29,0-.58.06-.86.18-.29.12-.5.18-.65.18-.1,0-.25-.14-.47-.43s-.21-.5.04-.65c.33-.24,1.03-.62,2.09-1.15l3.46-1.73c1.34-.67,2.64-1.26,3.89-1.76,1.25-.5,2.14-.76,2.66-.76s.89.16,1.08.47c.19.31.29.66.29,1.04v.29c0,.48-.07,1.25-.22,2.3-.14,1.06-.3,2.35-.47,3.89-.17,1.54-.32,3.31-.47,5.33-.14,2.02-.22,4.2-.22,6.55v3.46ZM389.66,11.23c.24.05.64.31,1.19.79.55.48,1.12,1.03,1.69,1.66.58.62,1.08,1.22,1.51,1.8.43.58.65.96.65,1.15,0,.24-.29.6-.86,1.08-.58.48-1.24.97-1.98,1.48-.75.5-1.46.95-2.16,1.33-.7.38-1.19.58-1.48.58-.14,0-.49-.23-1.04-.68-.55-.46-1.12-.97-1.69-1.55s-1.09-1.14-1.55-1.69c-.46-.55-.68-.92-.68-1.12,0-.24.31-.61.94-1.12.62-.5,1.31-1.03,2.05-1.58.74-.55,1.46-1.03,2.16-1.44.7-.41,1.12-.64,1.26-.68Z" />
    <path
        d="M412.63,42.19c-.05.43-.1.82-.14,1.15-.05.34-.08.72-.11,1.15s-.05.97-.07,1.62c-.03.65-.04,1.5-.04,2.56,0,1.73.06,3.14.18,4.25.12,1.11.3,1.98.54,2.63.24.65.54,1.09.9,1.33.36.24.8.36,1.33.36.33,0,.7-.05,1.08-.14.1,0,.18.13.25.4.07.26.06.44-.04.54-.29.24-.85.59-1.69,1.04-.84.46-1.79.9-2.84,1.33-1.06.43-2.15.82-3.28,1.15-1.13.33-2.08.5-2.84.5-.67,0-1.2-.08-1.58-.25-.38-.17-.58-.37-.58-.61s.02-.38.07-.43.12-.17.22-.36c.1-.24.17-.54.22-.9.05-.36.12-.78.22-1.26.09-.67.19-1.52.29-2.56.1-1.03.19-2.16.29-3.38.1-1.22.18-2.5.25-3.82.07-1.32.11-2.6.11-3.85,0-.53-.01-1.19-.04-1.98-.02-.79-.06-1.81-.11-3.06-.05-1.39-.21-2.58-.47-3.56-.26-.98-.6-1.78-1.01-2.38-.41-.6-.86-1.04-1.37-1.33s-1-.43-1.48-.43h-.72c-.24,0-.48.02-.72.07-.19,0-.29-.22-.29-.65,0-.1.04-.18.11-.25.07-.07.3-.23.68-.47.62-.43,1.46-.96,2.52-1.58,1.05-.62,2.13-1.2,3.24-1.73,1.1-.53,2.15-.98,3.13-1.37.98-.38,1.74-.58,2.27-.58,1.39,0,2.09.79,2.09,2.38,0,.24-.02.67-.07,1.3-.05.62-.08,1.26-.11,1.91-.02.65-.06,1.26-.11,1.84s-.07.96-.07,1.15c1.01-.96,2.09-1.94,3.24-2.95,1.15-1.01,2.4-1.93,3.74-2.77,1.34-.84,2.76-1.52,4.25-2.05,1.49-.53,3.02-.79,4.61-.79,2.88,0,5.24.83,7.09,2.48,1.85,1.66,2.77,4.28,2.77,7.88,0,.96-.06,2.09-.18,3.38-.12,1.3-.25,2.64-.4,4.03-.14,1.39-.28,2.76-.4,4.1-.12,1.34-.18,2.54-.18,3.6,0,3.84,1.25,5.76,3.74,5.76.48,0,1.02-.08,1.62-.25.6-.17,1.18-.36,1.73-.58.55-.21,1.04-.43,1.48-.65.43-.22.72-.4.86-.54.05-.05.11-.01.18.11.07.12.13.28.18.47.05.19.06.36.04.5-.03.14-.06.24-.11.29-.38.24-1.21.7-2.48,1.37-1.27.67-2.69,1.36-4.25,2.05-1.56.7-3.11,1.32-4.64,1.87s-2.76.83-3.67.83c-1.1,0-1.86-.26-2.27-.79-.41-.53-.61-1.08-.61-1.66,0-.38.06-.86.18-1.44.12-.58.28-1.51.47-2.81.19-1.39.37-3.02.54-4.9.17-1.87.25-3.89.25-6.05,0-4.22-.78-7.43-2.34-9.61-1.56-2.18-3.52-3.28-5.87-3.28-1.49,0-2.81.29-3.96.86s-2.14,1.36-2.95,2.34c-.82.98-1.46,2.11-1.94,3.38-.48,1.27-.79,2.63-.94,4.07Z" />
    <path
        d="M455.76,44.57c0,.96-.03,2.16-.07,3.6-.05,1.44-.07,2.93-.07,4.46,0,1.73.26,2.96.79,3.71.53.75,1.22,1.12,2.09,1.12.05,0,.17-.02.36-.07.19-.05.4-.08.61-.11.22-.02.42-.06.61-.11.19-.05.31-.07.36-.07.1,0,.2.08.32.25.12.17.16.3.11.4-.29.34-.95.74-1.98,1.22-1.03.48-2.18.95-3.46,1.4-1.27.46-2.5.85-3.67,1.19-1.18.33-2.05.5-2.63.5-.67,0-1.2-.19-1.58-.58-.38-.38-.58-.67-.58-.86,0-.14.01-.24.04-.29.02-.05.05-.1.07-.14s.06-.13.11-.25c.05-.12.1-.32.14-.61.14-.62.29-1.43.43-2.41.14-.98.28-2.21.4-3.67.12-1.46.23-3.24.32-5.33.1-2.09.19-4.57.29-7.45.05-2.26.08-4.48.11-6.66.02-2.18.05-4.24.07-6.16.02-1.92.04-3.68.04-5.29v-4.07c0-2.3-.12-4.1-.36-5.4-.24-1.3-.5-2.14-.79-2.52-.34-.48-.8-.73-1.4-.76-.6-.02-1.02-.06-1.26-.11-.05-.43-.03-.82.07-1.15.1-.29.24-.55.43-.79.19-.24.55-.36,1.08-.36.86,0,1.87-.01,3.02-.04,1.15-.02,2.35-.07,3.6-.14,1.25-.07,2.47-.17,3.67-.29,1.2-.12,2.25-.28,3.17-.47.29-.05.44.04.47.25.02.22-.01.59-.11,1.12-.05.29-.18.47-.4.54-.22.07-.46.11-.72.11s-.5.01-.72.04c-.22.02-.37.13-.47.32-.1.24-.22.55-.36.94-.14.38-.26.94-.36,1.66-.14.96-.29,2.24-.43,3.85-.14,1.61-.28,3.4-.4,5.36-.12,1.97-.24,4.03-.36,6.19-.12,2.16-.23,4.25-.32,6.26-.1,2.02-.17,3.89-.22,5.62s-.07,3.14-.07,4.25c1.39,0,2.89-.33,4.5-1.01,1.61-.67,3.1-1.58,4.46-2.74,1.37-1.15,2.51-2.51,3.42-4.07.91-1.56,1.37-3.23,1.37-5,0-1.39-.46-2.09-1.37-2.09-.77,0-1.46.11-2.09.32-.62.22-1.06.32-1.3.32-.72,0-1.13-.19-1.22-.58,0-.29.12-.61.36-.97.24-.36.48-.59.72-.68,1.01,0,2.15-.05,3.42-.14,1.27-.1,2.56-.23,3.85-.4,1.3-.17,2.54-.35,3.74-.54,1.2-.19,2.21-.36,3.02-.5.24.1.36.24.36.43,0,.43-.4,1.37-1.19,2.81s-1.85,3.02-3.17,4.75c-1.32,1.73-2.82,3.41-4.5,5.04-1.68,1.63-3.41,2.86-5.18,3.67.53.34,1.22.96,2.09,1.87.86.91,1.81,1.97,2.84,3.17,1.03,1.2,2.12,2.45,3.28,3.74,1.15,1.3,2.33,2.48,3.53,3.56,1.2,1.08,2.36,1.97,3.49,2.66,1.13.7,2.2,1.04,3.2,1.04.72,0,1.28-.07,1.69-.22.41-.14.83-.34,1.26-.58.24.14.36.31.36.5,0,.38-.18.76-.54,1.12-.36.36-1.17.73-2.41,1.12-.82.24-1.75.56-2.81.97-1.06.41-2.08.79-3.06,1.15-.98.36-1.85.66-2.59.9-.75.24-1.21.34-1.4.29-.38-.1-1-.57-1.84-1.4-.84-.84-1.8-1.87-2.88-3.1-1.08-1.22-2.23-2.57-3.46-4.03-1.22-1.46-2.42-2.84-3.6-4.14-1.18-1.3-2.27-2.45-3.28-3.46-1.01-1.01-1.85-1.68-2.52-2.02h-.58Z" />
</svg>