<?xml version="1.0" encoding="UTF-8"?>
<svg id="Layer_1" xmlns="http://www.w3.org/2000/svg" viewBox="0 0 217.08 97.13">
    <path
        d="M28.3,62.21c-3.74,0-7.24-.55-10.48-1.66-3.24-1.1-6.06-2.72-8.46-4.86-2.4-2.14-4.3-4.74-5.69-7.81-1.39-3.07-2.09-6.58-2.09-10.51,0-4.32.82-8.23,2.45-11.74,1.63-3.5,3.79-6.5,6.48-9,2.69-2.5,5.76-4.43,9.22-5.8,3.46-1.37,7.03-2.05,10.73-2.05,3.5,0,6.86.52,10.08,1.55,3.22,1.03,6.05,2.54,8.5,4.54,2.45,1.99,4.39,4.46,5.83,7.42,1.44,2.95,2.16,6.32,2.16,10.12s-.72,7.18-2.16,10.73c-1.44,3.55-3.43,6.74-5.98,9.58-2.54,2.83-5.57,5.12-9.07,6.88-3.5,1.75-7.34,2.63-11.52,2.63ZM30.24,59.54c2.64,0,4.97-.66,6.98-1.98s3.71-3.07,5.08-5.26c1.37-2.18,2.39-4.7,3.06-7.56.67-2.85,1.01-5.84,1.01-8.96,0-3.79-.46-7.21-1.37-10.26-.91-3.05-2.15-5.63-3.71-7.74-1.56-2.11-3.38-3.73-5.47-4.86-2.09-1.13-4.28-1.69-6.59-1.69-2.64,0-5,.59-7.09,1.76-2.09,1.18-3.86,2.8-5.33,4.86-1.46,2.06-2.58,4.52-3.35,7.38-.77,2.86-1.15,5.96-1.15,9.32,0,4.27.5,7.98,1.51,11.12,1.01,3.14,2.34,5.74,4,7.78,1.66,2.04,3.56,3.56,5.72,4.57s4.39,1.51,6.7,1.51Z" />
    <path
        d="M94.18,30.6c-.53.43-1.15.97-1.87,1.62-.72.65-1.48,1.27-2.27,1.87-.79.6-1.6,1.12-2.41,1.55-.82.43-1.61.65-2.38.65-.67,0-1.27-.16-1.8-.47-.53-.31-1.02-.65-1.48-1.01-.46-.36-.9-.69-1.33-1.01-.43-.31-.89-.47-1.37-.47-1.3,0-2.39.53-3.28,1.58-.89,1.06-1.61,2.4-2.16,4.03-.55,1.63-.96,3.41-1.22,5.33-.26,1.92-.4,3.77-.4,5.54,0,1.49.06,2.7.18,3.64.12.94.3,1.68.54,2.23.24.55.56.92.97,1.12.41.19.9.29,1.48.29.62,0,1.3-.1,2.02-.29.14-.05.25.05.32.29.07.24.11.43.11.58,0,.1-.07.21-.22.32-.14.12-.24.18-.29.18-1.06.43-2.14.9-3.24,1.4-1.1.5-2.02.92-2.74,1.26-.67.29-1.48.6-2.41.94-.94.33-1.74.5-2.41.5-.77,0-1.4-.12-1.91-.36-.5-.24-.76-.48-.76-.72s.06-.46.18-.65c.12-.19.23-.55.32-1.08.1-.72.2-1.57.32-2.56.12-.98.24-2.05.36-3.2.12-1.15.22-2.34.29-3.56.07-1.22.11-2.44.11-3.64,0-2.69-.08-4.97-.25-6.84-.17-1.87-.47-3.38-.9-4.54s-1.02-1.98-1.76-2.48c-.74-.5-1.69-.76-2.84-.76h-.65c-.19,0-.38.02-.58.07-.29,0-.43-.14-.43-.43s.14-.5.43-.65c.53-.34,1.34-.83,2.45-1.48,1.1-.65,2.24-1.27,3.42-1.87,1.18-.6,2.31-1.14,3.42-1.62,1.1-.48,1.92-.72,2.45-.72.62,0,1.15.2,1.58.61.43.41.76.92.97,1.55.22.62.37,1.33.47,2.12.1.79.14,1.57.14,2.34,0,.58-.01,1.18-.04,1.8-.02.62-.04,1.3-.04,2.02,2.16-3.17,4.1-5.63,5.83-7.38,1.73-1.75,3.36-2.63,4.9-2.63.58,0,1.14.24,1.69.72.55.48,1.14,1.02,1.76,1.62.62.6,1.27,1.14,1.94,1.62.67.48,1.37.72,2.09.72.62,0,1.08-.07,1.37-.22s.53-.26.72-.36c.38,0,.58.26.58.79v.07Z" />
    <path
        d="M112.18,38.81c-.29-1.49-.62-2.82-1.01-4-.38-1.18-.86-2.16-1.44-2.95s-1.27-1.39-2.09-1.8c-.82-.41-1.82-.61-3.02-.61-1.06,0-2.03.19-2.92.58-.89.38-1.66.84-2.3,1.37-.65.53-1.15,1.06-1.51,1.58-.36.53-.56.94-.61,1.22-.05.38-.26.58-.65.58-.67,0-1.3-.24-1.87-.72-.58-.48-.86-1.06-.86-1.73,0-.38.05-.67.14-.86,1.1-.62,2.45-1.3,4.03-2.02,1.58-.72,3.23-1.39,4.93-2.02,1.7-.62,3.4-1.14,5.08-1.55,1.68-.41,3.19-.61,4.54-.61,2.02,0,3.56.29,4.64.86s1.88,1.39,2.41,2.45c.53,1.06.85,2.29.97,3.71.12,1.42.23,2.94.32,4.57.14,2.45.34,4.81.58,7.09.24,2.28.6,4.3,1.08,6.05.48,1.75,1.09,3.17,1.84,4.25.74,1.08,1.67,1.62,2.77,1.62.53,0,1.1-.1,1.73-.29.62-.19,1.22-.42,1.8-.68s1.09-.53,1.55-.79c.46-.26.76-.44.9-.54.43,0,.7.22.79.65,0,.24-.05.46-.14.65-.1.1-.46.34-1.08.72-.62.38-1.39.84-2.3,1.37-.91.53-1.92,1.09-3.02,1.69-1.1.6-2.2,1.16-3.28,1.69-1.08.53-2.08.96-2.99,1.3-.91.33-1.63.5-2.16.5-.62,0-1.16-.25-1.62-.76-.46-.5-.85-1.18-1.19-2.02-.34-.84-.62-1.81-.86-2.92-.24-1.1-.46-2.26-.65-3.46-.86.72-1.97,1.57-3.31,2.56-1.34.98-2.81,1.91-4.39,2.77-1.58.86-3.2,1.6-4.86,2.2-1.66.6-3.25.9-4.79.9-1.3,0-2.42-.21-3.38-.61-.96-.41-1.76-.95-2.41-1.62-.65-.67-1.13-1.45-1.44-2.34-.31-.89-.47-1.81-.47-2.77,0-1.54.47-2.8,1.4-3.78.94-.98,2.39-2,4.36-3.06.91-.48,2.18-1.12,3.82-1.91,1.63-.79,3.3-1.6,5-2.41,1.7-.82,3.29-1.6,4.75-2.34,1.46-.74,2.53-1.33,3.2-1.76ZM114.26,49.97c-.14-.82-.29-1.7-.43-2.66-.14-.96-.29-1.87-.43-2.74-.14-.86-.28-1.61-.4-2.23-.12-.62-.2-1.03-.25-1.22-.77.29-1.63.62-2.59,1.01-.96.38-1.92.8-2.88,1.26-.96.46-1.87.91-2.74,1.37-.86.46-1.58.88-2.16,1.26-1.1.72-1.94,1.44-2.52,2.16-.58.72-.86,1.58-.86,2.59,0,1.39.41,2.62,1.22,3.67.82,1.06,2.09,1.58,3.82,1.58.91,0,1.86-.17,2.84-.5.98-.33,1.9-.72,2.74-1.15.84-.43,1.57-.86,2.2-1.3.62-.43,1.06-.77,1.3-1.01.38-.38.68-.71.9-.97.22-.26.3-.63.25-1.12Z" />
    <path
        d="M160.49,28.51c-.1.29-.37.73-.83,1.33-.46.6-1,1.22-1.62,1.87-.62.65-1.28,1.27-1.98,1.87-.7.6-1.31,1.04-1.84,1.33-.34.14-.54.1-.61-.14-.07-.24-.11-.48-.11-.72,0-.38-.2-.86-.61-1.44-.41-.58-.98-1.14-1.73-1.69-.74-.55-1.62-1.02-2.63-1.4-1.01-.38-2.11-.58-3.31-.58-2.06,0-3.74,1.12-5.04,3.35-1.3,2.23-1.94,5.2-1.94,8.89,0,2.26.35,4.28,1.04,6.08.7,1.8,1.66,3.31,2.88,4.54,1.22,1.22,2.7,2.16,4.43,2.81s3.6.97,5.62.97c2.74,0,4.92-.35,6.55-1.04,1.63-.7,2.98-1.5,4.03-2.41.05,0,.08-.02.11-.07.02-.05.06-.07.11-.07.24,0,.41.08.5.25.1.17.14.37.14.61,0,.19-.05.34-.14.43-.72.58-1.72,1.34-2.99,2.3-1.27.96-2.72,1.91-4.36,2.84-1.63.94-3.34,1.74-5.11,2.41-1.78.67-3.53,1.01-5.26,1.01-4.94,0-8.8-1.44-11.56-4.32-2.76-2.88-4.14-6.82-4.14-11.81,0-3.79.73-6.98,2.2-9.58,1.46-2.59,3.26-4.67,5.4-6.23,2.14-1.56,4.4-2.68,6.8-3.35,2.4-.67,4.51-1.01,6.34-1.01,1.49,0,2.82.11,4,.32,1.18.22,2.18.48,3.02.79.84.31,1.49.64,1.94.97.46.34.68.62.68.86Z" />
    <path
        d="M186.69,53.85c.29.19.43.43.43.72,0,.38-.55.89-1.66,1.51-1.15.67-2.68,1.46-4.57,2.38-1.9.91-3.78,1.7-5.65,2.38-.91.34-1.73.62-2.45.86-.72.24-1.37.36-1.94.36-.67,0-1.5-.16-2.48-.47-.98-.31-1.84-.68-2.56-1.12-.58-.38-1.03-.68-1.37-.9-.34-.22-.5-.44-.5-.68,0-.19.06-.37.18-.54.12-.17.23-.37.32-.61.05-.14.1-.33.14-.58.05-.24.07-.48.07-.72.14-1.2.3-2.94.47-5.22.17-2.28.3-4.8.4-7.56.1-2.76.18-5.62.25-8.57.07-2.95.11-5.7.11-8.24,0-3.12-.01-5.64-.04-7.56-.02-1.92-.08-3.46-.18-4.61-.14-1.58-.34-2.63-.58-3.13-.24-.5-.5-.88-.79-1.12-.34-.29-.66-.47-.97-.54-.31-.07-.6-.12-.86-.14-.26-.02-.48-.04-.65-.04s-.25-.05-.25-.14c0-1.58.67-2.38,2.02-2.38,1.01,0,2.2.01,3.56.04,1.37.02,2.51.04,3.42.04.58,0,1.19-.04,1.84-.11.65-.07,1.28-.14,1.91-.22.62-.07,1.2-.16,1.73-.25.53-.1.91-.19,1.15-.29.19-.05.35.02.47.22.12.19.19.43.22.72.02.29-.02.55-.14.79-.12.24-.28.38-.47.43-.29.05-.54.07-.76.07s-.59.1-1.12.29c-.24.1-.46.4-.65.9-.19.5-.36,1.3-.5,2.38s-.29,2.5-.43,4.25c-.14,1.75-.29,3.95-.43,6.59-.14,2.11-.25,4.26-.32,6.44-.07,2.18-.14,4.31-.22,6.37-.07,2.06-.12,3.98-.14,5.76-.02,1.78-.04,3.29-.04,4.54,0,1.39.01,2.8.04,4.21.02,1.42.16,2.53.4,3.35.24.77.86,1.49,1.87,2.16,1.01.67,2.06,1.01,3.17,1.01.86,0,1.75-.12,2.66-.36.91-.24,1.75-.53,2.52-.86.77-.34,1.45-.67,2.05-1.01.6-.34,1.04-.6,1.33-.79Z" />
    <path
        d="M215.57,52.78c-.53.58-1.34,1.37-2.45,2.38-1.1,1.01-2.44,2.02-4,3.02-1.56,1.01-3.3,1.87-5.22,2.59-1.92.72-3.96,1.08-6.12,1.08-1.97,0-3.89-.3-5.76-.9s-3.55-1.51-5.04-2.74c-1.49-1.22-2.68-2.78-3.56-4.68-.89-1.9-1.33-4.16-1.33-6.8,0-2.16.14-4.02.43-5.58.29-1.56.67-2.93,1.15-4.1.48-1.18,1.02-2.18,1.62-3.02.6-.84,1.21-1.6,1.84-2.27.77-.86,1.7-1.68,2.81-2.45,1.1-.77,2.29-1.46,3.56-2.09,1.27-.62,2.62-1.12,4.03-1.48,1.42-.36,2.84-.54,4.28-.54,2.59,0,4.62.43,6.08,1.3,1.46.86,2.2,2.06,2.2,3.6,0,.96-.29,1.85-.86,2.66.48-.14,1.09-.38,1.84-.72.74-.33,1.5-.68,2.27-1.04.77-.36,1.45-.68,2.05-.97.6-.29,1-.5,1.19-.65.1-.1.2-.13.32-.11.12.02.18.11.18.25,0,.62-.12,1.14-.36,1.55-.24.41-.53.73-.86.97-.77.48-1.87,1.08-3.31,1.8-1.44.72-3.04,1.48-4.79,2.27-1.75.79-3.56,1.58-5.44,2.38-1.87.79-3.64,1.55-5.29,2.27-1.66.72-3.1,1.36-4.32,1.91-1.22.55-2.05.95-2.48,1.19,0,1.63.32,3.16.97,4.57.65,1.42,1.55,2.65,2.7,3.71,1.15,1.06,2.53,1.88,4.14,2.48,1.61.6,3.37.9,5.29.9,1.73,0,3.29-.18,4.68-.54,1.39-.36,2.57-.77,3.53-1.22.96-.46,1.72-.86,2.27-1.22.55-.36.85-.54.9-.54.19,0,.38.08.58.25.19.17.29.35.29.54ZM190.22,41.76c.82-.29,1.74-.64,2.77-1.04,1.03-.41,2.04-.85,3.02-1.33.98-.48,1.88-.94,2.7-1.37.82-.43,1.44-.82,1.87-1.15.86-.62,1.3-1.68,1.3-3.17,0-.58-.11-1.18-.32-1.8-.22-.62-.54-1.19-.97-1.69-.43-.5-.96-.91-1.58-1.22-.62-.31-1.32-.47-2.09-.47-.67,0-1.39.23-2.16.68-.77.46-1.49,1.2-2.16,2.23-.67,1.03-1.24,2.4-1.69,4.1-.46,1.7-.68,3.78-.68,6.23Z" />
</svg>