<?xml version="1.0" encoding="UTF-8"?>
<svg id="Layer_1" xmlns="http://www.w3.org/2000/svg" viewBox="0 0 973.29 97.13">
    <path
        d="M18.52,39.6c0-5.86-.05-10.63-.14-14.33-.1-3.7-.24-6.59-.43-8.68-.19-2.09-.43-3.52-.72-4.28-.29-.77-.65-1.15-1.08-1.15-.14,0-.43.01-.86.04-.43.02-.9.04-1.4.04s-.95-.01-1.33-.04c-.38-.02-.58-.08-.58-.18v-.83c0-.41.1-.66.29-.76.24-.05.77-.07,1.58-.07s1.76.02,2.84.07c1.08.05,2.2.08,3.35.11,1.15.02,2.21.04,3.17.04h2.34c.6,0,.88-.05.83-.14.19,0,.66-.16,1.4-.47.74-.31,1.68-.66,2.81-1.04,1.13-.38,2.42-.73,3.89-1.04,1.46-.31,2.99-.47,4.57-.47,6,0,10.7,1.26,14.11,3.78,3.41,2.52,5.11,5.99,5.11,10.4,0,3.74-.74,7.09-2.23,10.04-1.49,2.95-3.44,5.47-5.87,7.56-2.42,2.09-5.16,3.68-8.21,4.79-3.05,1.1-6.13,1.66-9.25,1.66-.96,0-2-.05-3.13-.14-1.13-.1-1.96-.26-2.48-.5v4.68c0,1.92.02,3.84.07,5.76.05,1.92.14,3.66.29,5.22.14,1.56.34,2.58.58,3.06.14.33.44.54.9.61.46.07.97.1,1.55.07.58-.03,1.16-.07,1.76-.14.6-.07,1.12-.11,1.55-.11.14.05.24.15.29.32.05.17.07.36.07.58s-.02.41-.07.58c-.05.17-.14.25-.29.25-.91,0-1.96.11-3.13.32-1.18.22-2.42.5-3.74.86-1.32.36-2.64.78-3.96,1.26-1.32.48-2.58.98-3.78,1.51-1.15.48-2.59,1.24-4.32,2.27s-3.46,2.06-5.18,3.1c-1.73,1.03-3.31,1.93-4.75,2.7-1.44.77-2.45,1.15-3.02,1.15-.24,0-.52-.1-.83-.29-.31-.19-.58-.41-.79-.65-.22-.24-.3-.47-.25-.68.05-.21.31-.37.79-.47,1.2-.19,2.62-.67,4.25-1.44,1.63-.77,3.22-1.61,4.75-2.52s2.89-1.79,4.07-2.63c1.18-.84,1.93-1.43,2.27-1.76.24-.24.49-1.31.76-3.2.26-1.9.52-4.2.76-6.91.24-2.71.44-5.66.61-8.86.17-3.19.25-6.2.25-9.04ZM27.08,39.46c.24.67,1.08,1.31,2.52,1.91,1.44.6,3.31.9,5.62.9,2.11,0,4.04-.4,5.8-1.19,1.75-.79,3.26-1.98,4.54-3.56,1.27-1.58,2.26-3.54,2.95-5.87.7-2.33,1.04-5.03,1.04-8.1,0-2.26-.34-4.31-1.01-6.16-.67-1.85-1.6-3.42-2.77-4.72-1.18-1.3-2.56-2.3-4.14-3.02-1.58-.72-3.29-1.08-5.11-1.08-1.01,0-2,.13-2.99.4-.98.26-1.87.58-2.66.94-.79.36-1.44.74-1.94,1.15-.5.41-.8.78-.9,1.12-.1.29-.18,1.01-.25,2.16-.07,1.15-.14,2.56-.22,4.21-.07,1.66-.14,3.48-.22,5.47-.07,1.99-.12,3.95-.14,5.87-.02,1.92-.05,3.73-.07,5.44-.02,1.7-.04,3.08-.04,4.14Z" />
    <path
        d="M92.46,52.78c-.53.58-1.34,1.37-2.45,2.38-1.1,1.01-2.44,2.02-4,3.02-1.56,1.01-3.3,1.87-5.22,2.59-1.92.72-3.96,1.08-6.12,1.08-1.97,0-3.89-.3-5.76-.9s-3.55-1.51-5.04-2.74c-1.49-1.22-2.68-2.78-3.56-4.68-.89-1.9-1.33-4.16-1.33-6.8,0-2.16.14-4.02.43-5.58.29-1.56.67-2.93,1.15-4.1.48-1.18,1.02-2.18,1.62-3.02.6-.84,1.21-1.6,1.84-2.27.77-.86,1.7-1.68,2.81-2.45,1.1-.77,2.29-1.46,3.56-2.09,1.27-.62,2.62-1.12,4.03-1.48,1.42-.36,2.84-.54,4.28-.54,2.59,0,4.62.43,6.08,1.3,1.46.86,2.2,2.06,2.2,3.6,0,.96-.29,1.85-.86,2.66.48-.14,1.09-.38,1.84-.72.74-.33,1.5-.68,2.27-1.04.77-.36,1.45-.68,2.05-.97.6-.29,1-.5,1.19-.65.1-.1.2-.13.32-.11.12.02.18.11.18.25,0,.62-.12,1.14-.36,1.55-.24.41-.53.73-.86.97-.77.48-1.87,1.08-3.31,1.8-1.44.72-3.04,1.48-4.79,2.27-1.75.79-3.56,1.58-5.44,2.38-1.87.79-3.64,1.55-5.29,2.27-1.66.72-3.1,1.36-4.32,1.91-1.22.55-2.05.95-2.48,1.19,0,1.63.32,3.16.97,4.57.65,1.42,1.55,2.65,2.7,3.71,1.15,1.06,2.53,1.88,4.14,2.48,1.61.6,3.37.9,5.29.9,1.73,0,3.29-.18,4.68-.54,1.39-.36,2.57-.77,3.53-1.22.96-.46,1.72-.86,2.27-1.22.55-.36.85-.54.9-.54.19,0,.38.08.58.25.19.17.29.35.29.54ZM67.12,41.76c.82-.29,1.74-.64,2.77-1.04,1.03-.41,2.04-.85,3.02-1.33.98-.48,1.88-.94,2.7-1.37.82-.43,1.44-.82,1.87-1.15.86-.62,1.3-1.68,1.3-3.17,0-.58-.11-1.18-.32-1.8-.22-.62-.54-1.19-.97-1.69-.43-.5-.96-.91-1.58-1.22-.62-.31-1.32-.47-2.09-.47-.67,0-1.39.23-2.16.68-.77.46-1.49,1.2-2.16,2.23-.67,1.03-1.24,2.4-1.69,4.1-.46,1.7-.68,3.78-.68,6.23Z" />
    <path
        d="M114.06,38.81c-.29-1.49-.62-2.82-1.01-4-.38-1.18-.86-2.16-1.44-2.95s-1.27-1.39-2.09-1.8c-.82-.41-1.82-.61-3.02-.61-1.06,0-2.03.19-2.92.58-.89.38-1.66.84-2.3,1.37-.65.53-1.15,1.06-1.51,1.58-.36.53-.56.94-.61,1.22-.05.38-.26.58-.65.58-.67,0-1.3-.24-1.87-.72-.58-.48-.86-1.06-.86-1.73,0-.38.05-.67.14-.86,1.1-.62,2.45-1.3,4.03-2.02,1.58-.72,3.23-1.39,4.93-2.02,1.7-.62,3.4-1.14,5.08-1.55,1.68-.41,3.19-.61,4.54-.61,2.02,0,3.56.29,4.64.86s1.88,1.39,2.41,2.45c.53,1.06.85,2.29.97,3.71.12,1.42.23,2.94.32,4.57.14,2.45.34,4.81.58,7.09.24,2.28.6,4.3,1.08,6.05.48,1.75,1.09,3.17,1.84,4.25.74,1.08,1.67,1.62,2.77,1.62.53,0,1.1-.1,1.73-.29.62-.19,1.22-.42,1.8-.68s1.09-.53,1.55-.79c.46-.26.76-.44.9-.54.43,0,.7.22.79.65,0,.24-.05.46-.14.65-.1.1-.46.34-1.08.72-.62.38-1.39.84-2.3,1.37-.91.53-1.92,1.09-3.02,1.69-1.1.6-2.2,1.16-3.28,1.69-1.08.53-2.08.96-2.99,1.3-.91.33-1.63.5-2.16.5-.62,0-1.16-.25-1.62-.76-.46-.5-.85-1.18-1.19-2.02-.34-.84-.62-1.81-.86-2.92-.24-1.1-.46-2.26-.65-3.46-.86.72-1.97,1.57-3.31,2.56-1.34.98-2.81,1.91-4.39,2.77-1.58.86-3.2,1.6-4.86,2.2-1.66.6-3.25.9-4.79.9-1.3,0-2.42-.21-3.38-.61-.96-.41-1.76-.95-2.41-1.62-.65-.67-1.13-1.45-1.44-2.34-.31-.89-.47-1.81-.47-2.77,0-1.54.47-2.8,1.4-3.78.94-.98,2.39-2,4.36-3.06.91-.48,2.18-1.12,3.82-1.91,1.63-.79,3.3-1.6,5-2.41,1.7-.82,3.29-1.6,4.75-2.34,1.46-.74,2.53-1.33,3.2-1.76ZM116.15,49.97c-.14-.82-.29-1.7-.43-2.66-.14-.96-.29-1.87-.43-2.74-.14-.86-.28-1.61-.4-2.23-.12-.62-.2-1.03-.25-1.22-.77.29-1.63.62-2.59,1.01-.96.38-1.92.8-2.88,1.26-.96.46-1.87.91-2.74,1.37-.86.46-1.58.88-2.16,1.26-1.1.72-1.94,1.44-2.52,2.16-.58.72-.86,1.58-.86,2.59,0,1.39.41,2.62,1.22,3.67.82,1.06,2.09,1.58,3.82,1.58.91,0,1.86-.17,2.84-.5.98-.33,1.9-.72,2.74-1.15.84-.43,1.57-.86,2.2-1.3.62-.43,1.06-.77,1.3-1.01.38-.38.68-.71.9-.97.22-.26.3-.63.25-1.12Z" />
    <path
        d="M132.42,59.4c-.38.24-.74.64-1.08,1.19-.34.55-.55.97-.65,1.26-.05.1-.18.18-.4.25-.22.07-.37.11-.47.11-.43,0-.65-.22-.65-.65,0-.14.19-.53.58-1.15.29-.48.74-1.24,1.37-2.27.62-1.03,1.26-2.09,1.91-3.17s1.25-2.06,1.8-2.95c.55-.89.95-1.47,1.19-1.76.24-.24.53-.28.86-.11.34.17.43.37.29.61-.1.1-.17.22-.22.36-.05.14-.07.38-.07.72,0,.43.37.97,1.12,1.62.74.65,1.69,1.27,2.84,1.87,1.15.6,2.42,1.12,3.82,1.55,1.39.43,2.76.65,4.1.65,1.58,0,2.84-.46,3.78-1.37.94-.91,1.4-2.11,1.4-3.6,0-1.68-.53-2.93-1.58-3.74-1.06-.82-2.36-1.44-3.92-1.87-1.56-.43-3.26-.78-5.11-1.04-1.85-.26-3.55-.66-5.11-1.19-1.56-.53-2.87-1.3-3.92-2.3-1.06-1.01-1.58-2.47-1.58-4.39,0-1.49.52-3,1.55-4.54,1.03-1.54,2.4-2.9,4.1-4.1,1.7-1.2,3.66-2.18,5.87-2.95,2.21-.77,4.51-1.15,6.91-1.15.72,0,1.56.07,2.52.22.96.14,1.91.32,2.84.54.94.22,1.8.43,2.59.65.79.22,1.38.4,1.76.54.1,0,.07.19-.07.58-.14.43-.5,1.09-1.08,1.98-.58.89-1.21,1.76-1.91,2.63-.7.86-1.34,1.63-1.94,2.3-.6.67-1.02,1.01-1.26,1.01h-.43c-.24,0-.41-.05-.5-.14.05-.24.07-.55.07-.94,0-1.68-.76-3-2.27-3.96-1.51-.96-3.71-1.44-6.59-1.44-1.39,0-2.53.41-3.42,1.22-.89.82-1.33,1.8-1.33,2.95,0,1.87.53,3.26,1.58,4.18,1.06.91,2.38,1.6,3.96,2.05,1.58.46,3.29.8,5.11,1.04,1.82.24,3.53.61,5.11,1.12,1.58.5,2.9,1.26,3.96,2.27,1.06,1.01,1.58,2.52,1.58,4.54,0,.91-.19,1.8-.58,2.66-.38.87-.89,1.68-1.51,2.45-.62.77-1.32,1.47-2.09,2.12-.77.65-1.54,1.21-2.3,1.69-.72.48-1.54.97-2.45,1.48-.91.5-1.9.97-2.95,1.4-1.06.43-2.14.78-3.24,1.04-1.1.26-2.21.4-3.31.4-.53,0-1.37-.11-2.52-.32s-2.32-.47-3.49-.76c-1.18-.29-2.22-.56-3.13-.83-.91-.26-1.39-.44-1.44-.54Z" />
    <path
        d="M203.55,38.81c-.29-1.49-.62-2.82-1.01-4-.38-1.18-.86-2.16-1.44-2.95s-1.27-1.39-2.09-1.8c-.82-.41-1.82-.61-3.02-.61-1.06,0-2.03.19-2.92.58-.89.38-1.66.84-2.3,1.37-.65.53-1.15,1.06-1.51,1.58-.36.53-.56.94-.61,1.22-.05.38-.26.58-.65.58-.67,0-1.3-.24-1.87-.72-.58-.48-.86-1.06-.86-1.73,0-.38.05-.67.14-.86,1.1-.62,2.45-1.3,4.03-2.02,1.58-.72,3.23-1.39,4.93-2.02,1.7-.62,3.4-1.14,5.08-1.55,1.68-.41,3.19-.61,4.54-.61,2.02,0,3.56.29,4.64.86s1.88,1.39,2.41,2.45c.53,1.06.85,2.29.97,3.71.12,1.42.23,2.94.32,4.57.14,2.45.34,4.81.58,7.09.24,2.28.6,4.3,1.08,6.05.48,1.75,1.09,3.17,1.84,4.25.74,1.08,1.67,1.62,2.77,1.62.53,0,1.1-.1,1.73-.29.62-.19,1.22-.42,1.8-.68s1.09-.53,1.55-.79c.46-.26.76-.44.9-.54.43,0,.7.22.79.65,0,.24-.05.46-.14.65-.1.1-.46.34-1.08.72-.62.38-1.39.84-2.3,1.37-.91.53-1.92,1.09-3.02,1.69-1.1.6-2.2,1.16-3.28,1.69-1.08.53-2.08.96-2.99,1.3-.91.33-1.63.5-2.16.5-.62,0-1.16-.25-1.62-.76-.46-.5-.85-1.18-1.19-2.02-.34-.84-.62-1.81-.86-2.92-.24-1.1-.46-2.26-.65-3.46-.86.72-1.97,1.57-3.31,2.56-1.34.98-2.81,1.91-4.39,2.77-1.58.86-3.2,1.6-4.86,2.2-1.66.6-3.25.9-4.79.9-1.3,0-2.42-.21-3.38-.61-.96-.41-1.76-.95-2.41-1.62-.65-.67-1.13-1.45-1.44-2.34-.31-.89-.47-1.81-.47-2.77,0-1.54.47-2.8,1.4-3.78.94-.98,2.39-2,4.36-3.06.91-.48,2.18-1.12,3.82-1.91,1.63-.79,3.3-1.6,5-2.41,1.7-.82,3.29-1.6,4.75-2.34,1.46-.74,2.53-1.33,3.2-1.76ZM205.64,49.97c-.14-.82-.29-1.7-.43-2.66-.14-.96-.29-1.87-.43-2.74-.14-.86-.28-1.61-.4-2.23-.12-.62-.2-1.03-.25-1.22-.77.29-1.63.62-2.59,1.01-.96.38-1.92.8-2.88,1.26-.96.46-1.87.91-2.74,1.37-.86.46-1.58.88-2.16,1.26-1.1.72-1.94,1.44-2.52,2.16-.58.72-.86,1.58-.86,2.59,0,1.39.41,2.62,1.22,3.67.82,1.06,2.09,1.58,3.82,1.58.91,0,1.86-.17,2.84-.5.98-.33,1.9-.72,2.74-1.15.84-.43,1.57-.86,2.2-1.3.62-.43,1.06-.77,1.3-1.01.38-.38.68-.71.9-.97.22-.26.3-.63.25-1.12Z" />
    <path
        d="M233.29,42.19c-.05.43-.1.82-.14,1.15-.05.34-.08.72-.11,1.15-.02.43-.05.97-.07,1.62-.02.65-.04,1.5-.04,2.56,0,1.73.06,3.14.18,4.25.12,1.11.3,1.98.54,2.63.24.65.54,1.09.9,1.33.36.24.8.36,1.33.36.34,0,.7-.05,1.08-.14.1,0,.18.13.25.4.07.26.06.44-.04.54-.29.24-.85.59-1.69,1.04-.84.46-1.79.9-2.84,1.33-1.06.43-2.15.82-3.28,1.15-1.13.33-2.08.5-2.84.5-.67,0-1.2-.08-1.58-.25-.38-.17-.58-.37-.58-.61s.02-.38.07-.43c.05-.05.12-.17.22-.36.1-.24.17-.54.22-.9.05-.36.12-.78.22-1.26.1-.67.19-1.52.29-2.56.1-1.03.19-2.16.29-3.38.1-1.22.18-2.5.25-3.82.07-1.32.11-2.6.11-3.85,0-.53-.01-1.19-.04-1.98-.02-.79-.06-1.81-.11-3.06-.05-1.39-.2-2.58-.47-3.56-.26-.98-.6-1.78-1.01-2.38-.41-.6-.86-1.04-1.37-1.33-.5-.29-1-.43-1.48-.43h-.72c-.24,0-.48.02-.72.07-.19,0-.29-.22-.29-.65,0-.1.04-.18.11-.25.07-.07.3-.23.68-.47.62-.43,1.46-.96,2.52-1.58,1.06-.62,2.14-1.2,3.24-1.73,1.1-.53,2.15-.98,3.13-1.37.98-.38,1.74-.58,2.27-.58,1.39,0,2.09.79,2.09,2.38,0,.24-.02.67-.07,1.3-.05.62-.08,1.26-.11,1.91-.02.65-.06,1.26-.11,1.84-.05.58-.07.96-.07,1.15,1.01-.96,2.09-1.94,3.24-2.95,1.15-1.01,2.4-1.93,3.74-2.77,1.34-.84,2.76-1.52,4.25-2.05,1.49-.53,3.02-.79,4.61-.79,2.88,0,5.24.83,7.09,2.48,1.85,1.66,2.77,4.28,2.77,7.88,0,.96-.06,2.09-.18,3.38-.12,1.3-.25,2.64-.4,4.03-.14,1.39-.28,2.76-.4,4.1-.12,1.34-.18,2.54-.18,3.6,0,3.84,1.25,5.76,3.74,5.76.48,0,1.02-.08,1.62-.25.6-.17,1.18-.36,1.73-.58.55-.21,1.04-.43,1.48-.65s.72-.4.86-.54c.05-.05.11-.01.18.11.07.12.13.28.18.47.05.19.06.36.04.5-.02.14-.06.24-.11.29-.38.24-1.21.7-2.48,1.37-1.27.67-2.69,1.36-4.25,2.05-1.56.7-3.11,1.32-4.64,1.87-1.54.55-2.76.83-3.67.83-1.1,0-1.86-.26-2.27-.79-.41-.53-.61-1.08-.61-1.66,0-.38.06-.86.18-1.44.12-.58.28-1.51.47-2.81.19-1.39.37-3.02.54-4.9.17-1.87.25-3.89.25-6.05,0-4.22-.78-7.43-2.34-9.61-1.56-2.18-3.52-3.28-5.87-3.28-1.49,0-2.81.29-3.96.86-1.15.58-2.14,1.36-2.95,2.34-.82.98-1.46,2.11-1.94,3.38-.48,1.27-.79,2.63-.94,4.07Z" />
    <path
        d="M293.98,55.44c-.43.43-1.13,1.01-2.09,1.73-.96.72-2.09,1.43-3.38,2.12-1.3.7-2.7,1.3-4.21,1.8-1.51.5-3.04.76-4.57.76s-3.17-.36-4.75-1.08c-1.58-.72-3.01-1.76-4.28-3.13-1.27-1.37-2.29-3.01-3.06-4.93-.77-1.92-1.15-4.08-1.15-6.48,0-3.12.54-5.95,1.62-8.5,1.08-2.54,2.66-4.7,4.75-6.48,2.09-1.77,4.63-3.14,7.63-4.1,3-.96,6.44-1.44,10.33-1.44h1.94c.62,0,1.2.02,1.73.07v-2.34c0-1.13-.01-2.29-.04-3.49-.02-1.2-.05-2.3-.07-3.31-.03-1.01-.04-1.63-.04-1.87-.19-1.92-.52-3.26-.97-4.03-.46-.77-1.38-1.15-2.77-1.15-.19,0-.3-.22-.32-.65-.02-.43.13-.77.47-1.01.38-.24.82-.42,1.3-.54s1.2-.18,2.16-.18c1.82,0,3.35-.01,4.57-.04,1.22-.02,2.23-.07,3.02-.14.79-.07,1.43-.17,1.91-.29.48-.12.89-.25,1.22-.4.24-.05.44.01.61.18.17.17.29.38.36.65.07.26.08.52.04.76-.05.24-.19.38-.43.43-.53.1-.92.21-1.19.32-.26.12-.52.35-.76.68-.24.34-.46,1.22-.65,2.66-.19,1.44-.38,3.22-.58,5.33-.19,2.11-.36,4.45-.5,7.02-.14,2.57-.26,5.15-.36,7.74-.1,2.59-.18,5.11-.25,7.56-.07,2.45-.11,4.58-.11,6.41,0,3.5.38,6.08,1.15,7.74.77,1.66,1.94,2.48,3.53,2.48.58,0,1.21-.1,1.91-.29.7-.19,1.34-.42,1.94-.68.6-.26,1.15-.53,1.66-.79.5-.26.88-.49,1.12-.68.24-.19.46-.07.65.36.19.43.17.72-.07.86-.58.34-1.48.83-2.7,1.48-1.22.65-2.58,1.33-4.07,2.05-1.83.91-3.67,1.73-5.54,2.45-1.87.72-3.38,1.08-4.54,1.08-.86,0-1.45-.14-1.76-.43-.31-.29-.47-.74-.47-1.37v-.97c0-.46.01-.94.04-1.44s.04-.98.04-1.44v-1.04ZM293.05,52.99c.38-.53.67-1.14.86-1.84.19-.7.34-1.64.43-2.84.1-1.01.14-2.24.14-3.71v-3.85c0-1.1-.01-2.28-.04-3.53-.02-1.25-.06-2.11-.11-2.59-.1-.82-.43-1.58-1.01-2.3-.58-.72-1.32-1.34-2.23-1.87-.91-.53-1.98-.95-3.2-1.26-1.22-.31-2.51-.47-3.85-.47s-2.52.22-3.67.65c-1.15.43-2.15,1.13-2.99,2.09-.84.96-1.5,2.2-1.98,3.71-.48,1.51-.72,3.37-.72,5.58s.31,4.31.94,6.16c.62,1.85,1.49,3.45,2.59,4.79,1.1,1.34,2.42,2.39,3.96,3.13,1.54.74,3.21,1.12,5.04,1.12.72,0,1.39-.11,2.02-.32.62-.22,1.19-.48,1.69-.79.5-.31.95-.64,1.33-.97.38-.33.65-.62.79-.86Z" />
    <path
        d="M361.02,61.56c-.48,0-1.13.02-1.94.07-.82.05-1.69.08-2.63.11-.94.02-1.9.06-2.88.11-.98.05-1.88.07-2.7.07-3.22,0-6.36-.49-9.43-1.48-3.07-.98-5.8-2.52-8.17-4.61s-4.3-4.78-5.76-8.06c-1.46-3.29-2.2-7.24-2.2-11.84,0-4.22.8-7.97,2.41-11.23,1.61-3.26,3.73-6,6.37-8.21,2.64-2.21,5.62-3.89,8.93-5.04,3.31-1.15,6.7-1.73,10.15-1.73.77,0,1.81.05,3.13.14,1.32.1,2.64.22,3.96.36,1.32.14,2.5.3,3.53.47,1.03.17,1.69.32,1.98.47.62-1.68,1.32-3.17,2.09-4.46.77-1.3,1.82-2.28,3.17-2.95.38-.14.82-.17,1.3-.07.48.1.72.34.72.72-.24.43-.42.7-.54.79-.12.1-.28.14-.47.14-.58,0-1.14.26-1.69.79-.55.53-1.07,1.21-1.55,2.05-.48.84-.9,1.8-1.26,2.88s-.64,2.17-.83,3.28c-.1.53-.2,1.14-.32,1.84-.12.7-.23,1.38-.32,2.05-.1.67-.17,1.32-.22,1.94-.05.62-.07,1.15-.07,1.58,0,.24-.1.44-.29.61-.19.17-.38.25-.58.25-.29,0-.62-.14-1.01-.43-.19-1.2-.59-2.4-1.19-3.6-.6-1.2-1.44-2.28-2.52-3.24-1.08-.96-2.42-1.73-4.03-2.3-1.61-.58-3.52-.86-5.72-.86-2.35,0-4.45.55-6.3,1.66-1.85,1.1-3.41,2.62-4.68,4.54-1.27,1.92-2.24,4.2-2.92,6.84-.67,2.64-1.01,5.47-1.01,8.5,0,4.18.42,7.88,1.26,11.12.84,3.24,2,5.99,3.49,8.24,1.49,2.26,3.26,3.97,5.33,5.15,2.06,1.18,4.32,1.76,6.77,1.76,1.63,0,3.23-.26,4.79-.79,1.56-.53,3-1.25,4.32-2.16,1.32-.91,2.5-1.97,3.53-3.17,1.03-1.2,1.84-2.47,2.41-3.82.09-.19.35-.33.76-.43.41-.1.61-.05.61.14,0,.62-.2,1.48-.61,2.56-.41,1.08-.88,2.16-1.4,3.24-.53,1.08-1.06,2.06-1.58,2.95-.53.89-.89,1.48-1.08,1.76-.14.34-.32.78-.54,1.33-.22.55-.41,1.18-.58,1.87-.17.7-.32,1.41-.47,2.16-.14.74-.22,1.47-.22,2.2,0,.77-.1,1.25-.29,1.44-.19.19-.6.29-1.22.29-.53,0-.77-.37-.72-1.12s.17-1.6.36-2.55c.19-.96.38-1.86.58-2.7.19-.84.19-1.38,0-1.62Z" />
    <path
        d="M393.63,38.81c-.29-1.49-.62-2.82-1.01-4-.38-1.18-.86-2.16-1.44-2.95-.58-.79-1.27-1.39-2.09-1.8-.82-.41-1.82-.61-3.02-.61-1.06,0-2.03.19-2.92.58-.89.38-1.66.84-2.3,1.37-.65.53-1.15,1.06-1.51,1.58-.36.53-.56.94-.61,1.22-.05.38-.26.58-.65.58-.67,0-1.3-.24-1.87-.72-.58-.48-.86-1.06-.86-1.73,0-.38.05-.67.14-.86,1.1-.62,2.45-1.3,4.03-2.02,1.58-.72,3.23-1.39,4.93-2.02,1.7-.62,3.4-1.14,5.08-1.55,1.68-.41,3.19-.61,4.54-.61,2.02,0,3.56.29,4.64.86s1.88,1.39,2.41,2.45c.53,1.06.85,2.29.97,3.71.12,1.42.23,2.94.32,4.57.14,2.45.33,4.81.58,7.09.24,2.28.6,4.3,1.08,6.05.48,1.75,1.09,3.17,1.84,4.25.74,1.08,1.67,1.62,2.77,1.62.53,0,1.1-.1,1.73-.29.62-.19,1.22-.42,1.8-.68s1.09-.53,1.55-.79c.46-.26.76-.44.9-.54.43,0,.7.22.79.65,0,.24-.05.46-.14.65-.1.1-.46.34-1.08.72-.62.38-1.39.84-2.3,1.37-.91.53-1.92,1.09-3.02,1.69-1.11.6-2.2,1.16-3.28,1.69-1.08.53-2.08.96-2.99,1.3-.91.33-1.63.5-2.16.5-.62,0-1.16-.25-1.62-.76-.46-.5-.85-1.18-1.19-2.02-.34-.84-.62-1.81-.86-2.92-.24-1.1-.46-2.26-.65-3.46-.86.72-1.97,1.57-3.31,2.56s-2.81,1.91-4.39,2.77c-1.58.86-3.2,1.6-4.86,2.2-1.66.6-3.25.9-4.79.9-1.3,0-2.42-.21-3.38-.61-.96-.41-1.76-.95-2.41-1.62-.65-.67-1.13-1.45-1.44-2.34-.31-.89-.47-1.81-.47-2.77,0-1.54.47-2.8,1.4-3.78.94-.98,2.39-2,4.36-3.06.91-.48,2.18-1.12,3.82-1.91s3.3-1.6,5-2.41c1.7-.82,3.29-1.6,4.75-2.34,1.46-.74,2.53-1.33,3.2-1.76ZM395.72,49.97c-.14-.82-.29-1.7-.43-2.66-.14-.96-.29-1.87-.43-2.74-.14-.86-.28-1.61-.4-2.23-.12-.62-.21-1.03-.25-1.22-.77.29-1.63.62-2.59,1.01-.96.38-1.92.8-2.88,1.26-.96.46-1.87.91-2.74,1.37-.86.46-1.58.88-2.16,1.26-1.1.72-1.94,1.44-2.52,2.16-.58.72-.86,1.58-.86,2.59,0,1.39.41,2.62,1.22,3.67.82,1.06,2.09,1.58,3.82,1.58.91,0,1.86-.17,2.84-.5.98-.33,1.9-.72,2.74-1.15.84-.43,1.57-.86,2.2-1.3.62-.43,1.05-.77,1.3-1.01.38-.38.68-.71.9-.97.22-.26.3-.63.25-1.12Z" />
    <path
        d="M445.04,30.6c-.53.43-1.15.97-1.87,1.62-.72.65-1.48,1.27-2.27,1.87-.79.6-1.6,1.12-2.41,1.55s-1.61.65-2.38.65c-.67,0-1.27-.16-1.8-.47-.53-.31-1.02-.65-1.48-1.01-.46-.36-.9-.69-1.33-1.01-.43-.31-.89-.47-1.37-.47-1.3,0-2.39.53-3.28,1.58-.89,1.06-1.61,2.4-2.16,4.03-.55,1.63-.96,3.41-1.22,5.33-.26,1.92-.4,3.77-.4,5.54,0,1.49.06,2.7.18,3.64.12.94.3,1.68.54,2.23.24.55.56.92.97,1.12.41.19.9.29,1.48.29.62,0,1.3-.1,2.02-.29.14-.05.25.05.32.29.07.24.11.43.11.58,0,.1-.07.21-.22.32-.14.12-.24.18-.29.18-1.06.43-2.14.9-3.24,1.4-1.11.5-2.02.92-2.74,1.26-.67.29-1.48.6-2.41.94-.94.33-1.74.5-2.41.5-.77,0-1.4-.12-1.91-.36s-.76-.48-.76-.72.06-.46.18-.65.23-.55.32-1.08c.1-.72.2-1.57.32-2.56.12-.98.24-2.05.36-3.2.12-1.15.22-2.34.29-3.56.07-1.22.11-2.44.11-3.64,0-2.69-.08-4.97-.25-6.84-.17-1.87-.47-3.38-.9-4.54-.43-1.15-1.02-1.98-1.76-2.48s-1.69-.76-2.84-.76h-.65c-.19,0-.38.02-.58.07-.29,0-.43-.14-.43-.43s.14-.5.43-.65c.53-.34,1.34-.83,2.45-1.48,1.1-.65,2.24-1.27,3.42-1.87,1.18-.6,2.32-1.14,3.42-1.62,1.1-.48,1.92-.72,2.45-.72.62,0,1.15.2,1.58.61.43.41.76.92.97,1.55.22.62.37,1.33.47,2.12.1.79.14,1.57.14,2.34,0,.58-.01,1.18-.04,1.8-.02.62-.04,1.3-.04,2.02,2.16-3.17,4.1-5.63,5.83-7.38,1.73-1.75,3.36-2.63,4.9-2.63.58,0,1.14.24,1.69.72.55.48,1.14,1.02,1.76,1.62.62.6,1.27,1.14,1.94,1.62.67.48,1.37.72,2.09.72.62,0,1.08-.07,1.37-.22.29-.14.53-.26.72-.36.38,0,.58.26.58.79v.07Z" />
    <path
        d="M477.08,30.6c-.53.43-1.15.97-1.87,1.62-.72.65-1.48,1.27-2.27,1.87-.79.6-1.6,1.12-2.41,1.55s-1.61.65-2.38.65c-.67,0-1.27-.16-1.8-.47-.53-.31-1.02-.65-1.48-1.01-.46-.36-.9-.69-1.33-1.01-.43-.31-.89-.47-1.37-.47-1.3,0-2.39.53-3.28,1.58-.89,1.06-1.61,2.4-2.16,4.03-.55,1.63-.96,3.41-1.22,5.33-.26,1.92-.4,3.77-.4,5.54,0,1.49.06,2.7.18,3.64.12.94.3,1.68.54,2.23.24.55.56.92.97,1.12.41.19.9.29,1.48.29.62,0,1.3-.1,2.02-.29.14-.05.25.05.32.29.07.24.11.43.11.58,0,.1-.07.21-.22.32-.14.12-.24.18-.29.18-1.06.43-2.14.9-3.24,1.4-1.11.5-2.02.92-2.74,1.26-.67.29-1.48.6-2.41.94-.94.33-1.74.5-2.41.5-.77,0-1.4-.12-1.91-.36s-.76-.48-.76-.72.06-.46.18-.65.23-.55.32-1.08c.1-.72.2-1.57.32-2.56.12-.98.24-2.05.36-3.2.12-1.15.22-2.34.29-3.56.07-1.22.11-2.44.11-3.64,0-2.69-.08-4.97-.25-6.84-.17-1.87-.47-3.38-.9-4.54-.43-1.15-1.02-1.98-1.76-2.48s-1.69-.76-2.84-.76h-.65c-.19,0-.38.02-.58.07-.29,0-.43-.14-.43-.43s.14-.5.43-.65c.53-.34,1.34-.83,2.45-1.48,1.1-.65,2.24-1.27,3.42-1.87,1.18-.6,2.32-1.14,3.42-1.62,1.1-.48,1.92-.72,2.45-.72.62,0,1.15.2,1.58.61.43.41.76.92.97,1.55.22.62.37,1.33.47,2.12.1.79.14,1.57.14,2.34,0,.58-.01,1.18-.04,1.8-.02.62-.04,1.3-.04,2.02,2.16-3.17,4.1-5.63,5.83-7.38,1.73-1.75,3.36-2.63,4.9-2.63.58,0,1.14.24,1.69.72.55.48,1.14,1.02,1.76,1.62.62.6,1.27,1.14,1.94,1.62.67.48,1.37.72,2.09.72.62,0,1.08-.07,1.37-.22.29-.14.53-.26.72-.36.38,0,.58.26.58.79v.07Z" />
    <path
        d="M502.21,55.44c-.53.43-1.25,1.01-2.16,1.73-.91.72-1.97,1.44-3.17,2.16-1.2.72-2.52,1.33-3.96,1.84-1.44.5-2.95.76-4.54.76-2.4,0-4.54-.42-6.41-1.26s-3.45-1.97-4.72-3.38c-1.27-1.42-2.23-3.08-2.88-5-.65-1.92-.97-3.96-.97-6.12,0-2.54.38-4.8,1.15-6.77.77-1.97,1.72-3.68,2.84-5.15,1.13-1.46,2.34-2.69,3.64-3.67,1.3-.98,2.47-1.76,3.53-2.34.48-.29,1.09-.6,1.84-.94.74-.33,1.56-.65,2.45-.94.89-.29,1.85-.54,2.88-.76,1.03-.22,2.1-.32,3.2-.32,2.06,0,4.07.26,6.01.79,1.94.53,3.66,1.36,5.15,2.48,1.49,1.13,2.69,2.58,3.6,4.36.91,1.78,1.37,3.91,1.37,6.41,0,2.02-.37,3.91-1.12,5.69-.75,1.78-1.62,3.36-2.63,4.75-1.01,1.39-2,2.58-2.99,3.56l-2.12,2.12ZM494.07,56.59c2.74,0,4.83-1.03,6.3-3.1,1.46-2.06,2.2-5.23,2.2-9.5,0-2.16-.3-4.16-.9-6.01-.6-1.85-1.44-3.47-2.52-4.86-1.08-1.39-2.34-2.48-3.78-3.28-1.44-.79-3-1.19-4.68-1.19-1.2,0-2.34.31-3.42.94-1.08.62-2.03,1.52-2.84,2.7-.82,1.18-1.46,2.6-1.94,4.28-.48,1.68-.72,3.58-.72,5.69,0,2.26.35,4.27,1.04,6.05.7,1.78,1.62,3.28,2.77,4.5,1.15,1.22,2.46,2.16,3.92,2.81,1.46.65,2.99.97,4.57.97Z" />
    <path
        d="M548.86,51.19c.1-.1.18-.08.25.04.07.12.12.29.14.5.02.22.01.44-.04.68-.05.24-.14.43-.29.58-.96.91-2.16,1.87-3.6,2.88-1.44,1.01-2.93,1.94-4.46,2.81-.43.24-1.03.55-1.8.94-.77.38-1.62.76-2.56,1.12-.94.36-1.9.67-2.88.94-.98.26-1.91.4-2.77.4-1.73,0-3.36-.34-4.9-1.01-1.54-.67-2.88-1.6-4.03-2.77-1.15-1.18-2.05-2.58-2.7-4.21-.65-1.63-.97-3.41-.97-5.33,0-2.06.29-4.01.86-5.83.58-1.82,1.24-3.46,1.98-4.9s1.45-2.65,2.12-3.64c.67-.98,1.13-1.72,1.37-2.2-.91-.05-1.74-.08-2.48-.11-.75-.02-1.45-.04-2.12-.04-1.54,0-2.83.01-3.89.04-1.06.02-1.99.13-2.81.32-.38.1-.74.29-1.08.58-.33.29-.62.5-.86.65-.1-.1-.23-.23-.4-.4-.17-.17-.25-.35-.25-.54,0-.1.02-.17.07-.22,0-.05.31-.32.94-.83.62-.5,1.4-1.1,2.34-1.8.94-.7,1.97-1.46,3.1-2.3,1.13-.84,2.21-1.62,3.24-2.34,1.03-.72,1.92-1.33,2.66-1.84.74-.5,1.24-.8,1.48-.9.29-.1.58-.05.86.14.29.19.38.34.29.43-.14.1-.36.28-.65.54-.29.26-.38.49-.29.68.53.43,1.44.82,2.74,1.15,1.3.34,2.76.61,4.39.83,1.63.22,3.31.38,5.04.5,1.73.12,3.29.18,4.68.18,2.06,0,3.72-.06,4.97-.18,1.25-.12,2.28-.28,3.1-.47.77-.19,1.27-.34,1.51-.43.05,0,.14.07.29.22.14.14.22.31.22.5,0,.1-.35.34-1.04.72-.7.38-1.4.79-2.12,1.22-.43.24-.95.55-1.55.94-.6.38-1.25.76-1.94,1.12-.7.36-1.43.68-2.2.97-.77.29-1.51.46-2.23.5-.72.1-1.56.17-2.52.22-.96.05-1.97.08-3.02.11-1.06.02-2.12.05-3.2.07-1.08.02-2.08.04-2.99.04-.14.24-.37.64-.68,1.19-.31.55-.61,1.26-.9,2.12-.29.86-.55,1.85-.79,2.95-.24,1.1-.36,2.3-.36,3.6,0,1.97.3,3.78.9,5.44.6,1.66,1.44,3.09,2.52,4.28,1.08,1.2,2.36,2.14,3.85,2.81,1.49.67,3.1,1.01,4.82,1.01,1.01,0,1.98-.12,2.92-.36.94-.24,1.82-.55,2.66-.94.84-.38,1.62-.8,2.34-1.26.72-.46,1.34-.9,1.87-1.33l.86-.79Z" />
    <path
        d="M549,59.4c-.38.24-.74.64-1.08,1.19-.34.55-.55.97-.65,1.26-.05.1-.18.18-.4.25-.22.07-.37.11-.47.11-.43,0-.65-.22-.65-.65,0-.14.19-.53.58-1.15.29-.48.74-1.24,1.37-2.27s1.26-2.09,1.91-3.17c.65-1.08,1.25-2.06,1.8-2.95.55-.89.95-1.47,1.19-1.76.24-.24.53-.28.86-.11.33.17.43.37.29.61-.1.1-.17.22-.22.36s-.07.38-.07.72c0,.43.37.97,1.12,1.62.74.65,1.69,1.27,2.84,1.87,1.15.6,2.42,1.12,3.82,1.55,1.39.43,2.76.65,4.1.65,1.58,0,2.84-.46,3.78-1.37.94-.91,1.4-2.11,1.4-3.6,0-1.68-.53-2.93-1.58-3.74-1.06-.82-2.36-1.44-3.92-1.87-1.56-.43-3.26-.78-5.11-1.04-1.85-.26-3.55-.66-5.11-1.19-1.56-.53-2.87-1.3-3.92-2.3s-1.58-2.47-1.58-4.39c0-1.49.52-3,1.55-4.54,1.03-1.54,2.4-2.9,4.1-4.1,1.7-1.2,3.66-2.18,5.87-2.95,2.21-.77,4.51-1.15,6.91-1.15.72,0,1.56.07,2.52.22.96.14,1.91.32,2.84.54.94.22,1.8.43,2.59.65.79.22,1.38.4,1.76.54.1,0,.07.19-.07.58-.14.43-.5,1.09-1.08,1.98-.58.89-1.21,1.76-1.91,2.63-.7.86-1.34,1.63-1.94,2.3-.6.67-1.02,1.01-1.26,1.01h-.43c-.24,0-.41-.05-.5-.14.05-.24.07-.55.07-.94,0-1.68-.76-3-2.27-3.96-1.51-.96-3.71-1.44-6.59-1.44-1.39,0-2.53.41-3.42,1.22-.89.82-1.33,1.8-1.33,2.95,0,1.87.53,3.26,1.58,4.18,1.06.91,2.38,1.6,3.96,2.05,1.58.46,3.29.8,5.11,1.04,1.82.24,3.53.61,5.11,1.12,1.58.5,2.9,1.26,3.96,2.27,1.05,1.01,1.58,2.52,1.58,4.54,0,.91-.19,1.8-.58,2.66-.38.87-.89,1.68-1.51,2.45-.62.77-1.32,1.47-2.09,2.12-.77.65-1.54,1.21-2.3,1.69-.72.48-1.54.97-2.45,1.48-.91.5-1.9.97-2.95,1.4-1.06.43-2.14.78-3.24,1.04-1.1.26-2.21.4-3.31.4-.53,0-1.37-.11-2.52-.32s-2.32-.47-3.49-.76c-1.18-.29-2.22-.56-3.13-.83-.91-.26-1.39-.44-1.44-.54Z" />
    <path
        d="M641.24,65.3c.09,0,.19.14.29.43.1.29.1.53,0,.72-.19.43-.54.91-1.04,1.44-.5.53-1.15,1.03-1.94,1.51-.79.48-1.71.89-2.74,1.22-1.03.33-2.12.5-3.28.5-.96,0-1.75-.17-2.38-.5-.62-.34-1.14-.73-1.55-1.19-.41-.46-.7-.94-.86-1.44-.17-.5-.25-.92-.25-1.26,0-.67.25-1.36.76-2.05.5-.7,1.15-1.51,1.94-2.45s1.63-2.05,2.52-3.35c.89-1.3,1.73-2.87,2.52-4.72.79-1.85,1.44-4.03,1.94-6.55s.76-5.51.76-8.96c0-5.42-1.2-9.58-3.6-12.46-2.4-2.88-5.5-4.32-9.29-4.32-1.01,0-2.23.28-3.67.83-1.44.55-2.82,1.32-4.14,2.3-1.32.98-2.46,2.16-3.42,3.53-.96,1.37-1.46,2.87-1.51,4.5-.05.86-.08,1.87-.11,3.02-.02,1.15-.04,2.38-.04,3.67v7.92c.05,2.59.14,4.9.29,6.91.14,2.02.36,3.29.65,3.82.38.58,1.04.91,1.98,1.01.94.1,1.81.14,2.63.14.43,0,.65.31.65.94,0,.58-.29.86-.86.86-.29,0-.78-.01-1.48-.04-.7-.03-1.46-.04-2.3-.04s-1.68-.01-2.52-.04c-.84-.03-1.52-.04-2.05-.04-1.25,0-2.57.01-3.96.04-1.39.02-2.71.05-3.96.07-1.25.02-2.34.06-3.28.11-.94.05-1.55.1-1.84.14-.14,0-.24-.1-.29-.29-.05-.19-.05-.41,0-.65.05-.24.14-.46.29-.65.14-.19.29-.29.43-.29.96,0,1.93-.08,2.92-.25.98-.17,1.6-.35,1.84-.54.38-.29.73-1.22,1.04-2.81.31-1.58.59-3.55.83-5.9.24-2.35.43-4.93.58-7.74.14-2.81.22-5.56.22-8.24,0-5.42-.02-9.67-.07-12.74-.05-3.07-.18-5.36-.4-6.88-.22-1.51-.53-2.44-.94-2.77-.41-.33-.95-.5-1.62-.5-.19,0-.47.01-.83.04-.36.02-.73.06-1.12.11-.38.05-.73.08-1.04.11-.31.02-.52.04-.61.04s-.16-.1-.18-.29c-.02-.19-.04-.38-.04-.58s.02-.46.07-.79c.05-.33.19-.5.43-.5h.94c.38,0,.98.01,1.8.04.82.02,1.91.05,3.28.07,1.37.02,3.16.04,5.36.04,7.34,0,13.79-.34,19.33-1.01,5.54-.67,10.38-1.63,14.51-2.88.43-.14.71-.16.83-.04.12.12.18.32.18.61,0,.34-.21.78-.61,1.33-.41.55-.91,1.1-1.51,1.66-.6.55-1.25,1.02-1.94,1.4-.7.38-1.36.58-1.98.58-.82,0-1.83-.02-3.02-.07-1.2-.05-2.5-.1-3.89-.14-1.39-.05-2.86-.08-4.39-.11-1.54-.02-3.05-.04-4.54-.04-2.4,0-4.36.18-5.87.54-1.51.36-2.39.9-2.63,1.62-.43,1.01-.7,2.51-.79,4.5-.1,1.99-.14,4.91-.14,8.75.48-.48,1.38-1.25,2.7-2.3,1.32-1.06,2.88-2.12,4.68-3.2,1.8-1.08,3.76-2.04,5.87-2.88,2.11-.84,4.22-1.26,6.34-1.26s3.96.37,5.83,1.12c1.87.75,3.53,1.76,4.97,3.06,1.44,1.3,2.59,2.82,3.46,4.57.86,1.75,1.3,3.64,1.3,5.65,0,2.21-.31,4.32-.94,6.34-.62,2.02-1.42,3.95-2.38,5.8-.96,1.85-1.99,3.64-3.1,5.36-1.11,1.73-2.14,3.41-3.1,5.04-.96,1.63-1.75,3.23-2.38,4.79-.62,1.56-.94,3.08-.94,4.57,0,.96.3,1.76.9,2.41.6.65,1.55.97,2.84.97.62,0,1.17-.11,1.66-.32.48-.22.79-.44.94-.68h.07Z" />
    <path
        d="M680.12,55.44c-.53.43-1.25,1.01-2.16,1.73-.91.72-1.97,1.44-3.17,2.16-1.2.72-2.52,1.33-3.96,1.84-1.44.5-2.95.76-4.54.76-2.4,0-4.54-.42-6.41-1.26s-3.45-1.97-4.72-3.38c-1.27-1.42-2.23-3.08-2.88-5-.65-1.92-.97-3.96-.97-6.12,0-2.54.38-4.8,1.15-6.77.77-1.97,1.72-3.68,2.84-5.15,1.13-1.46,2.34-2.69,3.64-3.67,1.3-.98,2.47-1.76,3.53-2.34.48-.29,1.09-.6,1.84-.94.74-.33,1.56-.65,2.45-.94.89-.29,1.85-.54,2.88-.76,1.03-.22,2.1-.32,3.2-.32,2.06,0,4.07.26,6.01.79,1.94.53,3.66,1.36,5.15,2.48,1.49,1.13,2.69,2.58,3.6,4.36.91,1.78,1.37,3.91,1.37,6.41,0,2.02-.37,3.91-1.12,5.69-.75,1.78-1.62,3.36-2.63,4.75-1.01,1.39-2,2.58-2.99,3.56l-2.12,2.12ZM671.98,56.59c2.74,0,4.83-1.03,6.3-3.1,1.46-2.06,2.2-5.23,2.2-9.5,0-2.16-.3-4.16-.9-6.01-.6-1.85-1.44-3.47-2.52-4.86-1.08-1.39-2.34-2.48-3.78-3.28-1.44-.79-3-1.19-4.68-1.19-1.2,0-2.34.31-3.42.94-1.08.62-2.03,1.52-2.84,2.7-.82,1.18-1.46,2.6-1.94,4.28-.48,1.68-.72,3.58-.72,5.69,0,2.26.35,4.27,1.04,6.05.7,1.78,1.62,3.28,2.77,4.5,1.15,1.22,2.46,2.16,3.92,2.81,1.46.65,2.99.97,4.57.97Z" />
    <path
        d="M693.15,59.4c-.38.24-.74.64-1.08,1.19-.34.55-.55.97-.65,1.26-.05.1-.18.18-.4.25-.22.07-.37.11-.47.11-.43,0-.65-.22-.65-.65,0-.14.19-.53.58-1.15.29-.48.74-1.24,1.37-2.27s1.26-2.09,1.91-3.17c.65-1.08,1.25-2.06,1.8-2.95.55-.89.95-1.47,1.19-1.76.24-.24.53-.28.86-.11.33.17.43.37.29.61-.1.1-.17.22-.22.36s-.07.38-.07.72c0,.43.37.97,1.12,1.62.74.65,1.69,1.27,2.84,1.87,1.15.6,2.42,1.12,3.82,1.55,1.39.43,2.76.65,4.1.65,1.58,0,2.84-.46,3.78-1.37.94-.91,1.4-2.11,1.4-3.6,0-1.68-.53-2.93-1.58-3.74-1.06-.82-2.36-1.44-3.92-1.87-1.56-.43-3.26-.78-5.11-1.04-1.85-.26-3.55-.66-5.11-1.19-1.56-.53-2.87-1.3-3.92-2.3s-1.58-2.47-1.58-4.39c0-1.49.52-3,1.55-4.54,1.03-1.54,2.4-2.9,4.1-4.1,1.7-1.2,3.66-2.18,5.87-2.95,2.21-.77,4.51-1.15,6.91-1.15.72,0,1.56.07,2.52.22.96.14,1.91.32,2.84.54.94.22,1.8.43,2.59.65.79.22,1.38.4,1.76.54.1,0,.07.19-.07.58-.14.43-.5,1.09-1.08,1.98-.58.89-1.21,1.76-1.91,2.63-.7.86-1.34,1.63-1.94,2.3-.6.67-1.02,1.01-1.26,1.01h-.43c-.24,0-.41-.05-.5-.14.05-.24.07-.55.07-.94,0-1.68-.76-3-2.27-3.96-1.51-.96-3.71-1.44-6.59-1.44-1.39,0-2.53.41-3.42,1.22-.89.82-1.33,1.8-1.33,2.95,0,1.87.53,3.26,1.58,4.18,1.06.91,2.38,1.6,3.96,2.05,1.58.46,3.29.8,5.11,1.04,1.82.24,3.53.61,5.11,1.12,1.58.5,2.9,1.26,3.96,2.27,1.05,1.01,1.58,2.52,1.58,4.54,0,.91-.19,1.8-.58,2.66-.38.87-.89,1.68-1.51,2.45-.62.77-1.32,1.47-2.09,2.12-.77.65-1.54,1.21-2.3,1.69-.72.48-1.54.97-2.45,1.48-.91.5-1.9.97-2.95,1.4-1.06.43-2.14.78-3.24,1.04-1.1.26-2.21.4-3.31.4-.53,0-1.37-.11-2.52-.32s-2.32-.47-3.49-.76c-1.18-.29-2.22-.56-3.13-.83-.91-.26-1.39-.44-1.44-.54Z" />
    <path
        d="M753.77,57.89c-1.54.96-3.43,1.82-5.69,2.59-2.26.77-4.44,1.15-6.55,1.15-.67,0-1.43-.05-2.27-.14-.84-.1-1.52-.19-2.05-.29-.05.91-.08,1.85-.11,2.81-.02.96-.05,1.88-.07,2.77-.02.89-.05,1.72-.07,2.48-.03.77-.04,1.42-.04,1.94,0,2.45.2,4.1.61,4.97.41.86,1.04,1.3,1.91,1.3.43,0,1.02-.06,1.76-.18.74-.12,1.4-.32,1.98-.61.1-.1.2,0,.32.29.12.29.18.55.18.79,0,.05-.34.18-1.01.4-.67.22-1.52.48-2.56.79-1.03.31-2.15.65-3.35,1.01-1.2.36-2.35.7-3.46,1.01-1.1.31-2.05.56-2.84.76-.79.19-1.28.29-1.48.29-.29,0-.55-.02-.79-.07-.24-.05-.36-.26-.36-.65,0-.24.08-.4.25-.47.17-.07.3-.18.4-.32.24-.29.38-.83.43-1.62.05-.79.12-1.57.22-2.34.14-1.87.3-4.09.47-6.66.17-2.57.32-5.26.47-8.06.14-2.81.28-5.62.4-8.42.12-2.81.18-5.36.18-7.67,0-3.26-.13-5.82-.4-7.67-.26-1.85-.64-3.22-1.12-4.1-.48-.89-1.02-1.44-1.62-1.66-.6-.22-1.24-.32-1.91-.32-.14,0-.35.01-.61.04-.26.02-.52.04-.76.04-.19,0-.29-.17-.29-.5,0-.24.01-.4.04-.47.02-.07.13-.16.32-.25.24-.14.68-.38,1.33-.72.65-.34,1.39-.71,2.23-1.12.84-.41,1.74-.84,2.7-1.3.96-.46,1.86-.86,2.7-1.22.84-.36,1.57-.66,2.2-.9.62-.24,1.06-.36,1.3-.36.72,0,1.21.31,1.48.94.26.62.42,1.46.47,2.52,0,.43-.01,1.12-.04,2.05-.02.94-.06,2-.11,3.2.62-.67,1.48-1.5,2.56-2.48,1.08-.98,2.3-1.93,3.67-2.84,1.37-.91,2.81-1.69,4.32-2.34,1.51-.65,2.99-.97,4.43-.97,2.06,0,3.9.37,5.51,1.12,1.61.74,2.94,1.73,4,2.95,1.06,1.22,1.86,2.62,2.41,4.18.55,1.56.83,3.16.83,4.79,0,2.3-.35,4.43-1.04,6.37-.7,1.94-1.55,3.67-2.56,5.18-1.01,1.51-2.11,2.82-3.31,3.92-1.2,1.1-2.3,1.97-3.31,2.59l-2.3,1.51ZM737.57,52.34c.14.53.53,1.07,1.15,1.62.62.55,1.43,1.06,2.41,1.51.98.46,2.11.84,3.38,1.15,1.27.31,2.63.47,4.07.47,1.3,0,2.53-.25,3.71-.76,1.18-.5,2.2-1.29,3.06-2.38s1.55-2.48,2.05-4.21c.5-1.73.76-3.82.76-6.26,0-1.73-.24-3.36-.72-4.9-.48-1.54-1.18-2.88-2.09-4.03-.91-1.15-1.99-2.05-3.24-2.7s-2.62-.97-4.1-.97c-.77,0-1.62.17-2.56.5-.94.34-1.84.79-2.7,1.37s-1.67,1.25-2.41,2.02c-.75.77-1.29,1.58-1.62,2.45-.24.58-.44,1.48-.61,2.7s-.29,2.57-.36,4.03c-.07,1.46-.12,2.94-.14,4.43-.02,1.49-.04,2.81-.04,3.96Z" />
    <path
        d="M780.62,48.67c0,1.01.02,1.98.07,2.92.05.94.22,1.74.5,2.41.29.67.72,1.21,1.3,1.62.58.41,1.39.61,2.45.61.53,0,1.13-.06,1.8-.18.67-.12,1.31-.28,1.91-.47.6-.19,1.13-.38,1.58-.58.46-.19.73-.33.83-.43.14-.14.24-.14.29,0,.05.14.06.32.04.54s-.08.43-.18.65c-.1.22-.22.37-.36.47-.48.24-1.32.67-2.52,1.3-1.2.62-2.62,1.27-4.25,1.94-1.54.67-3.04,1.24-4.5,1.69-1.46.46-2.68.68-3.64.68-1.1,0-1.97-.34-2.59-1.01-.62-.67-.94-1.51-.94-2.52,0-.34.01-.62.04-.86.02-.24.06-.55.11-.94.05-.48.13-1.36.25-2.63.12-1.27.24-2.7.36-4.28.12-1.58.23-3.18.32-4.79.1-1.61.14-2.99.14-4.14v-2.52c0-1.25-.07-2.35-.22-3.31-.14-.96-.38-1.7-.72-2.23-.24-.34-.54-.61-.9-.83-.36-.22-.8-.32-1.33-.32-.29,0-.58.06-.86.18-.29.12-.5.18-.65.18-.1,0-.25-.14-.47-.43s-.21-.5.04-.65c.33-.24,1.03-.62,2.09-1.15l3.46-1.73c1.34-.67,2.64-1.26,3.89-1.76,1.25-.5,2.14-.76,2.66-.76s.89.16,1.08.47c.19.31.29.66.29,1.04v.29c0,.48-.07,1.25-.22,2.3-.14,1.06-.3,2.35-.47,3.89-.17,1.54-.32,3.31-.47,5.33-.14,2.02-.22,4.2-.22,6.55v3.46ZM777.75,11.23c.24.05.64.31,1.19.79.55.48,1.12,1.03,1.69,1.66.58.62,1.08,1.22,1.51,1.8.43.58.65.96.65,1.15,0,.24-.29.6-.86,1.08-.58.48-1.24.97-1.98,1.48-.75.5-1.46.95-2.16,1.33-.7.38-1.19.58-1.48.58-.14,0-.49-.23-1.04-.68-.55-.46-1.12-.97-1.69-1.55s-1.09-1.14-1.55-1.69c-.46-.55-.68-.92-.68-1.12,0-.24.31-.61.94-1.12.62-.5,1.31-1.03,2.05-1.58.74-.55,1.46-1.03,2.16-1.44.7-.41,1.12-.64,1.26-.68Z" />
    <path
        d="M822.96,51.19c.1-.1.18-.08.25.04.07.12.12.29.14.5.02.22.01.44-.04.68-.05.24-.14.43-.29.58-.96.91-2.16,1.87-3.6,2.88-1.44,1.01-2.93,1.94-4.46,2.81-.43.24-1.03.55-1.8.94-.77.38-1.62.76-2.56,1.12-.94.36-1.9.67-2.88.94-.98.26-1.91.4-2.77.4-1.73,0-3.36-.34-4.9-1.01-1.54-.67-2.88-1.6-4.03-2.77-1.15-1.18-2.05-2.58-2.7-4.21-.65-1.63-.97-3.41-.97-5.33,0-2.06.29-4.01.86-5.83.58-1.82,1.24-3.46,1.98-4.9s1.45-2.65,2.12-3.64c.67-.98,1.13-1.72,1.37-2.2-.91-.05-1.74-.08-2.48-.11-.75-.02-1.45-.04-2.12-.04-1.54,0-2.83.01-3.89.04-1.06.02-1.99.13-2.81.32-.38.1-.74.29-1.08.58-.33.29-.62.5-.86.65-.1-.1-.23-.23-.4-.4-.17-.17-.25-.35-.25-.54,0-.1.02-.17.07-.22,0-.05.31-.32.94-.83.62-.5,1.4-1.1,2.34-1.8.94-.7,1.97-1.46,3.1-2.3,1.13-.84,2.21-1.62,3.24-2.34,1.03-.72,1.92-1.33,2.66-1.84.74-.5,1.24-.8,1.48-.9.29-.1.58-.05.86.14.29.19.38.34.29.43-.14.1-.36.28-.65.54-.29.26-.38.49-.29.68.53.43,1.44.82,2.74,1.15,1.3.34,2.76.61,4.39.83,1.63.22,3.31.38,5.04.5,1.73.12,3.29.18,4.68.18,2.06,0,3.72-.06,4.97-.18,1.25-.12,2.28-.28,3.1-.47.77-.19,1.27-.34,1.51-.43.05,0,.14.07.29.22.14.14.22.31.22.5,0,.1-.35.34-1.04.72-.7.38-1.4.79-2.12,1.22-.43.24-.95.55-1.55.94-.6.38-1.25.76-1.94,1.12-.7.36-1.43.68-2.2.97-.77.29-1.51.46-2.23.5-.72.1-1.56.17-2.52.22-.96.05-1.97.08-3.02.11-1.06.02-2.12.05-3.2.07-1.08.02-2.08.04-2.99.04-.14.24-.37.64-.68,1.19-.31.55-.61,1.26-.9,2.12-.29.86-.55,1.85-.79,2.95-.24,1.1-.36,2.3-.36,3.6,0,1.97.3,3.78.9,5.44.6,1.66,1.44,3.09,2.52,4.28,1.08,1.2,2.36,2.14,3.85,2.81,1.49.67,3.1,1.01,4.82,1.01,1.01,0,1.98-.12,2.92-.36.94-.24,1.82-.55,2.66-.94.84-.38,1.62-.8,2.34-1.26.72-.46,1.34-.9,1.87-1.33l.86-.79Z" />
    <path
        d="M844.34,38.81c-.29-1.49-.62-2.82-1.01-4-.38-1.18-.86-2.16-1.44-2.95-.58-.79-1.27-1.39-2.09-1.8-.82-.41-1.82-.61-3.02-.61-1.06,0-2.03.19-2.92.58-.89.38-1.66.84-2.3,1.37-.65.53-1.15,1.06-1.51,1.58-.36.53-.56.94-.61,1.22-.05.38-.26.58-.65.58-.67,0-1.3-.24-1.87-.72-.58-.48-.86-1.06-.86-1.73,0-.38.05-.67.14-.86,1.1-.62,2.45-1.3,4.03-2.02,1.58-.72,3.23-1.39,4.93-2.02,1.7-.62,3.4-1.14,5.08-1.55,1.68-.41,3.19-.61,4.54-.61,2.02,0,3.56.29,4.64.86s1.88,1.39,2.41,2.45c.53,1.06.85,2.29.97,3.71.12,1.42.23,2.94.32,4.57.14,2.45.33,4.81.58,7.09.24,2.28.6,4.3,1.08,6.05.48,1.75,1.09,3.17,1.84,4.25.74,1.08,1.67,1.62,2.77,1.62.53,0,1.1-.1,1.73-.29.62-.19,1.22-.42,1.8-.68s1.09-.53,1.55-.79c.46-.26.76-.44.9-.54.43,0,.7.22.79.65,0,.24-.05.46-.14.65-.1.1-.46.34-1.08.72-.62.38-1.39.84-2.3,1.37-.91.53-1.92,1.09-3.02,1.69-1.11.6-2.2,1.16-3.28,1.69-1.08.53-2.08.96-2.99,1.3-.91.33-1.63.5-2.16.5-.62,0-1.16-.25-1.62-.76-.46-.5-.85-1.18-1.19-2.02-.34-.84-.62-1.81-.86-2.92-.24-1.1-.46-2.26-.65-3.46-.86.72-1.97,1.57-3.31,2.56s-2.81,1.91-4.39,2.77c-1.58.86-3.2,1.6-4.86,2.2-1.66.6-3.25.9-4.79.9-1.3,0-2.42-.21-3.38-.61-.96-.41-1.76-.95-2.41-1.62-.65-.67-1.13-1.45-1.44-2.34-.31-.89-.47-1.81-.47-2.77,0-1.54.47-2.8,1.4-3.78.94-.98,2.39-2,4.36-3.06.91-.48,2.18-1.12,3.82-1.91s3.3-1.6,5-2.41c1.7-.82,3.29-1.6,4.75-2.34,1.46-.74,2.53-1.33,3.2-1.76ZM846.43,49.97c-.14-.82-.29-1.7-.43-2.66-.14-.96-.29-1.87-.43-2.74-.14-.86-.28-1.61-.4-2.23-.12-.62-.21-1.03-.25-1.22-.77.29-1.63.62-2.59,1.01-.96.38-1.92.8-2.88,1.26-.96.46-1.87.91-2.74,1.37-.86.46-1.58.88-2.16,1.26-1.1.72-1.94,1.44-2.52,2.16-.58.72-.86,1.58-.86,2.59,0,1.39.41,2.62,1.22,3.67.82,1.06,2.09,1.58,3.82,1.58.91,0,1.86-.17,2.84-.5.98-.33,1.9-.72,2.74-1.15.84-.43,1.57-.86,2.2-1.3.62-.43,1.05-.77,1.3-1.01.38-.38.68-.71.9-.97.22-.26.3-.63.25-1.12Z" />
    <path
        d="M886.68,53.85c.29.19.43.43.43.72,0,.38-.55.89-1.66,1.51-1.15.67-2.68,1.46-4.57,2.38-1.9.91-3.78,1.7-5.65,2.38-.91.34-1.73.62-2.45.86-.72.24-1.37.36-1.94.36-.67,0-1.5-.16-2.48-.47-.98-.31-1.84-.68-2.56-1.12-.58-.38-1.03-.68-1.37-.9-.34-.22-.5-.44-.5-.68,0-.19.06-.37.18-.54.12-.17.23-.37.32-.61.05-.14.1-.33.14-.58.05-.24.07-.48.07-.72.14-1.2.3-2.94.47-5.22.17-2.28.3-4.8.4-7.56.1-2.76.18-5.62.25-8.57.07-2.95.11-5.7.11-8.24,0-3.12-.01-5.64-.04-7.56-.03-1.92-.08-3.46-.18-4.61-.14-1.58-.34-2.63-.58-3.13-.24-.5-.5-.88-.79-1.12-.34-.29-.66-.47-.97-.54-.31-.07-.6-.12-.86-.14-.26-.02-.48-.04-.65-.04s-.25-.05-.25-.14c0-1.58.67-2.38,2.02-2.38,1.01,0,2.2.01,3.56.04,1.37.02,2.51.04,3.42.04.58,0,1.19-.04,1.84-.11.65-.07,1.28-.14,1.91-.22.62-.07,1.2-.16,1.73-.25.53-.1.91-.19,1.15-.29.19-.05.35.02.47.22.12.19.19.43.22.72.02.29-.02.55-.14.79-.12.24-.28.38-.47.43-.29.05-.54.07-.76.07s-.59.1-1.12.29c-.24.1-.46.4-.65.9-.19.5-.36,1.3-.5,2.38s-.29,2.5-.43,4.25c-.14,1.75-.29,3.95-.43,6.59-.14,2.11-.25,4.26-.32,6.44-.07,2.18-.14,4.31-.22,6.37-.07,2.06-.12,3.98-.14,5.76-.03,1.78-.04,3.29-.04,4.54,0,1.39.01,2.8.04,4.21.02,1.42.16,2.53.4,3.35.24.77.86,1.49,1.87,2.16,1.01.67,2.06,1.01,3.17,1.01.86,0,1.75-.12,2.66-.36.91-.24,1.75-.53,2.52-.86.77-.34,1.45-.67,2.05-1.01.6-.34,1.04-.6,1.33-.79Z" />
    <path
        d="M893.45,48.67c0,1.01.02,1.98.07,2.92.05.94.22,1.74.5,2.41.29.67.72,1.21,1.3,1.62.58.41,1.39.61,2.45.61.53,0,1.13-.06,1.8-.18.67-.12,1.31-.28,1.91-.47.6-.19,1.13-.38,1.58-.58.46-.19.73-.33.83-.43.14-.14.24-.14.29,0,.05.14.06.32.04.54s-.08.43-.18.65c-.1.22-.22.37-.36.47-.48.24-1.32.67-2.52,1.3-1.2.62-2.62,1.27-4.25,1.94-1.54.67-3.04,1.24-4.5,1.69-1.46.46-2.68.68-3.64.68-1.1,0-1.97-.34-2.59-1.01-.62-.67-.94-1.51-.94-2.52,0-.34.01-.62.04-.86.02-.24.06-.55.11-.94.05-.48.13-1.36.25-2.63.12-1.27.24-2.7.36-4.28.12-1.58.23-3.18.32-4.79.1-1.61.14-2.99.14-4.14v-2.52c0-1.25-.07-2.35-.22-3.31-.14-.96-.38-1.7-.72-2.23-.24-.34-.54-.61-.9-.83-.36-.22-.8-.32-1.33-.32-.29,0-.58.06-.86.18-.29.12-.5.18-.65.18-.1,0-.25-.14-.47-.43s-.21-.5.04-.65c.33-.24,1.03-.62,2.09-1.15l3.46-1.73c1.34-.67,2.64-1.26,3.89-1.76,1.25-.5,2.14-.76,2.66-.76s.89.16,1.08.47c.19.31.29.66.29,1.04v.29c0,.48-.07,1.25-.22,2.3-.14,1.06-.3,2.35-.47,3.89-.17,1.54-.32,3.31-.47,5.33-.14,2.02-.22,4.2-.22,6.55v3.46ZM890.57,11.23c.24.05.64.31,1.19.79.55.48,1.12,1.03,1.69,1.66.58.62,1.08,1.22,1.51,1.8.43.58.65.96.65,1.15,0,.24-.29.6-.86,1.08-.58.48-1.24.97-1.98,1.48-.75.5-1.46.95-2.16,1.33-.7.38-1.19.58-1.48.58-.14,0-.49-.23-1.04-.68-.55-.46-1.12-.97-1.69-1.55s-1.09-1.14-1.55-1.69c-.46-.55-.68-.92-.68-1.12,0-.24.31-.61.94-1.12.62-.5,1.31-1.03,2.05-1.58.74-.55,1.46-1.03,2.16-1.44.7-.41,1.12-.64,1.26-.68Z" />
    <path
        d="M935.78,51.19c.1-.1.18-.08.25.04.07.12.12.29.14.5.02.22.01.44-.04.68-.05.24-.14.43-.29.58-.96.91-2.16,1.87-3.6,2.88-1.44,1.01-2.93,1.94-4.46,2.81-.43.24-1.03.55-1.8.94-.77.38-1.62.76-2.56,1.12-.94.36-1.9.67-2.88.94-.98.26-1.91.4-2.77.4-1.73,0-3.36-.34-4.9-1.01-1.54-.67-2.88-1.6-4.03-2.77-1.15-1.18-2.05-2.58-2.7-4.21-.65-1.63-.97-3.41-.97-5.33,0-2.06.29-4.01.86-5.83.58-1.82,1.24-3.46,1.98-4.9s1.45-2.65,2.12-3.64c.67-.98,1.13-1.72,1.37-2.2-.91-.05-1.74-.08-2.48-.11-.75-.02-1.45-.04-2.12-.04-1.54,0-2.83.01-3.89.04-1.06.02-1.99.13-2.81.32-.38.1-.74.29-1.08.58-.33.29-.62.5-.86.65-.1-.1-.23-.23-.4-.4-.17-.17-.25-.35-.25-.54,0-.1.02-.17.07-.22,0-.05.31-.32.94-.83.62-.5,1.4-1.1,2.34-1.8.94-.7,1.97-1.46,3.1-2.3,1.13-.84,2.21-1.62,3.24-2.34,1.03-.72,1.92-1.33,2.66-1.84.74-.5,1.24-.8,1.48-.9.29-.1.58-.05.86.14.29.19.38.34.29.43-.14.1-.36.28-.65.54-.29.26-.38.49-.29.68.53.43,1.44.82,2.74,1.15,1.3.34,2.76.61,4.39.83,1.63.22,3.31.38,5.04.5,1.73.12,3.29.18,4.68.18,2.06,0,3.72-.06,4.97-.18,1.25-.12,2.28-.28,3.1-.47.77-.19,1.27-.34,1.51-.43.05,0,.14.07.29.22.14.14.22.31.22.5,0,.1-.35.34-1.04.72-.7.38-1.4.79-2.12,1.22-.43.24-.95.55-1.55.94-.6.38-1.25.76-1.94,1.12-.7.36-1.43.68-2.2.97-.77.29-1.51.46-2.23.5-.72.1-1.56.17-2.52.22-.96.05-1.97.08-3.02.11-1.06.02-2.12.05-3.2.07-1.08.02-2.08.04-2.99.04-.14.24-.37.64-.68,1.19-.31.55-.61,1.26-.9,2.12-.29.86-.55,1.85-.79,2.95-.24,1.1-.36,2.3-.36,3.6,0,1.97.3,3.78.9,5.44.6,1.66,1.44,3.09,2.52,4.28,1.08,1.2,2.36,2.14,3.85,2.81,1.49.67,3.1,1.01,4.82,1.01,1.01,0,1.98-.12,2.92-.36.94-.24,1.82-.55,2.66-.94.84-.38,1.62-.8,2.34-1.26.72-.46,1.34-.9,1.87-1.33l.86-.79Z" />
    <path
        d="M935.42,82.58c.43-.48,1.08-1.27,1.94-2.38s1.81-2.35,2.84-3.74c1.03-1.39,2.09-2.88,3.17-4.46s2.1-3.08,3.06-4.5c.96-1.42,1.79-2.71,2.48-3.89.7-1.18,1.14-2.05,1.33-2.63-.77-2.02-1.58-4.15-2.45-6.41-.86-2.26-1.76-4.49-2.7-6.7-.94-2.21-1.87-4.32-2.81-6.34-.94-2.02-1.86-3.78-2.77-5.29-.91-1.51-1.79-2.72-2.63-3.64-.84-.91-1.6-1.37-2.27-1.37-.19,0-.41.06-.65.18-.24.12-.46.23-.65.32-.14.1-.31-.02-.5-.36-.19-.33-.19-.55,0-.65.19-.14.76-.5,1.69-1.08.94-.58,1.98-1.19,3.13-1.84s2.27-1.24,3.35-1.76c1.08-.53,1.86-.79,2.34-.79s1.04.43,1.69,1.3c.65.86,1.32,2.03,2.02,3.49.7,1.46,1.43,3.13,2.2,5,.77,1.87,1.54,3.83,2.3,5.87.77,2.04,1.52,4.09,2.27,6.16.74,2.06,1.45,3.98,2.12,5.76.62-.96,1.43-2.33,2.41-4.1.98-1.78,1.93-3.67,2.84-5.69.91-2.02,1.69-4.01,2.34-5.98.65-1.97.97-3.62.97-4.97s-.34-2.39-1.01-2.99c-.67-.6-1.42-.9-2.23-.9-.62,0-1.12.01-1.48.04-.36.02-.76.08-1.19.18-.1,0-.24-.06-.43-.18-.19-.12-.29-.3-.29-.54s.53-.5,1.58-.79c1.05-.29,2.28-.55,3.67-.79,1.39-.24,2.76-.44,4.1-.61,1.34-.17,2.28-.25,2.81-.25,1.1,0,1.92.22,2.45.65.53.43.79.94.79,1.51-.29,1.15-.9,2.65-1.84,4.5-.94,1.85-2.05,3.86-3.35,6.05-1.3,2.19-2.68,4.44-4.14,6.77-1.46,2.33-2.87,4.52-4.21,6.59-1.34,2.06-2.56,3.91-3.64,5.54s-1.86,2.83-2.34,3.6c-.96,1.49-1.87,3.04-2.74,4.64-.86,1.61-1.66,3.22-2.38,4.82-.72,1.61-1.36,3.14-1.91,4.61-.55,1.46-.95,2.79-1.19,4-.14.72-.01,1.19.4,1.4.41.22.94.26,1.58.14.65-.12,1.36-.35,2.12-.68.77-.34,1.42-.72,1.94-1.15.24-.19.4-.23.47-.11.07.12.11.3.11.54s-.05.49-.14.76c-.1.26-.22.44-.36.54-.05,0-.6.22-1.66.65-1.06.43-2.33.9-3.82,1.4-1.49.5-3.06.97-4.72,1.4-1.66.43-3.11.65-4.36.65s-1.8-.38-1.8-1.15c0-.1.01-.17.04-.22.02-.05.04-.1.04-.14Z" />
</svg>